<?xml version="1.0" encoding="UTF-8"?><svg id="a" xmlns="http://www.w3.org/2000/svg" viewBox="0 0 664 280"><defs><style>.b{fill:#00357D;}.c{fill:#ffffff;}.d{fill:#ffffff;}.e{fill:none;stroke:#318d43;stroke-linecap:round;stroke-linejoin:round;stroke-width:7.09px;}</style></defs><path class="d" d="M186.56,230.84l33.78,1.94v-22.78l-36.09-6.36,36.09,6.36v-27.33l-37.5-10.65,37.5,10.65v-24.83l-38.7-12.81,38.7,12.81v-29.71l-33.78-13.79,33.78,13.79v-29.49l-33.78-15.14,33.78,15.14v-28.18l-48.72-28.32-48.72,28.32v28.18l35.94-17.26-35.94,17.26v29.49l38.7-15.8-38.7,15.8v29.71l38.58-12.77-38.58,12.77v24.83l38.7-10.65-38.7,10.65v50.11l33.68-4.1-33.68,4.1v17.84h48.72V61.05v189.57h48.72v-17.84l-33.78-1.94ZM123.8,208.04l35.03-6.37-35.03,6.37Z"/><path class="c" d="M.49,0v280h664V0H.49ZM209.13,27.5l36.34-22.65,36.33,22.65v78.11V27.5l-36.33-22.65-36.34,22.65v22.73-22.73ZM245.46,24.58v213.3V24.58ZM346.87,250.62l-40.9,2h-134.36l-48.72-3-15.58,3,15.58-2V70.46l48.72-28.32,48.72,28.32v179.16h44.74v-123.16l40.9-17.22,40.9,17.22v124.16l12.08,2-12.08-2ZM510.8,169.56l-16.4,4.08v.06c-.92,3.2-2.21,6.22-3.8,9.1l8.75,14.49-13.58,13.57-14.53-8.68c-2.88,1.59-5.9,2.84-9.07,3.75h-.07l-4.05,16.39h-19.2l-4.07-16.39h-.04c-3.17-.91-6.19-2.16-9.07-3.75l-14.54,8.68-13.57-13.57,8.68-14.53c-1.59-2.88-2.84-5.9-3.74-9.06v-.06l-16.4-4.08v-19.18l16.4-4.08v-.05c.9-3.17,2.15-6.18,3.74-9.06l-8.68-14.53,13.57-13.57,14.54,8.69c2.88-1.59,5.9-2.84,9.07-3.76h.04l4.07-16.4h19.2l4.05,16.4h.07c3.21.92,6.23,2.21,9.11,3.8l14.48-8.72,13.58,13.57-8.7,14.53c1.58,2.88,2.82,5.89,3.74,9.06v.05l16.4,4.08v19.18ZM584.14,137.96l-12.74,3.11v.04c-.72,2.46-1.73,4.78-2.95,6.97l6.79,11.08-10.55,10.38-11.3-6.64c-2.23,1.21-4.59,2.16-7.05,2.86h-.04l-3.17,12.54h-14.91l-3.17-12.54h-.04c-1.23-.35-2.44-.77-3.61-1.25,1.17.48,2.38.9,3.61,1.25h.04l3.17,12.54h14.91l3.17-12.54h.04c2.46-.7,4.81-1.65,7.05-2.86l11.3,6.64,10.55-10.38-6.79-11.08c1.22-2.19,2.23-4.51,2.95-6.97v-.04l12.74-3.11v-14.67l-12.74-3.12v-.04c-.72-2.42-1.68-4.73-2.92-6.93l6.75-11.11-10.55-10.39-11.26,6.68c-2.23-1.21-4.6-2.21-7.08-2.9h-.04l-3.17-12.53h-14.91l-3.17,12.53h-.04c-2.46.69-4.81,1.65-7.05,2.86l-11.29-6.65-10.56,10.39,4.73,7.78-4.73-7.78,10.56-10.39,11.29,6.65c2.23-1.22,4.59-2.17,7.05-2.86h.04l3.17-12.53h14.91l3.17,12.53h.04c2.48.69,4.85,1.69,7.08,2.9l11.26-6.68,10.55,10.39-6.75,11.11c1.23,2.21,2.2,4.51,2.92,6.93v.04l12.74,3.12v14.67ZM518.13,130.62c0-10.12,8.22-18.33,18.34-18.33s18.34,8.21,18.34,18.33-8.21,18.34-18.34,18.34-18.34-8.22-18.34-18.34Z"/><polygon class="d" points="315.82 222.56 346.87 230.84 346.87 197.64 319.25 188.83 346.87 197.64 346.87 164.63 319.25 154.19 346.87 164.63 346.87 125.46 305.97 108.24 265.08 125.46 265.08 164.63 292.1 155.64 265.08 164.63 265.08 197.64 295.21 189.81 265.08 197.64 265.08 230.84 289.98 226.53 265.08 230.84 265.08 250.62 305.97 250.62 305.97 128.13 305.97 250.62 346.87 250.62 346.87 230.84 315.82 222.56"/><path class="d" d="M494.4,146.25c-.92-3.17-2.16-6.18-3.74-9.06l8.7-14.53-13.58-13.57-14.48,8.72c-2.88-1.58-5.9-2.87-9.11-3.8h-.07l-4.05-16.4h-19.2l-4.07,16.4h-.04c-3.17.92-6.19,2.17-9.07,3.76l-14.54-8.69-13.57,13.57,8.68,14.53c-1.59,2.88-2.84,5.89-3.74,9.06v.05l-16.4,4.08v19.18l16.4,4.08v.06c.9,3.16,2.15,6.18,3.74,9.06l-8.68,14.53,13.57,13.57,14.54-8.68c2.88,1.59,5.9,2.84,9.07,3.75h.04l4.07,16.39h19.2l4.05-16.39h.07c3.17-.91,6.19-2.16,9.07-3.75l14.53,8.68,13.58-13.57-8.75-14.49c1.59-2.89,2.88-5.9,3.8-9.1v-.06l16.4-4.08v-19.18l-16.4-4.08v-.05ZM448.46,185.63c-14.18,0-25.66-11.49-25.66-25.66s11.48-25.68,25.66-25.68,25.68,11.5,25.68,25.68-11.5,25.66-25.68,25.66Z"/><path class="c" d="M448.46,134.29c-14.18,0-25.66,11.5-25.66,25.68s11.48,25.66,25.66,25.66,25.68-11.49,25.68-25.66-11.5-25.68-25.68-25.68Z"/><path class="c" d="M536.47,148.96c10.13,0,18.34-8.22,18.34-18.34s-8.21-18.33-18.34-18.33-18.34,8.21-18.34,18.33,8.22,18.34,18.34,18.34Z"/><path class="b" d="M223.33,251.65V75.8c0-2.99.55-5.44-2.18-7.31-8.12-5.58-17.29-10.05-25.81-15.01-7.4-4.3-14.81-8.61-22.21-12.91-.93-.54-2.1-.54-3.03,0-14.98,8.71-29.96,17.42-44.95,26.13-3.21,1.87-5.22,2.84-5.26,6.71-.05,5.04,0,10.08,0,15.12v163.11c0,3.86,6,3.87,6,0V71.49l-1.49,2.59c16.24-9.44,32.48-18.88,48.72-28.32h-3.03c16.24,9.44,32.48,18.88,48.72,28.32l-1.49-2.59v180.16c0,3.86,6,3.87,6,0h0Z"/><path class="b" d="M157.32,79.82c-11.98,5.75-23.96,11.51-35.94,17.26-3.48,1.67-.44,6.85,3.03,5.18,11.98-5.75,23.96-11.51,35.94-17.26,3.48-1.67.44-6.85-3.03-5.18h0Z"/><path class="b" d="M221.85,97.08c-11.26-5.05-22.52-10.09-33.78-15.14-3.49-1.57-6.55,3.6-3.03,5.18,11.26,5.05,22.52,10.09,33.78,15.14,3.49,1.57,6.55-3.6,3.03-5.18h0Z"/><path class="b" d="M160.8,110.46c-12.9,5.27-25.8,10.53-38.7,15.8-3.53,1.44-1.98,7.25,1.6,5.79,12.9-5.27,25.8-10.53,38.7-15.8,3.53-1.44,1.98-7.25-1.6-5.79h0Z"/><path class="b" d="M221.13,126.26c-11.26-4.6-22.52-9.19-33.78-13.79-3.57-1.46-5.13,4.34-1.6,5.79,11.26,4.6,22.52,9.19,33.78,13.79,3.57,1.46,5.13-4.34,1.6-5.79h0Z"/><path class="b" d="M160.68,143.2c-12.86,4.26-25.72,8.52-38.58,12.77-3.65,1.21-2.09,7,1.6,5.79,12.86-4.26,25.72-8.52,38.58-12.77,3.65-1.21,2.09-7-1.6-5.79h0Z"/><path class="b" d="M221.13,155.97c-12.9-4.27-25.8-8.54-38.7-12.81-3.67-1.22-5.25,4.58-1.6,5.79,12.9,4.27,25.8,8.54,38.7,12.81,3.67,1.22,5.25-4.58,1.6-5.79h0Z"/><path class="b" d="M160.8,170.15c-12.9,3.55-25.8,7.1-38.7,10.65-3.72,1.02-2.14,6.81,1.6,5.79,12.9-3.55,25.8-7.1,38.7-10.65,3.72-1.02,2.14-6.81-1.6-5.79h0Z"/><path class="b" d="M221.13,180.81c-12.5-3.55-25-7.1-37.5-10.65-3.72-1.06-5.31,4.73-1.6,5.79,12.5,3.55,25,7.1,37.5,10.65,3.72,1.06,5.31-4.73,1.6-5.79h0Z"/><path class="b" d="M158.03,199.8c-11.68,2.12-23.35,4.25-35.03,6.37-3.79.69-2.19,6.47,1.6,5.79,11.68-2.12,23.35-4.25,35.03-6.37,3.79-.69,2.19-6.47-1.6-5.79h0Z"/><path class="b" d="M221.13,208.14c-12.03-2.12-24.06-4.24-36.09-6.36-3.78-.67-5.4,5.12-1.6,5.79,12.03,2.12,24.06,4.24,36.09,6.36,3.78.67,5.4-5.12,1.6-5.79h0Z"/><path class="b" d="M156.57,226.71c-11.23,1.37-22.45,2.73-33.68,4.1-3.78.46-3.83,6.47,0,6,11.23-1.37,22.45-2.73,33.68-4.1,3.78-.46,3.83-6.47,0-6h0Z"/><path class="b" d="M220.33,230.81c-11.26-.65-22.52-1.29-33.78-1.94-3.86-.22-3.84,5.78,0,6,11.26.65,22.52,1.29,33.78,1.94,3.86.22,3.84-5.78,0-6h0Z"/><path class="b" d="M212.13,63.26v-22.73l-1.49,2.59c12.11-7.55,24.22-15.1,36.34-22.65h-3.03c12.11,7.55,24.22,15.1,36.33,22.65l-1.49-2.59v78.11c0,3.86,6,3.87,6,0v-52.69c0-8.05.4-16.21,0-24.25-.26-5.29-8.71-8.26-12.69-10.74-8.38-5.22-16.75-10.44-25.13-15.67-.88-.55-2.14-.55-3.03,0-10.85,6.77-21.7,13.53-32.56,20.3-1.2.75-2.72,1.41-3.78,2.36-1.93,1.73-1.49,3.92-1.49,6.33v18.99c0,3.86,6,3.87,6,0h0Z"/><path class="b" d="M349.87,251.65v-125.16c0-1.46-.96-2.37-2.2-2.89-12.1-5.09-24.19-10.18-36.29-15.28-3.73-1.57-5.16-2.38-8.91-.8l-20.94,8.81-17.26,7.26c-1.24.52-2.2,1.45-2.2,2.89v125.16c0,3.86,6,3.87,6,0v-125.16l-2.2,2.89c11.89-5,23.78-10.01,35.67-15.01,1.3-.55,4.05-1.11,5.06-2.13-.59.6-1.73-.76-.77.2.51.51,1.89.8,2.56,1.08,6.96,2.93,13.93,5.86,20.89,8.79,5.6,2.36,11.2,4.72,16.8,7.07l-2.2-2.89v125.16c0,3.86,6,3.87,6,0h0Z"/><path class="b" d="M291.3,153.78c-9.01,2.99-18.02,5.99-27.03,8.98-3.65,1.21-2.08,7.01,1.6,5.79,9.01-2.99,18.02-5.99,27.03-8.98,3.65-1.21,2.08-7.01-1.6-5.79h0Z"/><path class="b" d="M347.67,162.76c-9.21-3.48-18.42-6.96-27.63-10.44-3.62-1.37-5.18,4.43-1.6,5.79,9.21,3.48,18.42,6.96,27.63,10.44,3.62,1.37,5.18-4.43,1.6-5.79h0Z"/><path class="b" d="M294.41,187.94c-10.04,2.61-20.09,5.22-30.13,7.83-3.73.97-2.15,6.76,1.6,5.79,10.04-2.61,20.09-5.22,30.13-7.83,3.73-.97,2.15-6.76-1.6-5.79h0Z"/><path class="b" d="M347.67,195.77c-9.21-2.94-18.42-5.87-27.63-8.81-3.69-1.18-5.27,4.61-1.6,5.79,9.21,2.94,18.42,5.87,27.63,8.81,3.69,1.18,5.27-4.61,1.6-5.79h0Z"/><path class="b" d="M289.19,224.67c-8.3,1.44-16.6,2.87-24.91,4.31-3.8.66-2.19,6.44,1.6,5.79,8.3-1.44,16.6-2.87,24.91-4.31,3.8-.66,2.19-6.44-1.6-5.79h0Z"/><path class="b" d="M347.67,228.98c-8.44-1.88-16.88-3.76-25.31-5.64-3.76-.84-5.37,4.95-1.6,5.79,8.44,1.88,16.88,3.76,25.31,5.64,3.76.84,5.37-4.95,1.6-5.79h0Z"/><path class="b" d="M168.61,57.15v194.5c0,3.86,6,3.87,6,0V57.15c0-3.86-6-3.87-6,0h0Z"/><path class="b" d="M242.46,33.38v217.53c0,3.86,6,3.87,6,0V33.38c0-3.86-6-3.87-6,0h0Z"/><path class="b" d="M302.97,123.41v128.23c0,3.86,6,3.87,6,0V123.41c0-3.86-6-3.87-6,0h0Z"/><path class="b" d="M77.61,254.65h281.34c3.86,0,3.87-6,0-6H77.61c-3.86,0-3.87,6,0,6h0Z"/><path class="e" d="M474.13,159c0-14.18-11.5-25.68-25.68-25.68s-25.66,11.5-25.66,25.68,11.48,25.66,25.66,25.66,25.68-11.49,25.68-25.66Z"/><path class="e" d="M434.75,204.94h.04l4.07,16.39h19.2l4.05-16.39h.07-.07.07c3.17-.91,6.19-2.16,9.07-3.75l14.53,8.68,13.58-13.57-8.75-14.49c1.59-2.89,2.88-5.9,3.8-9.1v-.06.06-.06l16.4-4.08v-19.18l-16.4-4.08v-.05.05-.05c-.92-3.17-2.16-6.18-3.74-9.06l8.7-14.53-13.58-13.57-14.48,8.72c-2.88-1.58-5.9-2.87-9.11-3.8h-.07.07-.07l-4.05-16.4h-19.2l-4.07,16.4h-.04.04-.04c-3.17.92-6.19,2.17-9.07,3.76l-14.54-8.69-13.57,13.57,8.68,14.53c-1.59,2.88-2.84,5.89-3.74,9.06v.05-.05.05l-16.4,4.08v19.18l16.4,4.08v.06-.06.06c.9,3.16,2.15,6.18,3.74,9.06l-8.68,14.53,13.57,13.57,14.54-8.68c2.88,1.59,5.9,2.84,9.07,3.75h.04-.04Z"/><path class="e" d="M554.81,129.64c0-10.12-8.21-18.33-18.34-18.33s-18.34,8.21-18.34,18.33,8.22,18.34,18.34,18.34,18.34-8.22,18.34-18.34Z"/><path class="e" d="M521.41,163.54c1.17.48,2.38.9,3.61,1.25h.04-.04.04l3.17,12.54h14.91l3.17-12.54h.04-.04.04c2.46-.7,4.81-1.65,7.05-2.86l11.3,6.64,10.55-10.38-6.79-11.08c1.22-2.19,2.23-4.51,2.95-6.97v-.04.04-.04l12.74-3.11v-14.67l-12.74-3.12v-.04.04-.04c-.72-2.42-1.68-4.73-2.92-6.93l6.75-11.11-10.55-10.39-11.26,6.68c-2.23-1.21-4.6-2.21-7.08-2.9h-.04.04-.04l-3.17-12.53h-14.91l-3.17,12.53h-.04.04-.04c-2.46.69-4.81,1.65-7.05,2.86l-11.29-6.65-10.56,10.39,4.73,7.78"/></svg>