<?xml version="1.0" encoding="UTF-8"?><svg id="a" xmlns="http://www.w3.org/2000/svg" viewBox="0 0 664 280"><defs><style>.b,.c{fill:#ffffff;}.d{fill:#ffffff;}.c,.e,.f,.g{stroke-linecap:round;stroke-linejoin:round;stroke-width:7.09px;}.c,.f{stroke:#318d43;}.e{stroke:#00357D;}.e,.f,.g{fill:none;}.g{stroke:#00357D;}</style></defs><path class="d" d="M0,0v289h664V0H0ZM406.2,37.69h25.93c1.68-6.8,7.81-11.84,15.12-11.84s13.44,5.05,15.12,11.84h25.93v3.19c0,12.33-10,22.33-22.33,22.33h-37.45c-12.33,0-22.33-10-22.33-22.33v-3.19ZM438.87,200.21h-6.98,6.98ZM431.9,162.9h6.08-6.08ZM430.9,145.98h14.14-14.14ZM446.84,217.13h-15.94,15.94ZM430.9,108.67h51.47-51.47ZM431.9,91.75h73.93-73.93ZM519.73,246.63h-145.78V49.53h33.36-33.36v197.1h145.78v-18.26,18.26ZM507.37,229.96c-26.81,0-48.55-21.74-48.55-48.55s21.74-48.55,48.55-48.55c4.27,0,8.42.56,12.37,1.59V49.53h-31.42,31.42v84.92c20.82,5.47,36.18,24.42,36.18,46.95,0,26.81-21.74,48.55-48.55,48.55Z"/><path class="d" d="M428.53,63.21h37.45c12.33,0,22.33-10,22.33-22.33v-3.19h-25.93c-1.68-6.8-7.81-11.84-15.12-11.84s-13.44,5.05-15.12,11.84h-25.93v3.19c0,12.33,10,22.33,22.33,22.33Z"/><path class="b" d="M519.73,134.45v.36-.36c-3.95-1.04-8.09-1.59-12.37-1.59-26.81,0-48.55,21.74-48.55,48.55s21.74,48.55,48.55,48.55,48.55-21.74,48.55-48.55c0-22.54-15.36-41.48-36.18-46.95ZM501.94,202.25l-19.89-19.18,19.89,19.18,30.75-44.5-30.75,44.5Z"/><polyline class="f" points="391.81 101.15 400.2 109.54 416.63 88.3"/><polyline class="f" points="391.81 155.96 400.2 164.35 416.63 143.11"/><polyline class="f" points="391.81 210.77 400.2 219.16 416.63 197.92"/><line class="g" x1="219.45" y1="146.18" x2="259.68" y2="146.18"/><polyline class="g" points="259.8 231.61 240.58 231.61 240.58 231.61 240.58 60.75 259.8 60.75"/><polyline class="f" points="285.08 228.53 295.15 238.6 314.86 213.11"/><polyline class="g" points="292.93 213.11 277.55 213.11 277.55 250.11 312.76 250.11 312.76 241.58"/><polyline class="f" points="285.08 143.1 295.15 153.17 314.86 127.68"/><polyline class="g" points="292.93 127.68 277.55 127.68 277.55 164.68 312.76 164.68 312.76 156.15"/><polyline class="f" points="285.08 57.66 295.15 67.74 314.86 42.25"/><polyline class="g" points="292.93 42.25 277.55 42.25 277.55 79.24 312.76 79.24 312.76 70.72"/><path class="c" d="M177.02,106.12c0,14.83-5.97,26.85-20.8,26.85s-19.99-12.02-19.99-26.85,5.16-26.85,19.99-26.85,20.8,12.02,20.8,26.85Z"/><path class="f" d="M205.75,186.47c-3.56-22.38-14.92-53.5-49.65-53.5-37.26,0-47.87,32.56-50.58,55.56"/><polygon class="b" points="519.66 247.73 373.88 247.73 373.88 50.63 407.31 49.53 408.34 40.65 423.58 41.41 447.18 26.95 462.3 38.79 483.44 39.9 490.03 49.88 519.66 50.63 519.66 247.73"/><path class="f" d="M488.24,38.79v3.19c0,12.33-10,22.33-22.33,22.33h-37.45c-12.33,0-22.33-10-22.33-22.33v-3.19h25.93c1.68-6.8,7.81-11.84,15.12-11.84s13.44,5.05,15.12,11.84h25.93Z"/><polyline class="f" points="488.24 50.63 519.66 50.63 519.66 135.92"/><polyline class="f" points="519.66 229.47 519.66 247.73 373.88 247.73 373.88 50.63 407.24 50.63"/><line class="f" x1="431.82" y1="92.85" x2="505.75" y2="92.85"/><line class="f" x1="430.83" y1="109.77" x2="482.3" y2="109.77"/><line class="f" x1="431.82" y1="201.31" x2="438.8" y2="201.31"/><line class="f" x1="430.83" y1="218.23" x2="446.77" y2="218.23"/><line class="f" x1="431.82" y1="164" x2="437.9" y2="164"/><line class="f" x1="430.83" y1="147.08" x2="444.97" y2="147.08"/><circle class="f" cx="507.29" cy="182.51" r="48.55"/><polyline class="e" points="481.97 184.17 501.86 203.35 532.61 158.85"/><polyline class="e" points="391.73 102.25 400.13 110.65 416.55 89.4"/><polyline class="e" points="391.73 157.06 400.13 165.45 416.55 144.21"/><polyline class="e" points="391.73 211.87 400.13 220.26 416.55 199.02"/></svg>