<?xml version="1.0" encoding="UTF-8"?><svg id="a" xmlns="http://www.w3.org/2000/svg" viewBox="0 0 664 280"><defs><style>.b{fill:#ffffff;}.c{fill:#ffffff;}.d{stroke-width:7.09px;}.d,.e{fill:none;stroke:#E45620;stroke-linecap:round;stroke-linejoin:round;}.e{stroke-width:7.35px;}</style></defs><path class="c" d="M0,0v280h664V0H0ZM382.36,75.79l49.29-39.09,49.29,39.09h0s13.76,10.91,13.76,10.91l-13.76-10.91v26.88-26.88h0s-49.29-39.09-49.29-39.09l-49.29,39.09h0s0,0,0,0h0v26.88-26.88l-13.76,10.91,13.76-10.91h0ZM441.79,85.16h-22.55,22.55ZM238.93,95.8l3.68-22.06-3.68,22.06-22.06-3.68,22.06,3.68c-10-22.58-29.63-41.62-52.35-51.47,22.73,9.85,42.36,28.89,52.35,51.47ZM74.41,188.38l-.93,21.38.93-21.38,21.13-.67-21.13.67c14.02,19.93,36.69,34.6,60.57,39.77-23.88-5.17-46.54-19.83-60.57-39.77ZM150.43,157.87l-19.73,11.41-9.61-12.72c-6.02,1.31-12.15,1.29-18.01.04l-9.62,12.73-19.75-11.45,6.22-14.67c-2.01-2.21-3.79-4.66-5.33-7.35-1.55-2.69-2.79-5.46-3.69-8.31l-15.79-1.93-.02-22.86,15.8-1.97c1.86-5.72,4.89-11.04,9.04-15.61l-6.2-14.68,19.73-11.41,9.61,12.73c6.02-1.32,12.15-1.29,18.01-.04l9.62-12.73,19.75,11.46-6.22,14.66c2.01,2.22,3.79,4.67,5.33,7.35,1.55,2.69,2.79,5.46,3.68,8.3l15.8,1.94.02,22.86-15.8,1.98c-1.85,5.72-4.89,11.04-9.04,15.61l6.2,14.68ZM243.82,173c0,2.6-.27,5.13-.8,7.57l10.61,8.04-9.51,16.59-12.25-5.2c-3.73,3.37-8.14,5.97-13.05,7.53l-1.62,13.26h-19.03l-1.64-13.26c-4.91-1.57-9.32-4.16-13.05-7.53l-12.25,5.2-9.51-16.59,10.61-8.04c-.53-2.44-.8-4.97-.8-7.57s.27-5.13.8-7.58l-10.61-8.03,9.51-16.59,12.25,5.2c3.73-3.37,8.14-5.97,13.05-7.53l1.64-13.26h19.03l1.62,13.26c4.91,1.57,9.33,4.16,13.05,7.53l12.25-5.2,9.51,16.59-10.61,8.03c.52,2.45.8,4.98.8,7.58ZM356.22,206.05h-61.71v-69.81l-13.76,10.91,13.76-10.91,49.29-39.09,39.21,31.09-39.21-31.09-49.29,39.09v69.81h39.16v-31.77h22.55v31.77h9.08-9.08ZM356.22,145.61h-22.55,22.55ZM480.94,156.53v69.81h-98.58v-69.81l-13.76,10.91,13.76-10.91h0s49.29-39.09,49.29-39.09l49.29,39.09h0s13.76,10.91,13.76,10.91l-13.76-10.91ZM568.49,136.24v69.81h-70.79,9.08v-31.77h22.55v31.77h39.16v-69.81l-49.29-39.09-39.21,31.09,39.21-31.09,49.29,39.09,13.76,10.91-13.76-10.91ZM506.78,145.61h22.55-22.55Z"/><path class="b" d="M169.07,125.6l-.02-22.86-15.8-1.94c-.9-2.84-2.13-5.62-3.68-8.3-1.54-2.69-3.32-5.13-5.33-7.35l6.22-14.66-19.75-11.46-9.62,12.73c-5.86-1.25-11.99-1.28-18.01.04l-9.61-12.73-19.73,11.41,6.2,14.68c-4.15,4.57-7.18,9.89-9.04,15.61l-15.8,1.97.02,22.86,15.79,1.93c.9,2.85,2.14,5.62,3.69,8.31,1.54,2.69,3.32,5.13,5.33,7.35l-6.22,14.67,19.75,11.45,9.62-12.73c5.86,1.25,11.99,1.28,18.01-.04l9.61,12.72,19.73-11.41-6.2-14.68c4.15-4.57,7.19-9.89,9.04-15.61l15.8-1.98ZM123.12,133.27c-10.55,6.1-24.04,2.48-30.14-8.06-6.08-10.56-2.47-24.06,8.09-30.13,10.54-6.1,24.03-2.48,30.13,8.06,6.08,10.56,2.47,24.06-8.08,30.13Z"/><path class="c" d="M101.07,95.08c-10.56,6.08-14.17,19.57-8.09,30.13,6.1,10.54,19.59,14.16,30.14,8.06,10.55-6.08,14.16-19.57,8.08-30.13-6.1-10.54-19.59-14.15-30.13-8.06Z"/><path class="b" d="M244.13,140.8l-12.25,5.2c-3.73-3.37-8.14-5.97-13.05-7.53l-1.62-13.26h-19.03l-1.64,13.26c-4.91,1.57-9.32,4.16-13.05,7.53l-12.25-5.2-9.51,16.59,10.61,8.03c-.53,2.45-.8,4.98-.8,7.58s.27,5.13.8,7.57l-10.61,8.04,9.51,16.59,12.25-5.2c3.73,3.37,8.14,5.97,13.05,7.53l1.64,13.26h19.03l1.62-13.26c4.91-1.57,9.33-4.16,13.05-7.53l12.25,5.2,9.51-16.59-10.61-8.04c.52-2.44.8-4.97.8-7.57s-.27-5.13-.8-7.58l10.61-8.03-9.51-16.59ZM207.68,191.38c-10.15,0-18.38-8.24-18.38-18.38s8.23-18.38,18.38-18.38,18.38,8.24,18.38,18.38-8.23,18.38-18.38,18.38Z"/><circle class="c" cx="207.68" cy="173" r="18.38"/><path class="b" d="M431.65,117.44l-49.29,39.09h0s0,0,0,0h0v69.81h36.87v-31.77h22.55v31.77h39.16v-69.81h0s-49.29-39.09-49.29-39.09ZM419.24,165.9h22.55-22.55Z"/><rect class="b" x="419.24" y="194.57" width="22.55" height="31.77"/><rect class="b" x="506.78" y="174.28" width="22.55" height="31.77"/><rect class="b" x="333.67" y="174.28" width="22.55" height="31.77"/><line class="d" x1="382.51" y1="156.22" x2="368.75" y2="167.13"/><line class="d" x1="494.85" y1="167.13" x2="481.09" y2="156.22"/><polygon class="d" points="481.09 156.22 481.09 226.03 382.51 226.03 382.51 156.22 431.8 117.13 481.09 156.22"/><rect class="d" x="419.39" y="194.26" width="22.55" height="31.77"/><line class="d" x1="419.39" y1="165.58" x2="441.94" y2="165.58"/><line class="d" x1="382.51" y1="75.48" x2="368.75" y2="86.39"/><line class="d" x1="494.85" y1="86.39" x2="481.09" y2="75.48"/><polyline class="d" points="382.51 102.36 382.51 75.48 431.8 36.39 481.09 75.48 481.09 102.36"/><line class="d" x1="419.39" y1="84.85" x2="441.94" y2="84.85"/><line class="d" x1="582.4" y1="146.83" x2="568.64" y2="135.92"/><polyline class="d" points="480.14 127.93 519.35 96.83 568.64 135.92 568.64 205.73 497.85 205.73"/><rect class="d" x="506.93" y="173.96" width="22.55" height="31.77"/><line class="d" x1="506.93" y1="145.29" x2="529.49" y2="145.29"/><line class="d" x1="294.66" y1="135.92" x2="280.9" y2="146.83"/><polyline class="d" points="383.16 127.93 343.95 96.83 294.66 135.92 294.66 205.73 365.45 205.73"/><rect class="d" x="333.82" y="173.96" width="22.55" height="31.77" transform="translate(690.19 379.69) rotate(180)"/><line class="d" x1="356.37" y1="145.29" x2="333.82" y2="145.29"/><path class="e" d="M130.85,102.9c-6.1-10.54-19.59-14.15-30.13-8.06-10.56,6.08-14.17,19.57-8.09,30.13,6.1,10.54,19.59,14.16,30.14,8.06,10.55-6.08,14.16-19.57,8.08-30.13Z"/><path class="e" d="M102.73,156.36c5.86,1.25,11.99,1.28,18.01-.04l9.61,12.72,19.73-11.41-6.2-14.68c4.15-4.57,7.19-9.89,9.04-15.61l15.8-1.98-.02-22.86-15.8-1.94c-.9-2.84-2.13-5.62-3.68-8.3-1.54-2.69-3.32-5.13-5.33-7.35l6.22-14.66-19.75-11.46-9.62,12.73c-5.86-1.25-11.99-1.28-18.01.04l-9.61-12.73-19.73,11.41,6.2,14.68c-4.15,4.57-7.18,9.89-9.04,15.61l-15.8,1.98.02,22.86,15.79,1.93c.9,2.85,2.14,5.62,3.69,8.31,1.54,2.69,3.32,5.13,5.33,7.35l-6.22,14.67,19.75,11.45,9.62-12.73Z"/><circle class="e" cx="207.33" cy="172.76" r="18.38"/><path class="e" d="M183.13,199.76c3.73,3.37,8.14,5.97,13.05,7.53l1.64,13.26h19.03l1.62-13.26c4.91-1.57,9.33-4.16,13.05-7.53l12.25,5.2,9.51-16.59-10.61-8.04c.52-2.44.8-4.97.8-7.57s-.27-5.13-.8-7.58l10.61-8.03-9.51-16.59-12.25,5.2c-3.73-3.37-8.14-5.97-13.05-7.53l-1.62-13.26h-19.03l-1.64,13.26c-4.91,1.57-9.32,4.16-13.05,7.53l-12.25-5.2-9.51,16.59,10.61,8.03c-.53,2.45-.8,4.98-.8,7.58s.27,5.13.8,7.57l-10.61,8.04,9.51,16.59,12.25-5.2Z"/><path class="e" d="M186.22,44.09c22.73,9.85,42.36,28.89,52.35,51.47"/><path class="e" d="M74.06,188.15c14.02,19.93,36.69,34.6,60.57,39.77"/><polyline class="e" points="216.52 91.88 238.58 95.56 242.25 73.5"/><polyline class="e" points="95.19 187.47 74.06 188.15 73.13 209.53"/></svg>