<?xml version="1.0" encoding="UTF-8"?><svg id="a" xmlns="http://www.w3.org/2000/svg" viewBox="0 0 664 280"><defs><style>.b{fill:#ffffff;}.c{fill:#318d43;}.d{fill:#ffffff;}</style></defs><path class="d" d="M203.83,186.42c-7.91,0-14.35,6.44-14.35,14.35s6.44,14.35,14.35,14.35,14.35-6.44,14.35-14.35-6.44-14.35-14.35-14.35Z"/><path class="b" d="M275.33,205.36c-.33.33-.33.87,0,1.21l5.63,5.63c.3.3.91.3,1.21,0l78.86-78.79-6.84-6.84-78.86,78.79Z"/><path class="b" d="M390.12,129.85l-3.42-3.22-2.49-2.49c-1.43-1.43-2.21-3.32-2.21-5.34,0-.88.15-1.73.44-2.54l-13.09-13.09c-.1-.1-.18-.2-.26-.3-.2-.24-4.96-5.89-16.53-3.04,5.77,3.48,10.57,8.51,11.14,9.12,1.2,1.28,1.17,3.26-.07,4.49l-6.71,6.71,10.3,10.3,1.95-1.95c1.45-1.45,3.38-2.25,5.43-2.25s3.98.8,5.43,2.25l2.99,2.99c.85.85,1.32,1.98,1.32,3.19,0,1.12-.41,2.19-1.15,3.01l3.26,3.26,10.37-10.38-3.6-3.83-3.09,3.09Z"/><path class="d" d="M90.12,186.42c-7.91,0-14.35,6.44-14.35,14.35s6.44,14.35,14.35,14.35,14.35-6.44,14.35-14.35-6.44-14.35-14.35-14.35Z"/><path class="b" d="M207.2,179.15v-12.03c0-.43-.35-.78-.78-.78h-120.09c-.43,0-.78.35-.78.78v12.25c1.48-.32,3.01-.48,4.58-.48,10.78,0,19.76,7.84,21.55,18.12h70.6c1.79-10.28,10.77-18.12,21.56-18.12,1.14,0,2.27.09,3.37.26Z"/><path class="d" d="M582.07,100.8c-5.97-2.68-12.94-2.21-16.74-.35-1.35.66-2.96.38-4.01-.69-7.16-7.31-17.46-9.92-24.72-9.92-13.59,0-25.6,7.44-31.29,18.93h85.28c-1.92-3.6-4.76-6.28-8.53-7.97Z"/><path class="b" d="M612.37,115.73h-131.11c-.47,0-.86.16-1.13.48-.34.39-.5.98-.44,1.64l2.45,10.01,85.79,37.09c5.07-5.46,12-8.68,19.32-9.08l27.99-34.68c.88-1.72,1.09-3.27.55-4.18-.48-.81-1.73-1.28-3.42-1.28Z"/><path class="b" d="M574.84,167.93l35.5,15.35c-.52-9.88-7.76-18.45-17.86-20.2-6.4-1.1-12.82.74-17.64,4.85Z"/><path class="d" d="M0,0v280h664V0H0ZM203.83,222.65c-10.78,0-19.76-7.84-21.56-18.11h-70.6c-1.79,10.27-10.77,18.11-21.55,18.11-12.07,0-21.88-9.82-21.88-21.88,0-7.59,3.89-14.29,9.77-18.22v-15.44c0-4.58,3.73-8.31,8.31-8.31h4.54L33.57,63.4c-1.07-1.78-.49-4.1,1.29-5.17,1.78-1.07,4.1-.49,5.17,1.29l59.34,98.81c.09.16.17.32.24.48h15.67v-8.6h-9.26c-2.08,0-3.76-1.68-3.77-3.76l-.04-31.09c0-1,.39-1.96,1.1-2.67.71-.71,1.66-1.11,2.66-1.11h34.3s0-.01,0-.01c.22,0,.44.02.65.06l52.18,9.14c1.94.34,3.29,2.12,3.1,4.08l-2.16,21.97c-.19,1.93-1.81,3.4-3.75,3.4h-43.35c-2.08,0-3.77-1.69-3.77-3.77s1.69-3.77,3.77-3.77h39.93l1.48-15.09-48.42-8.48h-30.21s.03,23.57.03,23.57h9.26c2.08,0,3.77,1.69,3.77,3.77v12.37h83.61c4.58,0,8.31,3.73,8.31,8.31v14.69c6.56,3.78,10.98,10.86,10.98,18.96,0,12.06-9.82,21.88-21.88,21.88ZM403.05,133.49l-13.73,13.73c-.77.77-1.79,1.19-2.88,1.19s-2.11-.42-2.88-1.19l-6.63-6.63c-1.59-1.59-1.59-4.17,0-5.76l.18-.18-1.62-1.54c-.46-.46-1.32-.47-1.76-.03l-4.23,4.23c-.99.99-2.6,1.21-3.81.57l-20.7,20.7,35.87,35.03c2.82,2.83,4.38,6.57,4.38,10.55,0,3.98-1.54,7.72-4.35,10.53-2.81,2.81-6.55,4.36-10.53,4.36s-7.72-1.55-10.53-4.35l-30.39-31.14c-.6-.6-.94-1.41-.94-2.28s.34-1.67.95-2.28c1.22-1.22,3.34-1.22,4.57,0l30.39,31.14c3.28,3.28,8.63,3.28,11.92,0,3.29-3.29,3.29-8.63,0-11.92l-35.9-35.06-53.7,53.62c-1.38,1.38-3.21,2.14-5.17,2.14s-3.79-.76-5.17-2.14l-5.63-5.63c-2.85-2.85-2.85-7.49,0-10.34l38.23-38.15-18.52-18.1c-8.38,1.52-17.24-1.23-23.24-7.22-6.6-6.6-9.19-16.32-6.75-25.36.3-1.11,1.17-1.98,2.28-2.28,1.11-.3,2.31.02,3.12.84l11.91,11.91c.12.12.31.14.51.14,1.66,0,4.71-.49,7.72-3.5,3.1-3.1,3.53-6.27,3.5-7.89,0-.13-.05-.25-.14-.35l-11.91-11.91c-.81-.81-1.13-2.01-.84-3.12.29-1.11,1.17-1.98,2.28-2.28,9.05-2.44,18.76.15,25.36,6.75,5.99,5.99,8.74,14.85,7.23,23.22l13.39,13.3c.61.61.95,1.42.95,2.29s-.34,1.67-.94,2.28c-1.22,1.22-3.35,1.22-4.57,0l-14.64-14.54c-.81-.81-1.13-1.99-.85-3.09,1.73-6.75-.23-13.99-5.13-18.89-3.44-3.44-8.06-5.47-12.92-5.73l7.16,7.16c1.28,1.28,2.01,3,2.03,4.82.04,2.64-.62,7.77-5.39,12.55-4.69,4.69-9.75,5.39-12.34,5.39h-.2c-1.83-.03-3.54-.75-4.82-2.03l-7.17-7.17c.26,4.86,2.29,9.48,5.73,12.92,4.9,4.9,12.14,6.87,18.89,5.14,1.13-.28,2.28.04,3.09.85l19.78,19.34,36.11-36.11c-.36-.53-.55-1.15-.55-1.8,0-.86.34-1.67.95-2.28l6.69-6.69c-2.93-2.7-8.93-7.72-13.62-8.28-1.42-.17-2.57-1.28-2.81-2.69-.23-1.42.51-2.83,1.81-3.44,20.96-9.91,30.84.69,31.9,1.94l14.75,14.74c.61.61.95,1.42.95,2.28s-.34,1.67-.95,2.28c-.21.21-.32.48-.32.77s.11.57.32.77l1.87,1.87.18-.18c.74-.74,1.79-1.17,2.88-1.17,1.09,0,2.14.43,2.88,1.17l6.46,6.46c.77.77,1.19,1.79,1.19,2.88s-.42,2.11-1.19,2.88ZM617.26,186.43c3.91,2.54,5.53,7.53,3.62,11.82-1.03,2.33-2.93,4.1-5.34,4.99-1.08.4-2.21.6-3.34.6-.74,0-1.47-.09-2.2-.26-5.45,6.07-13.26,9.51-21.3,9.51-1.59,0-3.19-.13-4.78-.41-14.61-2.52-24.71-15.84-23.59-30.39l-72.55-31.37,12.6,51.58c.26,1.21,1.25,1.37,1.66,1.39.42,0,1.41-.08,1.76-1.26l6.37-21.5,6.67,1.97-6.37,21.5c-1.12,3.77-4.45,6.24-8.34,6.24-.11,0-.23,0-.34,0-4.03-.15-7.31-2.88-8.19-6.81l-13.83-56.57-48.22-20.85c-2.4-1.06-4.23-2.97-5.16-5.38-.91-2.35-.85-4.91.16-7.2h0c2.12-4.77,7.79-6.9,12.65-4.75l34.94,15.11-1.33-5.46c-.37-2.7.38-5.37,2.07-7.3,1.61-1.85,3.88-2.87,6.38-2.87h16.44c6.14-15.58,21.45-25.89,38.9-25.89,10.4,0,20.68,3.85,27.99,10.39,5.29-1.74,13.16-2.02,20.32,1.19,4.47,2.01,10.2,6.1,13.3,14.31h14.16c4.21,0,7.64,1.71,9.4,4.68,1.86,3.13,1.65,7.25-.56,11.32l-.15.28-.2.24-25.3,31.34c13.5,3.29,22.66,15.97,21.68,29.8Z"/><path class="b" d="M585.1,205.83c6.44,1.11,13.04-.83,17.9-5.09l-35.79-15.47c.35,10.03,7.66,18.8,17.89,20.56Z"/><path class="d" d="M432.91,116.86c-.26.59-.27,1.26-.03,1.88.26.67.78,1.21,1.46,1.51l176.68,76.38c.7.31,1.44.34,2.11.09.63-.23,1.13-.69,1.39-1.29.56-1.27-.08-2.79-1.43-3.4l-176.67-76.37c-1.38-.61-2.94-.07-3.5,1.2Z"/><path class="c" d="M621.06,125.04l.15-.28c2.21-4.06,2.42-8.19.56-11.32-1.77-2.97-5.19-4.68-9.4-4.68h-14.16c-3.1-8.21-8.83-12.31-13.3-14.31-7.16-3.21-15.03-2.92-20.32-1.19-7.31-6.54-17.6-10.39-27.99-10.39-17.45,0-32.76,10.3-38.9,25.89h-16.44c-2.5,0-4.76,1.02-6.38,2.87-1.69,1.93-2.44,4.59-2.07,7.3l1.33,5.46-34.94-15.11c-4.86-2.15-10.53-.02-12.65,4.75h0c-1.01,2.29-1.07,4.85-.16,7.2.93,2.41,2.75,4.31,5.16,5.38l48.22,20.85,13.83,56.57c.88,3.93,4.16,6.66,8.19,6.81.11,0,.23,0,.34,0,3.9,0,7.22-2.47,8.34-6.24l6.37-21.5-6.67-1.97-6.37,21.5c-.35,1.19-1.34,1.27-1.76,1.26-.41-.02-1.4-.18-1.66-1.39l-12.6-51.58,72.55,31.37c-1.13,14.55,8.97,27.87,23.59,30.39,1.59.27,3.19.41,4.78.41,8.04,0,15.84-3.43,21.3-9.51.72.17,1.46.26,2.2.26,1.13,0,2.26-.2,3.34-.6,2.41-.89,4.31-2.66,5.34-4.99,1.91-4.29.28-9.28-3.62-11.82.98-13.83-8.18-26.51-21.68-29.8l25.3-31.34.2-.24ZM536.61,89.84c7.25,0,17.56,2.61,24.72,9.92,1.05,1.07,2.66,1.35,4.01.69,3.8-1.85,10.76-2.33,16.74.35,3.77,1.69,6.61,4.37,8.53,7.97h-85.28c5.69-11.49,17.7-18.93,31.29-18.93ZM585.1,205.83c-10.23-1.76-17.53-10.53-17.89-20.56l35.79,15.47c-4.86,4.27-11.47,6.2-17.9,5.09ZM614.52,195.44c-.26.6-.76,1.05-1.39,1.29-.67.25-1.41.22-2.11-.09l-176.68-76.38c-.68-.3-1.2-.84-1.46-1.51-.24-.62-.23-1.29.03-1.88.56-1.27,2.12-1.81,3.5-1.2l176.67,76.37c1.35.6,2,2.13,1.43,3.4ZM610.34,183.27l-35.5-15.35c4.82-4.11,11.24-5.95,17.64-4.85,10.1,1.74,17.34,10.32,17.86,20.2ZM615.25,121.18l-27.99,34.68c-7.33.4-14.25,3.62-19.32,9.08l-85.79-37.09-2.45-10.01c-.06-.66.1-1.25.44-1.64.28-.32.66-.48,1.13-.48h131.11c1.69,0,2.94.47,3.42,1.28.54.91.33,2.46-.55,4.18Z"/><path class="c" d="M214.73,181.81v-14.69c0-4.58-3.73-8.31-8.31-8.31h-83.61v-12.37c0-2.08-1.69-3.77-3.77-3.77h-9.26l-.03-23.56h30.21s48.42,8.47,48.42,8.47l-1.48,15.09h-39.93c-2.08,0-3.77,1.69-3.77,3.77s1.69,3.77,3.77,3.77h43.35c1.94,0,3.56-1.47,3.75-3.4l2.16-21.97c.19-1.96-1.16-3.74-3.1-4.08l-52.18-9.14c-.21-.04-.43-.06-.65-.06h-34.31c-1,.01-1.96.41-2.66,1.12-.71.71-1.1,1.67-1.1,2.67l.04,31.09c0,2.08,1.69,3.76,3.77,3.76h9.26v8.6h-15.67c-.07-.16-.14-.32-.24-.48L40.02,59.52c-1.07-1.78-3.38-2.36-5.17-1.29-1.78,1.07-2.36,3.38-1.29,5.17l57.3,95.41h-4.54c-4.58,0-8.31,3.73-8.31,8.31v15.44c-5.89,3.93-9.77,10.62-9.77,18.22,0,12.06,9.82,21.88,21.88,21.88,10.78,0,19.76-7.84,21.55-18.11h70.6c1.79,10.27,10.77,18.11,21.56,18.11,12.07,0,21.88-9.82,21.88-21.88,0-8.1-4.42-15.18-10.98-18.96ZM90.12,215.12c-7.91,0-14.35-6.44-14.35-14.35s6.44-14.35,14.35-14.35,14.35,6.44,14.35,14.35-6.44,14.35-14.35,14.35ZM182.27,197.01h-70.6c-1.79-10.28-10.77-18.12-21.55-18.12-1.57,0-3.1.17-4.58.48v-12.25c0-.43.35-.78.78-.78h120.09c.43,0,.78.35.78.78v12.03c-1.1-.17-2.22-.26-3.37-.26-10.78,0-19.76,7.84-21.56,18.12ZM203.83,215.12c-7.91,0-14.35-6.44-14.35-14.35s6.44-14.35,14.35-14.35,14.35,6.44,14.35,14.35-6.44,14.35-14.35,14.35Z"/><path class="c" d="M396.59,121.27c-.74-.75-1.79-1.17-2.88-1.17-1.09,0-2.14.43-2.88,1.17l-.18.18-1.87-1.87c-.21-.21-.32-.48-.32-.77s.11-.57.32-.77c.61-.61.95-1.42.95-2.28s-.34-1.67-.95-2.28l-14.75-14.74c-1.06-1.24-10.94-11.85-31.9-1.94-1.29.61-2.04,2.02-1.81,3.44.23,1.41,1.39,2.52,2.81,2.69,4.69.56,10.69,5.58,13.62,8.28l-6.69,6.69c-.61.61-.95,1.42-.95,2.28,0,.65.19,1.27.55,1.8l-36.11,36.11-19.78-19.34c-.81-.81-1.96-1.13-3.09-.85-6.75,1.74-13.98-.23-18.89-5.14-3.44-3.44-5.47-8.07-5.73-12.92l7.17,7.17c1.29,1.28,3,2,4.82,2.03h.2c2.59,0,7.65-.7,12.34-5.39,4.78-4.78,5.43-9.91,5.39-12.55-.03-1.82-.75-3.53-2.03-4.82l-7.16-7.16c4.86.26,9.48,2.29,12.92,5.73,4.9,4.9,6.87,12.14,5.13,18.89-.28,1.1.04,2.28.85,3.09l14.64,14.54c1.22,1.22,3.35,1.22,4.57,0,.61-.61.94-1.42.94-2.28s-.34-1.67-.95-2.29l-13.39-13.3c1.51-8.37-1.24-17.23-7.23-23.22-6.6-6.6-16.32-9.19-25.36-6.75-1.11.3-1.98,1.17-2.28,2.28-.3,1.11.02,2.31.84,3.12l11.91,11.91c.09.09.14.21.14.35.02,1.62-.4,4.79-3.5,7.89-3.02,3.02-6.07,3.5-7.72,3.5-.2,0-.38-.02-.51-.14l-11.91-11.91c-.81-.82-2.01-1.14-3.12-.84-1.11.3-1.99,1.17-2.28,2.28-2.44,9.04.15,18.76,6.75,25.36,5.99,5.99,14.86,8.74,23.24,7.22l18.52,18.1-38.23,38.15c-2.85,2.85-2.85,7.49,0,10.34l5.63,5.63c1.38,1.38,3.22,2.14,5.17,2.14s3.79-.76,5.17-2.14l53.7-53.62,35.9,35.06c3.29,3.29,3.29,8.64,0,11.92-3.29,3.29-8.64,3.29-11.92,0l-30.39-31.14c-1.22-1.22-3.35-1.22-4.57,0-.61.61-.95,1.42-.95,2.28s.34,1.67.94,2.28l30.39,31.14c2.81,2.81,6.55,4.35,10.53,4.35s7.72-1.55,10.53-4.36c2.81-2.81,4.35-6.55,4.35-10.53,0-3.98-1.56-7.73-4.38-10.55l-35.87-35.03,20.7-20.7c1.21.65,2.82.42,3.81-.57l4.23-4.23c.44-.44,1.3-.43,1.76.03l1.62,1.54-.18.18c-1.58,1.59-1.58,4.17,0,5.76l6.63,6.63c.77.77,1.79,1.19,2.88,1.19s2.11-.42,2.88-1.19l13.73-13.73c.77-.77,1.19-1.79,1.19-2.88s-.42-2.11-1.19-2.88l-6.46-6.46ZM282.16,212.2c-.3.3-.91.3-1.21,0l-5.63-5.63c-.33-.33-.33-.87,0-1.21l78.86-78.79,6.84,6.84-78.86,78.79ZM386.44,140.97l-3.26-3.26c.75-.83,1.15-1.89,1.15-3.01,0-1.21-.47-2.34-1.32-3.19l-2.99-2.99c-1.45-1.45-3.38-2.25-5.43-2.25s-3.98.8-5.43,2.25l-1.95,1.95-10.3-10.3,6.71-6.71c1.24-1.24,1.27-3.21.07-4.49-.58-.61-5.38-5.64-11.14-9.12,11.56-2.85,16.33,2.8,16.53,3.04.08.1.16.2.26.3l13.09,13.09c-.29.81-.44,1.67-.44,2.54,0,2.02.79,3.91,2.21,5.34l2.49,2.49,3.42,3.22,3.09-3.09,3.6,3.83-10.37,10.38Z"/></svg>