<?xml version="1.0" encoding="UTF-8"?><svg id="a" xmlns="http://www.w3.org/2000/svg" viewBox="0 0 664 280"><defs><style>.b{fill:#29a0e2;}.c{fill:#00357d;}.d{fill:#4c8d4d;}.e{fill:#fff;}.f{fill:#f76531;}</style></defs><path class="c" d="M272.22,198.45H56.08c-10.06,0-18.24-8.18-18.24-18.24V51.46c0-10.06,8.18-18.24,18.24-18.24h216.14c10.06,0,18.24,8.18,18.24,18.24v128.75c0,10.06-8.18,18.24-18.24,18.24ZM56.08,39.7c-6.48,0-11.76,5.28-11.76,11.76v128.75c0,6.48,5.28,11.76,11.76,11.76h216.14c6.48,0,11.76-5.28,11.76-11.76V51.46c0-6.48-5.28-11.76-11.76-11.76H56.08Z"/><path class="c" d="M179.9,237.89h-31.5c-4.34,0-7.88-3.53-7.88-7.88v-34.79c0-1.79,1.45-3.24,3.24-3.24h40.77c1.79,0,3.24,1.45,3.24,3.24v34.79c0,4.34-3.53,7.88-7.88,7.88ZM147,198.45v31.55c0,.77.63,1.4,1.4,1.4h31.5c.77,0,1.4-.63,1.4-1.4v-31.55h-34.29Z"/><path class="c" d="M231.74,257.69H99.3c-1.01,0-1.96-.47-2.57-1.27-.61-.8-.82-1.84-.55-2.82l10.02-36.94c.38-1.41,1.66-2.39,3.13-2.39h32.6c1.79,0,3.24,1.45,3.24,3.24s-1.45,3.24-3.24,3.24h-30.13l-8.27,30.46h123.95l-8.23-29.79h-34.72c-1.79,0-3.24-1.45-3.24-3.24s1.45-3.24,3.24-3.24h37.18c1.46,0,2.73.97,3.12,2.38l10.02,36.27c.27.98.07,2.02-.54,2.83-.61.81-1.57,1.28-2.58,1.28Z"/><path class="b" d="M565.89,204.38h-194.62c-1.79,0-3.24-1.45-3.24-3.24V50.5c0-1.79,1.45-3.24,3.24-3.24h194.62c1.79,0,3.24,1.45,3.24,3.24v150.64c0,1.79-1.45,3.24-3.24,3.24ZM374.51,197.9h188.14V53.74h-188.14v144.16Z"/><rect class="e" x="415.46" y="85.78" width="116.32" height="155.65"/><path class="b" d="M531.78,244.66h-116.32c-1.79,0-3.24-1.45-3.24-3.24V85.78c0-1.79,1.45-3.24,3.24-3.24h116.32c1.79,0,3.24,1.45,3.24,3.24v155.65c0,1.79-1.45,3.24-3.24,3.24ZM418.7,238.18h109.84V89.02h-109.84v149.17Z"/><rect class="e" x="496.53" y="85.73" width="116.32" height="150.64" transform="translate(715.74 -393.63) rotate(90)"/><path class="b" d="M630,222.45h-150.64c-1.79,0-3.24-1.45-3.24-3.24v-116.32c0-1.79,1.45-3.24,3.24-3.24h150.64c1.79,0,3.24,1.45,3.24,3.24v116.32c0,1.79-1.45,3.24-3.24,3.24ZM482.6,215.97h144.16v-109.84h-144.16v109.84Z"/><path class="d" d="M600.95,191.16l-7.59,7.32v8.41h7.57v-8.27h1.82l6.92-7.46h-8.72ZM593.36,183v8.17h7.59v-8.17h-7.59ZM609.67,183v8.17l7.56,7.5h-7.56v8.2h7.59v-23.86h-7.59Z"/><path class="d" d="M389.5,173.45l-7.88,7.6v8.73h7.86v-8.59h1.89l7.19-7.75h-9.05ZM381.61,164.97v8.48h7.88v-8.48h-7.88ZM398.55,164.97v8.48l7.85,7.78h-7.85v8.51h7.88v-24.78h-7.88Z"/><path class="d" d="M155.68,111.03l-7.95,7.67v8.81h7.93v-8.66h1.91l7.25-7.81h-9.13ZM147.73,102.48v8.55h7.95v-8.55h-7.95ZM164.81,102.48v8.55l7.92,7.85h-7.92v8.58h7.94v-24.98h-7.94Z"/><path class="f" d="M332.74,131h0c-1.25-1.25-1.25-3.28,0-4.53l6.28-6.28c1.25-1.25,1.25-3.28,0-4.53l-6.28-6.28c-1.25-1.25-1.25-3.28,0-4.53h0c1.25-1.25,3.28-1.25,4.53,0l10.8,10.8c1.25,1.25,1.25,3.28,0,4.53l-10.8,10.8c-1.25,1.25-3.28,1.25-4.53,0Z"/><rect class="f" x="249.29" y="114.73" width="96.52" height="6.4" rx="3.2" ry="3.2"/><path class="f" d="M332.74,92.96h0c-1.25-1.25-1.25-3.28,0-4.53l6.28-6.28c1.25-1.25,1.25-3.28,0-4.53l-6.28-6.28c-1.25-1.25-1.25-3.28,0-4.53h0c1.25-1.25,3.28-1.25,4.53,0l10.8,10.8c1.25,1.25,1.25,3.28,0,4.53l-10.8,10.8c-1.25,1.25-3.28,1.25-4.53,0Z"/><rect class="f" x="264" y="76.7" width="81.81" height="6.4" rx="3.2" ry="3.2"/><path class="f" d="M332.74,168.08h0c-1.25-1.25-1.25-3.28,0-4.53l6.28-6.28c1.25-1.25,1.25-3.28,0-4.53l-6.28-6.28c-1.25-1.25-1.25-3.28,0-4.53h0c1.25-1.25,3.28-1.25,4.53,0l10.8,10.8c1.25,1.25,1.25,3.28,0,4.53l-10.8,10.8c-1.25,1.25-3.28,1.25-4.53,0Z"/><rect class="f" x="230.19" y="151.81" width="115.62" height="6.4" rx="3.2" ry="3.2"/><path class="b" d="M223.59,126.51c-1.77,0-3.2-1.43-3.2-3.2v-8.31c0-33.39-27.16-60.55-60.55-60.55-20.03,0-38.73,9.89-50.02,26.46-1,1.46-2.99,1.84-4.45.84-1.46-1-1.84-2.99-.84-4.45,12.49-18.31,33.17-29.25,55.31-29.25,36.92,0,66.95,30.03,66.95,66.95v8.31c0,1.77-1.43,3.2-3.2,3.2Z"/><path class="b" d="M159.84,181.94c-36.92,0-66.95-30.03-66.95-66.95v-8.32c0-1.77,1.43-3.2,3.2-3.2s3.2,1.43,3.2,3.2v8.32c0,33.39,27.16,60.55,60.55,60.55,20.01,0,38.71-9.88,50.02-26.43,1-1.46,2.99-1.83,4.45-.84,1.46,1,1.83,2.99.84,4.45-12.51,18.3-33.18,29.22-55.3,29.22Z"/><path class="b" d="M223.59,126.51h0c-.85,0-1.66-.34-2.26-.94l-11.09-11.09c-1.25-1.25-1.25-3.28,0-4.53,1.25-1.25,3.28-1.25,4.53,0l8.82,8.82,8.82-8.82c1.25-1.25,3.28-1.25,4.53,0,1.25,1.25,1.25,3.28,0,4.53l-11.09,11.09c-.6.6-1.41.94-2.26.94Z"/><path class="b" d="M107.18,120.97c-.82,0-1.64-.31-2.26-.94l-8.82-8.82-8.82,8.82c-1.25,1.25-3.28,1.25-4.53,0-1.25-1.25-1.25-3.28,0-4.53l11.09-11.09c.6-.6,1.41-.94,2.26-.94h0c.85,0,1.66.34,2.26.94l11.09,11.09c1.25,1.25,1.25,3.28,0,4.53-.62.62-1.44.94-2.26.94Z"/><path class="c" d="M165.22,159.71h-9.96c-1.53,0-2.84-1.08-3.14-2.58l-1.39-6.99c-3.02-.82-5.91-2.01-8.62-3.58l-5.92,3.97c-1.27.85-2.96.69-4.04-.4l-7.04-7.04c-1.08-1.08-1.25-2.77-.4-4.04l3.97-5.93c-1.56-2.7-2.76-5.59-3.58-8.62l-6.99-1.39c-1.5-.3-2.58-1.61-2.58-3.14v-9.96c0-1.53,1.08-2.84,2.58-3.14l6.99-1.39c.82-3.03,2.02-5.91,3.58-8.62l-3.97-5.93c-.85-1.27-.69-2.96.4-4.04l7.04-7.04c1.08-1.08,2.77-1.25,4.04-.4l5.92,3.97c2.71-1.57,5.59-2.76,8.62-3.58l1.39-6.99c.3-1.5,1.61-2.58,3.14-2.58h9.96c1.53,0,2.84,1.08,3.14,2.57l1.39,6.99c3.02.82,5.91,2.01,8.62,3.58l5.92-3.97c1.27-.85,2.96-.69,4.04.4l7.04,7.04c1.08,1.08,1.25,2.77.4,4.04l-3.97,5.93c1.56,2.7,2.76,5.59,3.58,8.62l6.99,1.39c1.5.3,2.58,1.61,2.58,3.14v9.96c0,1.53-1.08,2.84-2.58,3.14l-6.99,1.39c-.82,3.03-2.02,5.91-3.58,8.62l3.97,5.93c.85,1.27.69,2.96-.4,4.04l-7.04,7.04c-1.08,1.08-2.78,1.25-4.04.4l-5.92-3.97c-2.71,1.56-5.59,2.76-8.62,3.58l-1.39,6.99c-.3,1.5-1.61,2.57-3.14,2.57ZM157.89,153.31h4.71l1.28-6.43c.25-1.26,1.23-2.25,2.49-2.51,3.7-.77,7.17-2.21,10.32-4.29,1.07-.71,2.47-.71,3.54.01l5.45,3.65,3.33-3.32-3.65-5.45c-.72-1.07-.72-2.47-.01-3.54,2.07-3.14,3.52-6.61,4.29-10.32.26-1.26,1.25-2.23,2.51-2.48l6.43-1.28v-4.71l-6.43-1.28c-1.26-.25-2.25-1.23-2.51-2.48-.77-3.71-2.22-7.18-4.29-10.32-.71-1.08-.71-2.47.01-3.54l3.65-5.45-3.33-3.32-5.45,3.65c-1.07.72-2.47.72-3.54.01-3.15-2.08-6.62-3.52-10.32-4.29-1.26-.26-2.24-1.25-2.49-2.51l-1.28-6.43h-4.71l-1.28,6.43c-.25,1.26-1.23,2.25-2.49,2.51-3.7.77-7.17,2.21-10.32,4.29-1.08.71-2.47.7-3.54-.01l-5.45-3.65-3.33,3.32,3.65,5.45c.72,1.07.72,2.47.01,3.54-2.07,3.14-3.52,6.61-4.29,10.32-.26,1.26-1.25,2.23-2.51,2.48l-6.43,1.28v4.71l6.43,1.28c1.26.25,2.25,1.23,2.51,2.48.77,3.71,2.22,7.18,4.29,10.32.71,1.08.71,2.47-.01,3.54l-3.65,5.45,3.33,3.32,5.45-3.65c1.07-.72,2.47-.72,3.54-.01,3.15,2.08,6.62,3.52,10.32,4.29,1.26.26,2.24,1.25,2.49,2.51l1.28,6.43Z"/><path class="d" d="M436.37,105.68l-7.88,7.6v8.73h7.86v-8.59h1.89l7.19-7.75h-9.05ZM428.48,97.2v8.48h7.88v-8.48h-7.88ZM445.42,97.2v8.48l7.85,7.78h-7.85v8.51h7.88v-24.78h-7.88Z"/><path class="c" d="M160.24,141.91c-14.84,0-26.92-12.07-26.92-26.92s12.08-26.92,26.92-26.92,26.92,12.07,26.92,26.92-12.07,26.92-26.92,26.92ZM160.24,94.48c-11.31,0-20.52,9.2-20.52,20.52s9.2,20.52,20.52,20.52,20.52-9.2,20.52-20.52-9.2-20.52-20.52-20.52Z"/></svg>