<?xml version="1.0" encoding="UTF-8"?><svg id="a" xmlns="http://www.w3.org/2000/svg" viewBox="0 0 664 280"><defs><style>.b{fill:#ffffff;}.c,.d{fill:#ffffff;}.d{stroke:#00357d;stroke-miterlimit:10;stroke-width:2.83px;}.e,.f{fill:#00357d;}.g{fill:#ffffff;}.h{fill:none;stroke-width:7.12px;}.h,.f{stroke:#00357d;stroke-linecap:round;stroke-linejoin:round;}.f{stroke-width:5.65px;}</style></defs><rect class="c" width="664" height="280"/><rect class="h" x="390.6" y="28.46" width="124.67" height="218.54" rx="11.54" ry="11.54"/><circle class="f" cx="452.94" cy="221.52" r="8.4"/><ellipse class="b" cx="452.94" cy="122.25" rx="48.21" ry="38.03"/><polygon class="b" points="442.54 150.1 416.41 166.7 415.84 137.07 442.54 150.1"/><path class="g" d="M176.4,101.36h1.46c.21,0,.42.01.63.05l.31.06c1.73.31,2.97,1.85,2.91,3.61-.04,1.06-.4,8.55-3.33,14.27,4.52-1.03,10.28-4.81,15.17-15.83.57-1.28,1.83-2.1,3.22-2.11l13.39-.06h.01c1.4,0,2.68.83,3.24,2.12l5.79,13.16,5.47-13.1c.54-1.3,1.8-2.15,3.21-2.18l11.66-.21h.07c1.79,0,3.31,1.34,3.52,3.13v.06c2.86,5.96,8.82,14.63,19.84,16.38-2.77-5.75-3.16-13.12-3.2-14.1-.08-1.96,1.44-3.61,3.39-3.69.23,0,.46,0,.69.04,15.34-.04,20.02-2.59,20.45-3.49l-.09-47.94c0-4.56-3.22-8.26-7.19-8.26h-112.93c-3.96,0-7.19,3.7-7.19,8.25l.04,47.26c.6.85,3.73,2.69,19.47,2.58ZM179.09,60.01h82.15c1.96,0,3.54,1.59,3.54,3.54s-1.59,3.54-3.54,3.54h-82.15c-1.96,0-3.54-1.59-3.54-3.54s1.59-3.54,3.54-3.54ZM178.66,77.14h82.76c1.96,0,3.54,1.59,3.54,3.54s-1.59,3.54-3.54,3.54h-82.76c-1.96,0-3.54-1.59-3.54-3.54s1.59-3.54,3.54-3.54Z"/><path class="g" d="M238.48,175.79c0-16.92-8.67-16.92-11.52-16.92s-11.52,0-11.52,16.92,8.67,16.92,11.52,16.92,11.52,0,11.52-16.92Z"/><path class="g" d="M300.31,162.44c0-16.92-8.67-16.92-11.52-16.92s-11.52,0-11.52,16.92,8.67,16.92,11.52,16.92,11.52,0,11.52-16.92Z"/><path class="g" d="M170.62,164.02c0-16.92-8.67-16.92-11.52-16.92-5.42,0-10.44,2.05-10.44,16.92s5.02,16.92,10.44,16.92c2.85,0,11.52,0,11.52-16.92Z"/><path class="e" d="M240.31,194.15c3.06-3.57,5.26-9.29,5.26-18.37,0-20.89-11.66-24.01-18.61-24.01s-18.61,3.12-18.61,24.01c0,9.58,2.45,15.41,5.78,18.93,4.36-1.09,9.13-1.73,14.38-1.73,4.12,0,8.05.4,11.8,1.16ZM215.44,175.79c0-16.92,8.67-16.92,11.52-16.92s11.52,0,11.52,16.92-8.67,16.92-11.52,16.92-11.52,0-11.52-16.92Z"/><path class="e" d="M197.54,206.6c-.72-.98-1.47-1.91-2.24-2.81-12.52,9.58-18.84,23.19-21.55,30.75-.66,1.84.3,3.87,2.14,4.53.4.14.8.21,1.2.21,1.45,0,2.82-.9,3.34-2.35,5.34-14.89,13.28-23.9,21.56-29.28-1.52.76-3.4.36-4.44-1.06Z"/><path class="e" d="M248.5,204.05c-1.5-1.26-1.69-3.5-.42-4.99.57-.68,1.16-1.33,1.76-1.98-3.02-1.27-6.2-2.25-9.53-2.93-3.98,4.64-9.41,5.64-13.34,5.64s-8.9-.92-12.83-5.08c-4.78,1.2-9.06,2.97-12.87,5.13.68.83,1.34,1.68,1.99,2.56,1.14,1.55.83,3.7-.67,4.88,9.37-5.88,19.1-7.21,25.93-7.21,22.02,0,37.58,12.26,46.26,36.44.66,1.84,2.69,2.8,4.53,2.14,1.84-.66,2.8-2.69,2.14-4.53-5.58-15.56-14.06-26.87-25.04-33.65-.99,1-1.97,2.04-2.9,3.15-1.26,1.5-3.5,1.69-4.99.42Z"/><path class="e" d="M226.96,199.79c3.93,0,9.36-1,13.34-5.64-3.75-.77-7.68-1.16-11.8-1.16-5.25,0-10.02.63-14.38,1.73,3.93,4.16,9.07,5.08,12.83,5.08Z"/><path class="e" d="M302.14,180.8c3.06-3.57,5.26-9.29,5.26-18.36,0-20.89-11.66-24.01-18.61-24.01s-18.61,3.12-18.61,24.01c0,9.6,2.46,15.44,5.8,18.96,4.56-1.15,9.35-1.76,14.35-1.76,4.12,0,8.05.4,11.8,1.16ZM277.27,162.44c0-16.92,8.67-16.92,11.52-16.92s11.52,0,11.52,16.92-8.67,16.92-11.52,16.92-11.52,0-11.52-16.92Z"/><path class="e" d="M302.14,180.8c-3.98,4.65-9.42,5.65-13.35,5.65s-8.88-.92-12.81-5.05c-10.04,2.54-18.9,7.83-26.15,15.69,2.28.96,4.46,2.1,6.56,3.4,9.04-9.12,20.43-13.75,33.94-13.75,22.02,0,37.58,12.26,46.25,36.44.52,1.45,1.88,2.35,3.33,2.35.4,0,.8-.07,1.2-.21,1.84-.66,2.8-2.69,2.14-4.53-8.06-22.47-22.15-36.09-41.12-39.97Z"/><path class="e" d="M248.07,199.06c-1.26,1.5-1.07,3.73.42,4.99s3.73,1.07,4.99-.42c.94-1.11,1.91-2.15,2.9-3.15-2.1-1.3-4.28-2.43-6.56-3.4-.6.65-1.19,1.3-1.76,1.98Z"/><path class="e" d="M288.79,186.44c3.93,0,9.36-1,13.35-5.65-3.75-.77-7.68-1.16-11.8-1.16-5,0-9.8.6-14.35,1.76,3.92,4.13,9.05,5.05,12.81,5.05Z"/><path class="e" d="M172.45,182.38c3.05-3.57,5.25-9.29,5.25-18.35,0-20.89-11.66-24.01-18.61-24.01-11.63,0-17.53,8.08-17.53,24.01,0,8.57,1.72,14.84,5.11,18.83,4.25-1.03,8.89-1.63,13.97-1.63,4.13,0,8.06.4,11.81,1.15ZM148.65,164.02c0-14.87,5.02-16.92,10.44-16.92,2.85,0,11.52,0,11.52,16.92s-8.67,16.92-11.52,16.92c-5.42,0-10.44-2.05-10.44-16.92Z"/><path class="e" d="M202.5,207.36s.05-.05.08-.07c-.2.12-.4.25-.6.38.18-.09.35-.18.51-.3Z"/><path class="e" d="M172.45,182.38c-3.98,4.65-9.42,5.66-13.35,5.66-5.38,0-9.51-1.75-12.42-5.18-25.84,6.27-36.94,29.19-40.79,39.92-.66,1.84.3,3.87,2.14,4.53.4.14.8.21,1.2.21,1.45,0,2.82-.9,3.34-2.35,11.5-32.07,35.06-36.86,48.09-36.86,14.3,0,25.93,5.21,34.65,15.47,1.85-1.41,3.83-2.74,5.96-3.95-7.66-9.32-17.31-15.15-28.81-17.46Z"/><path class="e" d="M203.25,202.4c-.65-.88-1.31-1.73-1.99-2.56-2.13,1.21-4.11,2.53-5.96,3.95.77.9,1.52,1.83,2.24,2.81,1.04,1.41,2.93,1.82,4.44,1.06.2-.13.4-.25.6-.38,1.5-1.18,1.81-3.33.67-4.88Z"/><path class="e" d="M159.1,188.03c3.93,0,9.37-1,13.35-5.66-3.74-.75-7.67-1.15-11.81-1.15-5.08,0-9.72.6-13.97,1.63,2.91,3.43,7.05,5.18,12.42,5.18Z"/><path class="e" d="M151.98,103.84c4.05,4.03,13.37,4.59,22.29,4.61-.55,3.66-1.75,8.18-3.84,9.91-1.43,1.18-2.03,3.09-1.53,4.87.5,1.78,2.01,3.09,3.84,3.34,14.15,1.97,22.6-10.66,26.3-18.09l8.83-.04,6.51,14.8c.85,1.94,2.76,3.18,4.87,3.18h.05c2.13-.02,4.04-1.3,4.86-3.27l6.16-14.76,6.84-.12c8.45,16.94,21.91,19.72,29.36,19.83.03,0,.05,0,.08,0,2.01,0,3.79-1.12,4.66-2.94.88-1.85.62-3.98-.7-5.57-1.85-2.22-2.85-6.36-3.34-9.6,16.44-.42,24.13-3.78,24.13-10.48l-.08-48c0-8.46-6.4-15.34-14.27-15.34h-112.93c-7.87,0-14.27,6.88-14.27,15.34l.04,47.32c0,1.88.74,3.61,2.13,5ZM265.12,124.14h0,0ZM164.08,43.27h112.93c3.96,0,7.19,3.7,7.19,8.26l.09,47.94c-.43.9-5.11,3.45-20.45,3.49-.22-.03-.46-.05-.69-.04-1.96.08-3.47,1.73-3.39,3.69.04.98.43,8.35,3.2,14.1-11.02-1.75-16.98-10.42-19.83-16.38v-.06c-.22-1.79-1.73-3.13-3.52-3.13h-.07l-11.66.21c-1.41.03-2.66.88-3.21,2.18l-5.47,13.1-5.79-13.16c-.57-1.29-1.84-2.12-3.24-2.12h-.01l-13.39.06c-1.4,0-2.66.83-3.22,2.11-4.89,11.02-10.65,14.79-15.17,15.83,2.93-5.71,3.29-13.2,3.33-14.27.06-1.76-1.18-3.3-2.91-3.61l-.31-.06c-.21-.04-.42-.06-.63-.06h-1.46c-15.74.12-18.87-1.72-19.47-2.57l-.04-47.26c0-4.55,3.22-8.25,7.19-8.25Z"/><path class="e" d="M179.09,67.1h82.15c1.96,0,3.54-1.59,3.54-3.54s-1.59-3.54-3.54-3.54h-82.15c-1.96,0-3.54,1.59-3.54,3.54s1.59,3.54,3.54,3.54Z"/><path class="e" d="M178.66,84.22h82.76c1.96,0,3.54-1.59,3.54-3.54s-1.59-3.54-3.54-3.54h-82.76c-1.96,0-3.54,1.59-3.54,3.54s1.59,3.54,3.54,3.54Z"/><path class="d" d="M420.88,122.2c0-7.04,2.26-12.8,6.2-18.29l3.99,1.44c-3.48,5.16-5.03,11.08-5.03,16.84s1.55,11.68,5.03,16.85l-3.99,1.44c-3.95-5.48-6.2-11.24-6.2-18.29Z"/><path class="d" d="M436.2,120.96c0-2.18,1.69-3.84,3.95-3.84s3.95,1.66,3.95,3.84-1.69,3.85-3.95,3.85-3.95-1.66-3.95-3.85Z"/><path class="d" d="M449.93,120.96c0-2.18,1.69-3.84,3.95-3.84s3.95,1.66,3.95,3.84-1.69,3.85-3.95,3.85-3.95-1.66-3.95-3.85Z"/><path class="d" d="M463.65,120.96c0-2.18,1.69-3.84,3.95-3.84s3.95,1.66,3.95,3.84-1.69,3.85-3.95,3.85-3.95-1.66-3.95-3.85Z"/><path class="d" d="M476.67,139.04c3.48-5.16,5.03-11.12,5.03-16.85s-1.55-11.68-5.03-16.84l3.99-1.44c3.95,5.48,6.2,11.24,6.2,18.29s-2.26,12.8-6.2,18.29l-3.99-1.44Z"/></svg>