<?xml version="1.0" encoding="UTF-8"?><svg id="a" xmlns="http://www.w3.org/2000/svg" viewBox="0 0 664 280"><defs><style>.b{fill:#ffffff;}.c{fill:#ffffff;}.d{stroke:#00357d;}.d,.e{fill:none;stroke-linecap:round;stroke-linejoin:round;stroke-width:7.09px;}.e{stroke:#E45620;}</style></defs><path class="c" d="M0,0v280h664V0H0ZM411.1,149.39l-16.97,3.38c-1.63,7.83-4.7,15.1-8.96,21.55l9.65,14.4-13.28,13.28-14.4-9.65c-6.45,4.26-13.72,7.33-21.55,8.95l-3.38,16.97h-18.79l-3.38-16.97c-7.83-1.63-15.1-4.7-21.55-8.95l-14.4,9.65-13.28-13.28,9.65-14.4c-4.26-6.45-7.33-13.72-8.96-21.55l-16.97-3.38v-18.79l16.97-3.38c1.63-7.83,4.7-15.1,8.96-21.55l-9.65-14.4,13.28-13.28,14.4,9.65c6.45-4.26,13.72-7.33,21.55-8.95l3.38-16.97h18.79l3.38,16.97c7.83,1.63,15.1,4.7,21.55,8.95l14.4-9.65,13.28,13.28-9.65,14.4c4.26,6.45,7.33,13.72,8.96,21.55l16.97,3.38v18.79Z"/><path class="b" d="M385.16,105.67l9.65-14.4-13.28-13.28-14.4,9.65c-6.45-4.26-13.72-7.33-21.55-8.95l-3.38-16.97h-18.79l-3.38,16.97c-7.83,1.63-15.1,4.7-21.55,8.95l-14.4-9.65-13.28,13.28,9.65,14.4c-4.26,6.45-7.33,13.72-8.96,21.55l-16.97,3.38v18.79l16.97,3.38c1.63,7.83,4.7,15.1,8.96,21.55l-9.65,14.4,13.28,13.28,14.4-9.65c6.45,4.26,13.72,7.33,21.55,8.95l3.38,16.97h18.79l3.38-16.97c7.83-1.63,15.1-4.7,21.55-8.95l14.4,9.65,13.28-13.28-9.65-14.4c4.26-6.45,7.33-13.72,8.96-21.55l16.97-3.38v-18.79l-16.97-3.38c-1.63-7.83-4.7-15.1-8.96-21.55ZM332.81,186.97c-25.93,0-46.97-21.05-46.97-46.97s21.04-46.97,46.97-46.97,46.97,21.05,46.97,46.97-21.04,46.97-46.97,46.97Z"/><path class="c" d="M332.81,93.03c-25.93,0-46.97,21.05-46.97,46.97s21.04,46.97,46.97,46.97,46.97-21.05,46.97-46.97-21.04-46.97-46.97-46.97ZM297.42,170.75c6.39-9.14,16.04-15.47,26.88-17.6-10.84,2.13-20.48,8.46-26.88,17.6ZM317.15,140v-12.53c0-8.64,7.01-15.66,15.66-15.66s15.66,7.02,15.66,15.66v12.53c0,8.64-7.01,15.66-15.66,15.66s-15.66-7.02-15.66-15.66ZM341.32,153.15c10.84,2.13,20.48,8.46,26.88,17.6-6.39-9.14-16.04-15.47-26.88-17.6Z"/><path class="b" d="M348.46,140v-12.53c0-8.64-7.01-15.66-15.66-15.66s-15.66,7.02-15.66,15.66v12.53c0,8.64,7.01,15.66,15.66,15.66s15.66-7.02,15.66-15.66Z"/><path class="e" d="M232.49,72.18c21.67-31.78,58.18-52.62,99.51-52.62,66.5,0,120.45,53.94,120.45,120.45v15.71"/><path class="e" d="M211.55,124.29v15.71c0,66.5,53.94,120.45,120.45,120.45,41.34,0,77.82-20.86,99.5-52.57"/><polyline class="e" points="431.5 134.76 452.45 155.71 473.4 134.76"/><polyline class="e" points="232.5 145.24 211.55 124.29 190.6 145.24"/><path class="d" d="M342.2,218.29l3.38-16.97c7.83-1.63,15.1-4.7,21.55-8.95l14.4,9.65,13.28-13.28-9.65-14.4c4.26-6.45,7.33-13.72,8.96-21.55l16.97-3.38v-18.79l-16.97-3.38c-1.63-7.83-4.7-15.1-8.96-21.55l9.65-14.4-13.28-13.28-14.4,9.65c-6.45-4.26-13.72-7.33-21.55-8.95l-3.38-16.97h-18.79l-3.38,16.97c-7.83,1.63-15.1,4.7-21.55,8.95l-14.4-9.65-13.28,13.28,9.65,14.4c-4.26,6.45-7.33,13.72-8.96,21.55l-16.97,3.38v18.79l16.97,3.38c1.63,7.83,4.7,15.1,8.96,21.55l-9.65,14.4,13.28,13.28,14.4-9.65c6.45,4.26,13.72,7.33,21.55,8.95l3.38,16.97h18.79Z"/><path class="d" d="M332.81,186.97c25.93,0,46.97-21.05,46.97-46.97s-21.04-46.97-46.97-46.97-46.97,21.05-46.97,46.97,21.04,46.97,46.97,46.97Z"/><path class="d" d="M368.19,170.75c-6.39-9.14-16.04-15.47-26.88-17.6"/><path class="d" d="M324.29,153.15c-10.84,2.13-20.48,8.46-26.88,17.6"/><path class="d" d="M317.15,127.47c0-8.64,7.01-15.66,15.66-15.66s15.66,7.02,15.66,15.66v12.53c0,8.64-7.01,15.66-15.66,15.66s-15.66-7.02-15.66-15.66v-12.53Z"/><ellipse class="b" cx="332.83" cy="171.12" rx="32.28" ry="15.86"/><path class="d" d="M368.19,170.75c-6.39-9.14-16.04-15.47-26.88-17.6"/><path class="d" d="M324.29,153.15c-10.84,2.13-20.48,8.46-26.88,17.6"/><path class="d" d="M317.15,127.47c0-8.64,7.01-15.66,15.66-15.66s15.66,7.02,15.66,15.66v12.53c0,8.64-7.01,15.66-15.66,15.66s-15.66-7.02-15.66-15.66v-12.53Z"/><path class="d" d="M332.81,186.97c25.93,0,46.97-21.05,46.97-46.97s-21.04-46.97-46.97-46.97-46.97,21.05-46.97,46.97,21.04,46.97,46.97,46.97Z"/></svg>