<?xml version="1.0" encoding="UTF-8"?>
<svg id="a" xmlns="http://www.w3.org/2000/svg" viewBox="0 0 360 360">
<defs>
<style>.c{fill:#318d43;stroke-width:0px;}</style>
</defs>
<path class="c" d="M144.3,113.23c-3.64,0-6.59,2.95-6.59,6.59v7.79c0,3.64,2.95,6.59,6.59,6.59s6.59-2.95,6.59-6.59v-7.79c0-3.64-2.95-6.59-6.59-6.59"/>
<path class="c" d="M217.45,113.23c-3.65,0-6.59,2.95-6.59,6.59v7.79c0,3.64,2.94,6.59,6.59,6.59s6.59-2.95,6.59-6.59v-7.79c0-3.64-2.95-6.59-6.59-6.59"/>
<path class="c" d="M196.31,151.51c-.1,0-9.72-.35-9.72-4.64v-4.77c3.18-.47,5.63-3.18,5.63-6.49,0-3.64-2.95-6.59-6.59-6.59h-11.26c-3.63,0-6.59,2.95-6.59,6.59,0,3.31,2.45,6.02,5.64,6.49v4.77c0,4.29-9.63,4.64-9.69,4.64-3.65,0-6.59,2.95-6.59,6.59s2.95,6.59,6.59,6.59c5.82,0,11.86-1.58,16.27-4.85,4.42,3.28,10.46,4.85,16.28,4.85,3.63,0,6.56-2.93,6.57-6.56.02-3.63-2.91-6.58-6.54-6.62"/>
<path class="c" d="M278.73,218.59c-.75-.25-1.49-.55-2.27-.75-8.39-2.25-17.12-1.65-25.45,1.51-4.23-13.35-13.44-28.93-18.34-36.71,3.11-2.7,6.02-5.63,8.69-8.77,9.78,2.61,36.56,12.69,37.36,44.73M294.61,281.48c-6.23,23.23-26.03,38.19-44.13,33.33-8.51-2.28-15.47-8.65-19.6-17.94-4.34-9.77-5.03-21.48-1.95-32.99,3.08-11.5,9.54-21.29,18.18-27.58,6.02-4.38,12.58-6.65,19-6.65,2.34,0,4.67.3,6.94.91,8.51,2.28,15.47,8.65,19.6,17.94,4.34,9.77,5.04,21.48,1.96,32.97M112.6,123.52h0l-.04-1.63c0-8.63,1.61-17.03,4.78-24.97h0c5.13-12.86,13.98-23.7,25.6-31.36,11.02-7.27,23.84-11.1,37.06-11.1s26.04,3.84,37.06,11.1c11.61,7.66,20.46,18.5,25.6,31.36h0c3.17,7.94,4.78,16.34,4.78,24.98l-.04,1.63h0c-.86,36.29-31.1,65.81-67.4,65.81s-66.53-29.52-67.4-65.81M83.42,87.35c0-16.89,13.74-30.64,30.63-30.64,4.97,0,9.8,1.23,14.13,3.5-10.19,8.54-18.11,19.36-23.08,31.81,0,0,0,0,0,.01-2.87,7.18-4.66,14.67-5.37,22.36-9.78-5.22-16.31-15.58-16.31-27.04M276.57,87.35c0,11.46-6.53,21.82-16.31,27.04-.71-7.69-2.5-15.18-5.37-22.36h0c-4.98-12.46-12.9-23.28-23.09-31.82,4.33-2.27,9.16-3.5,14.13-3.5,16.89,0,30.63,13.74,30.63,30.64M86.95,230.57c2.27-.61,4.6-.91,6.94-.91,6.42,0,12.98,2.27,19,6.65,8.65,6.29,15.1,16.09,18.18,27.58,6.23,23.23-3.44,46.07-21.54,50.93-8.52,2.28-17.73.24-25.94-5.74-8.65-6.29-15.1-16.09-18.18-27.59-3.08-11.5-2.39-23.21,1.95-32.97,4.12-9.29,11.09-15.66,19.6-17.94M289.75,87.35c0-24.16-19.65-43.82-43.81-43.82-9.33,0-18.32,3-25.8,8.49-12.2-7.03-25.97-10.75-40.15-10.75s-27.95,3.72-40.15,10.75c-7.48-5.49-16.46-8.49-25.8-8.49-24.15,0-43.81,19.66-43.81,43.82,0,18.68,12.14,35.3,29.46,41.34,1.05,12.23,4.87,23.7,10.84,33.8-19.72,6.68-45.11,25.32-42.27,63.3-5.37,4.44-9.82,10.28-12.96,17.37-5.56,12.51-6.5,27.34-2.64,41.74,3.86,14.4,12.08,26.78,23.16,34.83,8.33,6.06,17.53,9.19,26.7,9.19,3.49,0,6.98-.46,10.41-1.37,25.12-6.74,38.97-36.82,30.87-67.06-3.85-14.36-12.03-26.7-23.05-34.76,1.32-5.84,4.11-12.34,9.11-21.3,1.78-3.18.64-7.19-2.54-8.97-3.17-1.77-7.19-.64-8.96,2.54-3.73,6.67-7.33,13.77-9.54,21.28-8.28-3.1-16.94-3.68-25.28-1.44-.77.2-1.51.5-2.26.75.85-31.85,27.6-42.05,37.37-44.7,14.86,17.47,36.96,28.62,61.35,28.62,15.33,0,29.76-4.42,42.05-12.03,5.79,9.26,14.38,24.51,17.14,35.31-10.98,8.06-19.14,20.37-22.98,34.7-3.41,12.71-3.07,25.75.89,37.24-.06.04-.12.06-.18.1-.1.07-10.38,6.8-36.91,6.8-5.46,0-10.63-.29-15.4-.85-1.41-.16-2.73-.35-3.99-.55-3.59-.56-6.97,1.89-7.54,5.48-.57,3.59,1.88,6.97,5.47,7.54,1.43.23,2.93.44,4.51.62,5.27.62,10.97.94,16.94.94,25.75,0,38.58-5.75,42.91-8.22,5.92,9.01,14.25,15.3,24.16,17.96,3.4.91,6.83,1.35,10.26,1.35,21.84,0,43-17.85,50-44,3.86-14.4,2.93-29.22-2.64-41.74-3.14-7.09-7.59-12.93-12.97-17.37,2.84-37.98-22.54-56.62-42.27-63.3,5.96-10.1,9.8-21.57,10.84-33.8,17.33-6.04,29.46-22.66,29.46-41.34"/>
</svg>