<?xml version="1.0" encoding="UTF-8"?><svg id="b" xmlns="http://www.w3.org/2000/svg" viewBox="0 0 360 360"><defs><style>.c{stroke-width:12px;}.c,.d{fill:none;stroke:#318d43;stroke-linecap:round;stroke-linejoin:round;}.d{stroke-width:10.2px;}</style></defs><path class="c" d="M101.78,153.9c-7.4,23.25-15.54,31.57-21.21,37.52,0,0,11.19,5.56,22.94,3.39"/>
<path class="c" d="M175.95,180.09s-11.38,5.13-28.76,3.41c-15.91-1.58-28.9-10.43-28.9-10.43"/>
<path class="c" d="M184.57,138.6s16.38,5.17,26.58,5.07c10.2-.1,25.94-5.13,31.82-6.29,5.88-1.16,7.33-.99,19.81-.67,12.47.32,19.64-8.64,16.19-13.5-3.45-4.86-21.36-4.23-35.85-2.53-14.5,1.7-27.63,4.58-42.89-1.68-15.26-6.25-32.92-4.77-32.92-4.77-4.56-.91-7.94-4.24-9.33-8.76,12.43-4.2,20.57-16.67,20.42-31.31,0,0-9.05-2.86-21.27-10.74-11.34-7.3-16.4-16.32-16.4-16.32-9.53,20.92-20.34,27.63-20.34,27.63.15,14.38,7.2,26.51,18.92,30.69,0,0,0,0,0,0,0,0,1.93,10.57-13.96,11.15-13.61.5-37.96,6.17-44.78,16.33-10.27,15.3,21.93,23.02,31.68,20.18,9.75-2.84,18.41-3.92,25.03-1.49,6.62,2.43,30.52,2.19,24.83-7.47-1.67-2.83-3.95-5.01-6.52-6.66"/>
<path class="c" d="M155.59,137.47c-7.17-3.17-15.6-5.75-24.49-3.97-8.88,1.78-15.94,1.82-15.94,1.82"/>
<path class="c" d="M184.57,138.6s-1.25,29.53-8.62,41.49c0,0,1.55,51.54,36.2,85.29"/>
<path class="c" d="M121.46,150.93l-3.18,22.14s-17.27,22.32-20.65,92.31"/>
<path class="c" d="M169.62,294.03c.33,7.05,3.66,21.88,5.6,26.2,3.67,8.17,11.98,14.12,16.15,16.03,6.04,2.76,16.49-.31,15.42-8.05-.99-7.11-8.49-13.48-12.91-18.67-4.3-5.04-2.64-16.28-2.86-19.82"/>
<path class="c" d="M109.02,290.63c-.43,5.82-1.99,16.79-2.69,20.95-1.63,9.63,2.28,20.01,4.91,24.25,3.8,6.12,20.97,9.65,24.69,1.96,3.42-7.07-9.08-16.17-9.94-23.54-.78-6.68,5.23-19.53,5.23-19.53"/>
<path class="d" d="M208.99,41.5c0-4.47-3.62-8.09-8.09-8.09-.19,0-.38,0-.57.02-.87-3.53-4.06-6.14-7.86-6.14s-6.98,2.61-7.86,6.14c-.19-.01-.38-.02-.57-.02-4.47,0-8.09,3.62-8.09,8.09,0,2.9,1.52,5.43,3.81,6.87-.38.94-.59,1.96-.59,3.03,0,4.47,3.62,8.09,8.09,8.09,1.98,0,3.8-.71,5.2-1.9,1.41,1.18,3.22,1.9,5.2,1.9,4.47,0,8.09-3.62,8.09-8.09,0-1.07-.21-2.1-.59-3.03,2.29-1.43,3.81-3.97,3.81-6.87Z"/>
<path class="c" d="M198,66.17c.14,14.05.54,21.96-2.4,31.63"/>
<path class="c" d="M107.07,117.99c1.04-12.77-3.41-36.54-3.52-47.49-.2-19.67,14.69-46.42,41.62-46.69,10.44-.1,22.36,4.02,29.49,8.38"/>
<line class="c" x1="199.64" y1="122.51" x2="192.69" y2="140.86"/>
<path class="c" d="M212.15,265.38c-77.55,24.46-114.51,1.11-114.51,1.11"/>
</svg>