<?xml version="1.0" encoding="UTF-8"?><svg id="b" xmlns="http://www.w3.org/2000/svg" viewBox="0 0 360 360"><defs><style>.c{fill:#318d43;stroke-width:0px;}</style></defs><path class="c" d="M163.07,15.14c-4.86,0-9.79.2-14.78.62-4.6.39-28.8,3.04-53.08,17.52-28.54,17.01-45.31,43.03-49.87,77.34-2.45,18.36-1.67,35.5,2.38,52.38.06.24.14.49.23.73l.04.12c5.35,21.48,16.94,38.65,26.25,52.45,1.61,2.39,3.16,4.69,4.61,6.91,2.31,3.53,4.67,6.78,6.95,9.93,5.62,7.77,10.48,14.47,10.41,19.72-.4,35.71-9.24,52.56-13.02,59.76-.48.91-.88,1.68-1.21,2.37l-.62,1.3c-.76,1.63-.83,3.48-.21,5.18.63,1.7,1.88,3.06,3.52,3.82.9.42,1.86.63,2.84.63,2.64,0,5.05-1.53,6.14-3.9l.55-1.15c.29-.6.64-1.28,1.05-2.06l.09-.17c4.19-8.03,14-26.84,14.44-65.62.11-9.3-6.02-17.93-13.13-27.92-2.15-3.02-4.34-6.1-6.45-9.33-1.44-2.2-2.98-4.48-4.58-6.85-8.85-13.07-19.85-29.35-24.65-49.15-.05-.22-.12-.45-.2-.67l-.04-.13c-3.48-14.95-4.1-30.17-1.92-46.55,9.85-74.23,82.38-82.43,90.62-83.12,53.66-4.48,99.61,17.39,111.72,53.19,6.81,20.13,7.66,27.18,8.35,42.17l.08,10.9c.67,14.17,7.34,25.42,12.82,32.35,8.54,10.79,14.8,18.96,18.59,24.28.6.85.75,1.94.39,2.92-.36.98-1.18,1.71-2.19,1.96-2.15.53-4.78,1.12-7.82,1.74-.61.12-1.26.25-1.94.38l-.15.03c-6.55,1.25-14.7,2.81-15.87,8.42l3.86,44.87c.54,6.09.76,9.7-1.08,13.03-.89,1.61-2.28,2.99-4.14,4.1-10.1,6.05-19.73,8.32-44.37,3.93-3.81-.68-8.08-1.38-12.22-2.05-12.67-2.07-27.03-4.42-33.97-7.11-1.57-.61-3.11-.75-4.46-.42-2.56.65-4.49,2.65-5.03,5.24-.67,3.23,1.14,6.48,4.31,7.73,7.93,3.13,22.8,5.59,37.19,7.98,4.22.7,8.16,1.35,11.79,2,24.43,4.36,43.53,1.81,56.79-7.58l1.4-1.2c5.3-5.52,8.28-12.22,6.56-28.37q-.42-3.98-1.3-13.96c-.13-1.45-.27-2.86-.42-4.29-.39-3.79-.78-7.71-.87-12.42-.05-3,1.93-5.69,4.82-6.53.8-.23,1.41-.39,1.82-.47,9.32-1.9,19.53-4.37,22.61-9.65,3.41-5.85.71-12.19-23.66-42.96-4.24-5.38-9.41-14.01-9.91-24.61l-.06-10.67c-.7-15.07-1.37-23.35-9.06-46.07-12.93-38.25-57.45-63-110.93-63Z"/><path class="c" d="M226.5,273.44c-.62,0-1.24.09-1.86.26-1.75.49-3.2,1.64-4.08,3.22-10,17.88-20.72,52.65-21.76,62.15-.2,1.8.32,3.57,1.46,4.98,1.14,1.42,2.77,2.31,4.59,2.5.23.02.46.04.7.04,3.47,0,6.37-2.6,6.74-6.05.8-7.32,11.06-40.8,20.12-57,.88-1.58,1.1-3.41.61-5.16-.49-1.75-1.63-3.2-3.21-4.08h0c-1.02-.57-2.15-.87-3.3-.87Z"/><path class="c" d="M136.82,57.99c-4.09,0-6.93.57-7.66.73-16.15,3-30.8,16.81-34.1,32.15-5.63,22.61,4.67,46.69,29.78,69.69,18.24,16.71,37.69,26.97,38.51,27.4,1.82.96,4.11.95,5.94,0,.8-.42,19.76-10.43,37.77-26.73,21.08-19.08,32.15-39.32,32.02-58.56-.01-2.03-1-3.95-2.63-5.14h0c-1.64-1.2-3.7-1.55-5.66-.94-2.67.83-4.52,3.35-4.49,6.13.15,14.77-8.31,30.39-25.15,46.4-13.41,12.75-28.43,22.1-34.27,25.53l-.56.33-.56-.33c-6.61-3.88-23.49-14.44-37.56-28.77-17.83-18.18-24.8-35.69-20.7-52.05l.03-.14c2.2-10.33,13.03-20.4,24.14-22.44l.17-.04c.67-.15,17-3.71,29.53,11.59,1.19,1.45,2.99,2.28,4.94,2.28s3.75-.83,4.94-2.28c12.47-15.22,29.03-11.7,29.73-11.54l.14.03c5.54,1.01,11.1,3.98,15.63,8.36,1.39,1.34,3.29,1.98,5.21,1.75,1.92-.23,3.61-1.31,4.65-2.96,1.6-2.54,1.14-5.93-1.08-8.07-6.28-6.03-14.05-10.15-21.89-11.6-2.09-.46-20.51-4.02-36.61,10.06l-.73.64-.73-.64c-10.31-9.04-21.51-10.83-28.77-10.83Z"/><path class="c" d="M176.41,152.23h-20.19v-18.09h-17.7v-19.38h17.7v-18.08h20.19v17.82h16.6v19.65h-16.6v18.09Z"/><path class="c" d="M157.32,151.13h17.98v-18.09h16.6v-17.44h-16.6v-17.82h-17.98v18.08h-17.7v17.18h17.7v18.09Z"/></svg>