<?xml version="1.0" encoding="UTF-8"?>
<svg id="Color_Palette" xmlns="http://www.w3.org/2000/svg" version="1.1" viewBox="0 0 360 360">
  <!-- Generator: Adobe Illustrator 29.0.1, SVG Export Plug-In . SVG Version: 2.1.0 Build 192)  -->
  <defs>
    <style>
      .st0 {
        fill: #318d43;
      }
    </style>
  </defs>
  <path class="st0" d="M51.4,180.2c-1.8,0-3.7,0-5.6-.1-3.5-.2-6.2-3-6.2-6.5,0-13.3,3-26.1,8.8-37.9,1.3-2.7,4.3-4.1,7.2-3.5,2.9.6,5,3.1,5.2,6.1.5,11.3,2.1,22.6,5,33.5.5,1.9.1,3.9-1,5.4-1.1,1.6-2.9,2.6-4.8,2.7-2.8.2-5.7.3-8.5.3Z"/>
  <path class="st0" d="M55,216.7c-2.4,0-4.7-1.4-5.8-3.5-3.2-6.3-5.7-12.9-7.3-19.8-.5-2,0-4,1.3-5.6,1.3-1.6,3.2-2.5,5.2-2.4,5.4.1,10.9,0,16.2-.7,5.9-.6,11.7-1.7,17.4-3.2,5.6-1.5,11.1-3.4,16.4-5.7,5.3-2.3,10.5-5,15.4-8,5.1-3.1,10-6.7,14.5-10.5,5-4.2,9.7-8.9,13.9-13.9,6.8-7.9,12.4-16.7,16.9-26.1,1.9-3.9,3.5-8,4.9-12.1.7-1.9,2.2-3.4,4.1-4,1.9-.6,4-.4,5.7.8,5.5,3.7,10.7,8.1,15.2,13l.7.7c1.7,1.8,2.2,4.5,1.3,6.8-.8,2-1.7,4-2.6,6.1-4.3,9.4-9.5,18.4-15.7,26.7-4.1,5.6-8.6,10.9-13.5,15.9-4.5,4.6-9.4,9-14.4,13-5,4-10.3,7.6-15.7,10.9-5.5,3.3-11.2,6.3-17,8.8-5.9,2.6-12.1,4.9-18.3,6.7-6.3,1.9-12.9,3.3-19.5,4.3-6.3,1-12.7,1.5-19.2,1.7,0,0-.1,0-.2,0ZM56.9,198.4c.6,1.8,1.3,3.5,2.1,5.2,4.5-.2,9-.7,13.4-1.4,6-.9,12-2.2,17.8-3.9,5.7-1.7,11.3-3.7,16.7-6.1,5.3-2.3,10.5-5.1,15.5-8.1,5-3,9.8-6.3,14.4-10,4.6-3.7,9.1-7.7,13.2-11.9,4.4-4.6,8.6-9.4,12.3-14.5,5.6-7.6,10.4-15.9,14.3-24.4.3-.6.5-1.1.7-1.7-1.3-1.3-2.7-2.6-4.1-3.8-.7,1.7-1.5,3.5-2.3,5.2-4.9,10.4-11.2,20.2-18.7,29-4.7,5.5-9.9,10.7-15.5,15.4-5,4.3-10.5,8.2-16.1,11.6-5.4,3.4-11.2,6.3-17.1,8.9-5.9,2.5-12,4.6-18.2,6.3-6.3,1.7-12.8,2.9-19.3,3.6-3,.3-6,.6-9.1.7Z"/>
  <path class="st0" d="M197.1,144.3c-2.4,0-4.7-1.3-5.8-3.6-3-5.9-6.7-11.3-11.1-16.2l-.6-.7c-3.9-4.2-8.2-7.9-12.9-11.1,0,0-.1,0-.2-.1,0,0-.2-.1-.2-.2-4.6-3-9.6-5.6-14.7-7.5-3.4-1.3-5.1-5-3.8-8.4,1.3-3.4,5-5.1,8.4-3.8,6.1,2.3,11.9,5.3,17.4,8.9,0,0,.1,0,.2.1,0,0,.2.1.3.2,5.5,3.7,10.6,8.1,15.2,13l.7.7c5.3,5.8,9.7,12.3,13.1,19.2,1.6,3.2.3,7.1-2.9,8.7-.9.5-1.9.7-2.9.7Z"/>
  <path class="st0" d="M197.1,144.3c-2.4,0-4.7-1.3-5.8-3.6-3-5.9-6.7-11.3-11.1-16.2l-.6-.7c-3.9-4.2-8.2-7.9-12.9-11.1,0,0-.1,0-.2-.1,0,0-.2-.1-.2-.2-4.6-3-9.6-5.6-14.7-7.5-3.4-1.3-5.1-5-3.8-8.4,1.3-3.4,5-5.1,8.4-3.8,6.1,2.3,11.9,5.3,17.4,8.9,0,0,.1,0,.2.1,0,0,.2.1.3.2,5.5,3.7,10.6,8.1,15.2,13l.7.7c5.3,5.8,9.7,12.3,13.1,19.2,1.6,3.2.3,7.1-2.9,8.7-.9.5-1.9.7-2.9.7Z"/>
  <path class="st0" d="M197.1,144.3c-2.4,0-4.7-1.3-5.8-3.6-3-5.9-6.7-11.3-11.1-16.2l-.6-.7c-3.9-4.2-8.2-7.9-12.9-11.1,0,0-.1,0-.2-.1,0,0-.2-.1-.2-.2-4.6-3-9.6-5.6-14.7-7.5-3.4-1.3-5.1-5-3.8-8.4,1.3-3.4,5-5.1,8.4-3.8,6.1,2.3,11.9,5.3,17.4,8.9,0,0,.1,0,.2.1,0,0,.2.1.3.2,5.5,3.7,10.6,8.1,15.2,13l.7.7c5.3,5.8,9.7,12.3,13.1,19.2,1.6,3.2.3,7.1-2.9,8.7-.9.5-1.9.7-2.9.7Z"/>
  <path class="st0" d="M197.1,144.3c-2.4,0-4.7-1.3-5.8-3.6-3-5.9-6.7-11.3-11.1-16.2l-.6-.7c-3.9-4.2-8.2-7.9-12.9-11.1,0,0-.1,0-.2-.1,0,0-.2-.1-.2-.2-4.6-3-9.6-5.6-14.7-7.5-3.4-1.3-5.1-5-3.8-8.4,1.3-3.4,5-5.1,8.4-3.8,6.1,2.3,11.9,5.3,17.4,8.9,0,0,.1,0,.2.1,0,0,.2.1.3.2,5.5,3.7,10.6,8.1,15.2,13l.7.7c5.3,5.8,9.7,12.3,13.1,19.2,1.6,3.2.3,7.1-2.9,8.7-.9.5-1.9.7-2.9.7Z"/>
  <path class="st0" d="M205,170.8c-.7,0-1.4-.1-2.1-.4-7.7-2.7-14.3-7.5-19.2-14-1.6-2.2-1.7-5.1-.3-7.4,2.9-4.5,5.5-9.3,7.9-14.1,1.1-2.2,3.3-3.6,5.8-3.6h0c2.5,0,4.7,1.4,5.8,3.6,4.5,9,7.4,18.7,8.6,28.7.3,2.2-.6,4.4-2.4,5.8-1.2.9-2.6,1.4-4.1,1.4Z"/>
  <path class="st0" d="M205,189.8c-.5,0-.9,0-1.4-.2-11.7-2.6-22.2-8.5-30.4-17.3-2.2-2.4-2.3-6-.3-8.5,3.8-4.7,7.3-9.6,10.5-14.7,1.1-1.8,3.1-2.9,5.2-3,2.1,0,4.2.9,5.5,2.6,3.4,4.5,7.9,7.8,13.1,9.6,2.4.8,4,2.9,4.3,5.4.4,3.3.6,6.7.6,10s-.2,7-.6,10.4c-.2,1.8-1.2,3.5-2.7,4.5-1.1.8-2.4,1.2-3.8,1.2ZM186.7,167.2c3.7,3.1,7.9,5.7,12.4,7.5,0-.3,0-.7,0-1,0-1.6,0-3.2-.2-4.8-3.3-1.6-6.4-3.5-9.2-5.9-1,1.4-2,2.9-3.1,4.3Z"/>
  <path class="st0" d="M200.7,207.5c-.5,0-.9,0-1.4-.2-14.5-3.3-27.8-10.6-38.3-21.4-2.5-2.6-2.5-6.6,0-9.2,4.2-4.1,8.1-8.5,11.8-13.1,1.2-1.5,2.9-2.4,4.8-2.4,1.9,0,3.7.7,5,2.1,6.4,6.8,14.6,11.5,23.7,13.5,3.3.7,5.5,3.8,5.1,7.1-.8,6.6-2.3,13-4.6,19.2-1,2.6-3.4,4.3-6.1,4.3ZM175,181.2c6.4,5.3,13.6,9.4,21.5,11.9.5-1.7.9-3.4,1.2-5.1-7-2.3-13.5-5.9-19.2-10.7-1.2,1.3-2.3,2.6-3.5,3.9Z"/>
  <path class="st0" d="M192.3,224.2c-.6,0-1.2,0-1.7-.2-16.4-4.6-31.4-13.5-43.2-25.9-1.3-1.3-1.9-3.1-1.8-4.9.1-1.8,1-3.5,2.5-4.7,4.6-3.6,9-7.6,13.1-11.6,1.2-1.2,2.9-1.9,4.6-1.9h0c1.7,0,3.4.7,4.6,2,8.7,8.9,19.7,15.1,31.8,17.8,1.8.4,3.4,1.6,4.3,3.2s1,3.6.4,5.4c-2.3,6.4-5.4,12.4-9.2,18.1-1.2,1.8-3.3,2.9-5.4,2.9ZM161.8,194c8.1,7.1,17.5,12.6,27.6,16.1.9-1.5,1.7-3.1,2.5-4.7-9.6-3.2-18.5-8.2-26.2-14.9-1.3,1.2-2.6,2.4-4,3.5Z"/>
  <path class="st0" d="M179.3,239.3c-.8,0-1.5-.1-2.2-.4-17.1-6.3-32.6-16.7-45-30.3-1.3-1.4-1.9-3.4-1.6-5.3.3-1.9,1.4-3.6,3-4.6,5-3.1,9.9-6.5,14.5-10.2,2.6-2.1,6.4-1.8,8.7.6,10.2,10.7,23.2,18.4,37.3,22.4,2,.6,3.6,2,4.3,4,.7,2,.5,4.1-.7,5.9-4,6-8.7,11.4-14,16.2-1.2,1.1-2.8,1.7-4.4,1.7ZM147.1,205.3c9,8.4,19.4,15.2,30.7,19.9,1.3-1.3,2.6-2.7,3.8-4.2-11.1-4.3-21.4-10.7-30.2-18.9-1.4,1.1-2.9,2.1-4.4,3.1Z"/>
  <path class="st0" d="M161.4,251.5c-1,0-1.9-.2-2.8-.7-16.6-8.1-31.1-19.3-43.1-33.5-1.3-1.5-1.8-3.6-1.4-5.6.4-2,1.8-3.6,3.6-4.5,5.4-2.5,10.7-5.4,15.8-8.6,2.7-1.7,6.1-1.2,8.2,1.1,10.9,12,24.7,21.3,39.9,26.8,2.1.8,3.7,2.6,4.1,4.9.4,2.2-.3,4.5-2,6.1-5.8,5.3-12.3,9.7-19.3,13.2-.9.5-1.9.7-2.9.7ZM131,215.1c8.9,9.1,19.1,16.7,30.4,22.6,1.8-1,3.6-2.1,5.3-3.2-11.4-5.5-21.9-13-30.9-22-1.6.9-3.2,1.8-4.8,2.7Z"/>
  <path class="st0" d="M137.7,259c-1.3,0-2.5-.4-3.6-1.1-14-9.1-26.3-20.5-36.6-33.7-1.3-1.7-1.7-3.9-1.1-5.9.6-2,2.2-3.6,4.2-4.3,5.8-1.9,11.5-4.2,17-6.8,2.7-1.3,5.8-.6,7.7,1.7,10.8,12.8,23.9,22.9,38.9,30.2,2.2,1.1,3.6,3.3,3.7,5.8,0,2.5-1.4,4.7-3.6,5.9-8.1,4-16.8,6.8-25.7,8.1-.3,0-.6,0-1,0ZM113.6,223.2c7.6,8.5,16.1,16,25.6,22.4,2.4-.4,4.7-1,7.1-1.7-10.1-6.3-19.3-14-27.5-22.9-1.7.7-3.4,1.5-5.2,2.1Z"/>
  <path class="st0" d="M125.8,259.9c-7.2,0-14.4-.9-21.4-2.7-1-.3-2-.8-2.8-1.5-8.7-8-16.5-17-23.3-26.6-1.3-1.8-1.5-4.1-.7-6.2s2.6-3.5,4.8-4c6.1-1.2,12.3-2.9,18.2-4.8,2.6-.9,5.5,0,7.2,2.2,9.4,12.1,20.6,22.4,33.4,30.8,2.3,1.5,3.4,4.2,2.8,6.8-.6,2.6-2.7,4.6-5.4,5-4.2.6-8.5.9-12.8.9ZM109.3,245c3.2.7,6.4,1.2,9.6,1.6-6.7-5.7-12.8-11.9-18.5-18.7-1.8.6-3.7,1.1-5.5,1.6,4.4,5.5,9.2,10.7,14.4,15.6Z"/>
  <path class="st0" d="M106.1,257.4c-.5,0-1.1,0-1.6-.2-8.8-2.3-17.2-5.9-24.9-10.8-6.2-4-12-8.8-17-14.2-1.7-1.8-2.2-4.4-1.3-6.7.9-2.3,3-3.9,5.5-4.2,5.2-.5,10.5-1.3,15.7-2.3,2.5-.5,5.1.5,6.6,2.6,6.3,8.9,13.5,17.1,21.5,24.5,2.2,2,2.7,5.3,1.3,7.9-1.2,2.1-3.4,3.4-5.7,3.4Z"/>
  <path class="st0" d="M59.5,179.9c-2.9,0-5.5-2-6.3-4.8-3.1-11.8-4.9-24-5.4-36.3,0-1.1.2-2.2.7-3.1,5.1-10.4,12.1-19.5,20.9-27.1,2-1.8,5-2.1,7.3-.8,2.4,1.3,3.7,3.9,3.4,6.6-.7,5.8-1.1,11.7-1.1,17.6,0,12.5,1.7,24.9,5,36.9.5,1.7.2,3.5-.6,5-.9,1.5-2.3,2.6-4,3-6.3,1.6-12.8,2.6-19.3,3.1-.2,0-.3,0-.5,0ZM60.8,139.9c.5,8.9,1.7,17.8,3.6,26.4,1.7-.2,3.5-.5,5.2-.8-2.5-11-3.8-22.3-3.8-33.7v-.3c-1.9,2.7-3.6,5.5-5.1,8.4Z"/>
  <path class="st0" d="M77.6,177c-2.9,0-5.5-1.9-6.3-4.8-3.6-13.1-5.5-26.6-5.5-40.3s.4-12.9,1.2-19.3c.2-1.6,1-3,2.2-4.1,6.8-6,14.5-10.8,22.9-14.3,2.3-1,4.9-.6,6.8,1.1,1.9,1.6,2.7,4.2,2,6.6-2.5,9.8-3.8,19.9-3.8,30s1.4,20.9,4.1,31c.8,3.1-.7,6.3-3.6,7.6-5.9,2.6-12.1,4.7-18.4,6.3-.5.1-1.1.2-1.6.2ZM79.7,116.8c-.5,5-.8,10.1-.8,15.1,0,10.3,1.1,20.6,3.4,30.5,1.7-.5,3.4-1.1,5-1.8-2.1-9.4-3.1-19.1-3.1-28.8s.5-13,1.4-19.4c-2,1.3-4,2.8-5.9,4.3Z"/>
  <path class="st0" d="M94.9,171c-1,0-1.9-.2-2.8-.6-1.7-.8-3-2.3-3.5-4.2-3-11.1-4.5-22.7-4.5-34.3s1.4-22.5,4.2-33.3c.5-2,1.9-3.6,3.7-4.3,7.2-3.1,14.8-5.1,22.6-6.1,2.3-.3,4.5.6,5.9,2.4,1.4,1.8,1.8,4.2,1,6.3-4.2,11.2-6.3,23-6.3,35.1s.8,14.9,2.4,22.1c.6,2.6-.5,5.3-2.7,6.8-5.6,3.7-11.5,7-17.6,9.7-.8.4-1.7.6-2.6.6ZM100.2,105c-2,8.8-3,17.8-3,26.9s.8,15.6,2.3,23.2c1.6-.9,3.3-1.8,4.8-2.8-1.2-6.7-1.8-13.6-1.8-20.4,0-9.8,1.2-19.5,3.7-28.8-2,.6-4,1.2-5.9,1.9Z"/>
  <path class="st0" d="M111.5,161.9c-.8,0-1.6-.2-2.4-.5-2-.8-3.5-2.5-3.9-4.6-1.8-8.1-2.7-16.5-2.7-24.9,0-13.6,2.4-26.9,7.1-39.6.8-2.3,2.9-3.9,5.3-4.2,7-.9,14.3-.9,21.4,0,2.1.2,3.9,1.5,4.9,3.3,1,1.8,1.1,4,.2,5.9-5.1,10.9-7.6,22.6-7.6,34.7s.2,6.2.5,9.3c.2,2-.5,3.9-1.8,5.3-5.3,5.3-11,10.1-17.2,14.3-1.1.7-2.4,1.1-3.6,1.1ZM120.4,100.6c-3.3,10.1-4.9,20.6-4.9,31.3s.2,8,.7,11.9c1.7-1.4,3.3-2.8,4.9-4.3-.2-2.5-.3-5-.3-7.5,0-10.9,1.8-21.4,5.3-31.5-1.9,0-3.8,0-5.6.2Z"/>
  <path class="st0" d="M127.7,148.4c-.7,0-1.4-.1-2.1-.4-2.4-.8-4-2.9-4.3-5.4-.4-3.5-.6-7.1-.6-10.8,0-14,3-27.5,8.8-40.2,1.2-2.6,3.9-4.1,6.7-3.7,6.7.8,13.4,2.4,19.7,4.8.2,0,.3.1.5.2,3.1,1.3,4.7,4.8,3.7,8-1.7,5.4-3.9,10.8-6.4,15.9-5.4,11-12.6,20.9-21.2,29.7-1.2,1.3-2.9,1.9-4.6,1.9ZM139.4,101.6c-2.9,7.3-4.7,14.9-5.4,22.7,3-4.2,5.6-8.6,7.9-13.3,1.3-2.6,2.5-5.3,3.5-8-2-.6-4-1-6.1-1.4ZM151.5,105h0,0Z"/>
  <path class="st0" d="M67.3,234.3c-1.8,0-3.5-.7-4.8-2.1-5.3-5.7-9.8-12.1-13.3-19-1-2-1-4.4.2-6.3,1.1-1.9,3.2-3.1,5.4-3.2,5.9-.1,11.8-.7,17.5-1.5,6-.9,12-2.2,17.8-3.9,5.7-1.7,11.3-3.7,16.7-6.1,5.3-2.3,10.5-5.1,15.5-8.1,5-3,9.8-6.3,14.4-10,4.6-3.7,9.1-7.7,13.2-11.9,4.4-4.6,8.6-9.4,12.3-14.5,5.6-7.6,10.4-15.9,14.3-24.4.8-1.8,1.6-3.7,2.4-5.5.8-2.1,2.7-3.6,4.9-4s4.5.4,6,2c5.2,5.8,9.6,12.2,13.1,19.1.9,1.8.9,4,0,5.8-2.6,5.2-5.5,10.4-8.6,15.3-3.5,5.5-7.3,10.9-11.4,15.9-4,4.9-8.3,9.7-12.8,14.2-4.4,4.4-9.2,8.7-14.2,12.6-5,3.9-10.3,7.6-15.7,11-5.5,3.4-11.3,6.6-17.1,9.3-6,2.8-12.2,5.3-18.5,7.4-6.4,2.1-13.1,3.9-19.8,5.3-5.6,1.1-11.4,2-17,2.5-.2,0-.4,0-.6,0ZM66.1,216c1.2,1.7,2.5,3.3,3.8,4.9,4.2-.5,8.3-1.2,12.4-2,6.2-1.2,12.3-2.9,18.2-4.8,5.8-1.9,11.5-4.2,17.1-6.8,5.4-2.5,10.7-5.4,15.8-8.6,5-3.1,9.9-6.5,14.5-10.2,4.6-3.6,9-7.6,13.1-11.6,4.2-4.1,8.1-8.5,11.8-13.1,3.8-4.7,7.3-9.6,10.5-14.7,2.3-3.6,4.4-7.4,6.4-11.2-1-1.8-2.1-3.6-3.2-5.3-3.9,7.9-8.5,15.6-13.8,22.7-4.1,5.6-8.6,10.9-13.5,15.9-4.5,4.6-9.4,9-14.4,13-5,4-10.3,7.6-15.7,10.9-5.5,3.3-11.2,6.3-17,8.8-5.9,2.6-12.1,4.9-18.3,6.7-6.3,1.9-12.9,3.3-19.5,4.3-2.7.4-5.4.8-8.2,1Z"/>
  <path class="st0" d="M51.4,198.5c-1.1,0-2.3,0-3.4,0-3,0-5.5-2.1-6.2-5-1.5-6.4-2.3-13.1-2.3-19.8s.7-3.5,2-4.7c1.3-1.2,3-1.9,4.8-1.8,4.3.2,8.5.1,12.6-.2,5.8-.4,11.5-1.3,17-2.7,5.6-1.4,11-3.3,16.3-5.6,5.4-2.4,10.6-5.3,15.6-8.6,5.5-3.7,10.6-8,15.3-12.7,7.7-7.7,14-16.6,18.8-26.3,2.3-4.6,4.2-9.3,5.7-14.1.5-1.7,1.8-3.1,3.4-3.9,1.6-.8,3.5-.9,5.1-.2,6.1,2.3,11.9,5.3,17.4,8.9,0,0,.1,0,.2.1l.3.2c2.4,1.7,3.3,4.7,2.4,7.4-1.6,4.5-3.4,9.1-5.5,13.4-4.9,10.4-11.2,20.2-18.7,29-4.7,5.5-9.9,10.7-15.5,15.4-5,4.3-10.5,8.2-16.1,11.6-5.4,3.4-11.2,6.3-17.1,8.9-5.9,2.5-12,4.6-18.2,6.3-6.3,1.7-12.8,2.9-19.3,3.6-4.8.5-9.7.8-14.5.8ZM52.9,180.2c.2,1.8.4,3.5.7,5.3,3.7,0,7.4-.3,11-.7,5.9-.6,11.7-1.7,17.4-3.2,5.6-1.5,11.1-3.4,16.4-5.7,5.3-2.3,10.5-5,15.4-8,5.1-3.1,10-6.7,14.5-10.5,5-4.2,9.7-8.9,13.9-13.9,6.8-7.9,12.4-16.7,16.9-26.1,1.1-2.4,2.2-4.8,3.2-7.3-1.5-.9-3.1-1.7-4.7-2.5-1.2,3.1-2.6,6.2-4.1,9.2-5.4,11-12.6,20.9-21.2,29.7-5.3,5.3-11.1,10.1-17.2,14.3-5.6,3.8-11.5,7-17.6,9.7-5.9,2.6-12.1,4.7-18.4,6.3-6.3,1.6-12.8,2.6-19.2,3.1-2.3.2-4.7.3-7,.3Z"/>
  <path class="st0" d="M269.6,284.5c-9,0-18.2-1-26.7-3-18.4-4.3-33.2-13-42.9-25-2.3-2.8-1.8-6.9,1-9.1,2.8-2.3,6.9-1.8,9.1,1,16.8,20.8,52,26.5,78,21.4,14.2-2.8,21.8-8,23.1-12,1.7-5.4.3-8.4-1-10.1-9.2-13.3-50.7-16-78.2-17.8-23.1-1.5-36.4-2.6-43.1-6.6-3.1-1.9-4.1-5.9-2.2-8.9,1.9-3.1,5.9-4.1,8.9-2.2,4.2,2.6,21.8,3.7,37.2,4.7,35.3,2.3,75.3,5,88.1,23.4,4.2,6,5.1,13.4,2.7,21.3-3,9.8-15,17.5-33,20.9-6.7,1.3-13.8,1.9-21,1.9Z"/>
  <path class="st0" d="M170.4,113.9c-1.4,0-2.8-.4-4-1.4-2.8-2.2-3.3-6.3-1.1-9.1l44-56.6c2.2-2.8,6.3-3.3,9.1-1.1,2.8,2.2,3.3,6.3,1.1,9.1l-44,56.6c-1.3,1.6-3.2,2.5-5.1,2.5Z"/>
  <path class="st0" d="M143.3,100.4c-.3,0-.7,0-1,0-3.5-.6-6-3.9-5.4-7.5l7-43.1c.6-3.5,3.9-5.9,7.5-5.4,3.5.6,6,3.9,5.4,7.5l-7,43.1c-.5,3.2-3.3,5.5-6.4,5.5Z"/>
  <circle class="st0" cx="152" cy="44.7" r="9.3"/>
  <circle class="st0" cx="219.5" cy="44.7" r="9.3"/>
  <path class="st0" d="M36.8,258.3c-3.3-.5-6.7-.4-10.1.2h0c-11.1,2.8-11.4,9.1-10.4,12.3.6,1.8,2,5.2,7.2,6.4l312.3,62.5c3.3.6,6.5-1.5,7-4.8s.7-4.4.7-4.6c1.3-7.1-1.9-7.8-5-8.4l-281-51.7c-1.4-.2-1.8-.4-4.1.6s-5.5.2-10.5-.5-3.6-.7-5.4-1.1c-3.1-.8-4.1-2.4-1.7-4.5s3.4-2.1,5.7-2.9,1.3-2.7-.3-2.9l-4.6-.7Z"/>
  <circle class="st0" cx="337.4" cy="330.8" r="9"/>
</svg>