<?xml version="1.0" encoding="UTF-8"?>
<svg id="a" xmlns="http://www.w3.org/2000/svg" viewBox="0 0 360 360">
<defs>
<style>.b{stroke-width:.83px;}.b,.c,.d,.e{stroke:#318d43;}.b,.d,.e{stroke-miterlimit:10;}.b,.e{fill:#318d43;}.c{stroke-miterlimit:10;stroke-width:12px;}.c,.d{fill:none;}.d{stroke-width:12px;}.e{stroke-width:4px;}</style>
</defs>
<path class="e" d="M213.96,311.92c-1.92,0-3.59-1.37-3.94-3.28l-12.42-67.32c-.02-.09-.03-.19-.04-.28-.67-5.96,1.08-11.78,4.92-16.39s9.24-7.38,15.22-7.81l26.26-1.87-9.45-37.67c-21.81-33.64-60.62-74.63-61.02-75.04-1.3-1.37-1.47-3.47-.4-5.03,3.56-5.2,9.11-8.49,15.25-9.02,6.39-.55,12.77,1.91,17.48,6.76,13.3,13.68,23.44,28.39,30.15,38.13,2.29,3.32,4.64,6.73,5.92,8.27,3.79-.43,12.11-1.18,21.29-1.69,1.17-.06,4.75-.26,7.72-8.07,1.43-3.77,2.98-8.31,4.61-13.13,4.97-14.64,11.15-32.87,20.82-49.56,2.92-5.04,7.55-8.54,13.04-9.87,5.6-1.34,11.46-.3,16.51,2.96l1.95,1.26c.94.61,1.59,1.58,1.78,2.68.19,1.11-.09,2.24-.77,3.13-.21.28-21.55,28.75-37.39,89.25l7.94,57.6c1.32,6.64.65,13.4-1.93,19.64l6.27,27.47,5.56-4.9c10.77-9.9,27.65-9.81,38.38.26l1.85,1.73c.78.73,1.24,1.75,1.27,2.82s-.38,2.11-1.12,2.89l-29.27,30.42c-5.39,5.6-12.93,8.81-20.7,8.81-9.89,0-17.64-5.05-23.04-15-5.86-10.79-11.54-25.51-14.89-34.75-9.13-.23-21.14-.65-27.76-.88l3.91,23.82c.47,2.84.62,5.19.5,7.38-.85,14.59-10.79,25.4-24.19,26.28h-.27,0ZM205.52,240l11.69,63.33c8.49-2.25,12.74-10.37,13.2-18.17.09-1.59-.04-3.38-.4-5.62l-4.71-28.66c-.2-1.19.15-2.4.95-3.31.8-.9,1.96-1.38,3.16-1.36.22,0,22.27.83,35.3,1.13,1.66.04,3.14,1.1,3.69,2.67,3.07,8.63,9.13,24.81,15.31,36.21,4,7.37,9.08,10.8,15.99,10.8,5.6,0,11.03-2.31,14.91-6.35l26.41-27.45c-7.69-6.19-18.99-5.92-26.36.86l-10.69,9.42c-1.06.93-2.55,1.24-3.89.81-1.35-.44-2.37-1.55-2.68-2.93l-8.06-35.32c-.2-.86-.11-1.78.26-2.59,2.34-5.07,2.99-10.64,1.89-16.09-.02-.08-.03-.17-.04-.25l-8.06-58.52c-.07-.52-.04-1.05.09-1.56,13.25-50.99,30.08-79.62,36.43-89.23-2.77-1.33-5.79-1.69-8.66-1-3.34.8-6.17,2.97-7.98,6.09-9.27,16-15.31,33.8-20.16,48.11-1.66,4.89-3.22,9.51-4.71,13.41-3.2,8.41-8.17,12.87-14.78,13.23-10.63.59-20.25,1.52-22.21,1.83-3.51.56-5.15-1.83-12.07-11.87-6.56-9.51-16.47-23.89-29.3-37.08-3.03-3.12-7.04-4.7-11.04-4.36-2.74.24-5.23,1.34-7.24,3.17,9.06,9.76,40.89,44.74,59.83,74.13.24.37.41.77.52,1.2l10.78,42.96c.29,1.15.05,2.37-.64,3.33-.7.96-1.78,1.57-2.96,1.65l-31.04,2.21c-3.78.27-7.2,2.02-9.62,4.94-2.4,2.88-3.5,6.51-3.12,10.23h.01Z"/>
<path class="e" d="M98.24,225.14c1.99-.11,4.66-.31,8.15-.62,1.15-3.31,1.68-5.17,1.71-5.26l7.73,2.15c-.06.21-.27.97-.67,2.22,4.76-.52,10.46-1.21,17.26-2.11l-5.96,18.73c-1.25,3.95-1.62,7.77-1.09,11.44,2.94,19.66,13.64,23.55,22.1,23.34h.09c1.77-.08,3.28-1.31,3.71-3.04l16.46-65.95c.07-.29.11-.59.12-.89.12-5.8-2.06-11.26-6.16-15.36-4.1-4.11-9.55-6.31-15.35-6.2l-25.37.48,5.06-52.84c27.18-12.29,37.7-47.02,41.72-60.32,4.36-14.38.02-27.4-11.59-34.82-1.06-.68-2.36-.82-3.54-.39s-2.08,1.38-2.46,2.57c-5.76,18.48-13.51,36.47-21.82,50.67-3.84,6.57-10.33,11.22-17.78,12.75l-26.44,5.43c-5.74.93-11.32,3.13-16.14,6.37l-20.3,13.64-30.23-20.69c-1.79-1.23-4.22-.81-5.5.93-4.64,6.3-6.36,13.07-4.99,19.57,1.62,7.67,7.31,14.5,16.44,19.76l15.42,10.52.29.18c9.09,5.19,15.69,4.75,24.3-1.62l8.94-5.69-4.37,39.65c-1.25,11.31,3.4,22.04,11.57,28.81.51-1.65.74-2.49.75-2.54l7.77,2.02c-.07.27-.5,1.89-1.48,4.93.57.26,1.15.5,1.73.72.89.34,1.83.56,2.77.7l4.58.64c.85.12,1.71.15,2.56.1v.02ZM80.47,135.44l-21.48,13.66-.27.19c-6.04,4.5-9.26,4.76-15.48,1.24,0,0-.02,0-.03-.02l-15.39-10.49-.3-.18c-7.06-4.05-11.57-9.2-12.7-14.53-.65-3.08-.2-6.24,1.35-9.45.1-.21.38-.29.57-.15l28.65,19.61c1.36.93,3.14.94,4.51.02l22.56-15.16c3.86-2.6,8.34-4.36,13.11-5.14l26.61-5.46c9.68-1.99,18.1-8.02,23.1-16.56,7.67-13.11,14.87-29.3,20.55-46.14.09-.28.45-.36.65-.14,6.56,7.24,5.23,16.48,3.6,21.86-3.83,12.65-14.01,46.24-39.27,56.14-1.41.55-2.39,1.85-2.53,3.36l-5.39,56.24-.33,3.46c-.17,1.73.8,3.44,2.56,4.14.5.2,1.04.27,1.58.26h0l29.8-.56c3.6-.07,6.98,1.3,9.52,3.84,2.43,2.43,3.77,5.63,3.82,9.05,0,.04,0,.07,0,.11l-15.43,61.83c-.05.2-.25.33-.45.29-4.27-.9-8.85-4.41-10.62-16.28-.35-2.38-.08-5,.81-7.77l7.88-24.77c.42-1.31.13-2.75-.76-3.8-.81-.96-2.02-1.48-3.26-1.42-.12,0-.24.02-.36.03-27.09,3.73-38.7,4.44-42.77,4.54h-.08c-.21-.04-.43-.08-.66-.14-11.71-2.8-19.52-14.18-18.16-26.47l5.05-45.86.18-3.86c.02-.5.03-1,0-1.5l-.13-3.65c.01-.31-.33-.51-.6-.34"/>
<path class="e" d="M41.14,314.98l6.29,4.57c51.74-35.71,64.61-87.63,67.71-96.67-3.38.36-6.29.63-8.78.85-4.62,12.19-20.75,62.84-65.22,91.24h0Z"/>
<path class="b" d="M108.1,219.02c-.02.09-.55,1.95-1.71,5.26,2.49-.23,5.39-.52,8.77-.89.39-1.25.61-2.01.67-2.22l-7.73-2.15Z"/>
<path class="e" d="M39.67,316.55l7.08,3.46c26.42-45.84,36.37-87.55,39.92-97.59-2.55-1.06-4.91-2.44-7.02-4.05-2.65,7.77-11.58,48.91-39.4,97.18l-.58,1Z"/>
<path class="b" d="M80.39,215.83s-.24.89-.75,2.54c2.12,1.76,4.48,3.25,7.04,4.41.98-3.04,1.41-4.66,1.48-4.93,0,0-7.77-2.02-7.77-2.02Z"/>
<ellipse class="c" cx="95.44" cy="87.7" rx="19.06" ry="20.77" transform="translate(-3.97 4.52) rotate(-2.66)"/>
<ellipse class="d" cx="253.97" cy="120.95" rx="19.26" ry="20.99"/>
</svg>