<?xml version="1.0" encoding="UTF-8" standalone="no"?>
<!DOCTYPE svg PUBLIC "-//W3C//DTD SVG 1.1//EN" "http://www.w3.org/Graphics/SVG/1.1/DTD/svg11.dtd">
<svg width="100%" height="100%" viewBox="0 0 360 360" version="1.1" xmlns="http://www.w3.org/2000/svg" xmlns:xlink="http://www.w3.org/1999/xlink" xml:space="preserve" xmlns:serif="http://www.serif.com/" style="fill-rule:evenodd;clip-rule:evenodd;stroke-linecap:round;stroke-linejoin:round;stroke-miterlimit:10;">
    <g id="Layer-1" serif:id="Layer 1">
    </g>
    <g id="Color-Palette" serif:id="Color Palette">
        <g transform="matrix(1,0,0,1,321.292,216.826)">
            <path d="M0,-11.009C13.297,-24.306 13.297,-45.866 0,-59.163L-63.381,-122.545C-76.679,-135.842 -98.238,-135.842 -111.536,-122.545L-198.4,-35.681C-209.2,-24.881 -211.487,-8.21 -203.994,5.1L-194.412,22.122C-188.038,33.444 -189.983,47.626 -199.171,56.814L-243.811,101.454C-247.377,105.021 -247.377,110.802 -243.811,114.369L-236.913,121.266C-233.347,124.833 -227.565,124.833 -223.999,121.266L-179.359,76.626C-170.171,67.438 -155.989,65.493 -144.667,71.867L-127.644,81.449C-114.335,88.942 -97.664,86.655 -86.864,75.855" style="fill:none;fill-rule:nonzero;stroke:rgb(49,141,67);stroke-width:12px;"/>
        </g>
        <g transform="matrix(0.707107,0.707107,0.707107,-0.707107,140.616,258.274)">
            <path d="M-4.886,-11.797L28.479,-11.797" style="fill:none;fill-rule:nonzero;stroke:rgb(49,141,67);stroke-width:12px;"/>
        </g>
        <g transform="matrix(0.707107,0.707107,0.707107,-0.707107,120.443,282.518)">
            <path d="M-3.694,-8.918L21.53,-8.918" style="fill:none;fill-rule:nonzero;stroke:rgb(49,141,67);stroke-width:12px;"/>
        </g>
        <g transform="matrix(0.707087,0.707127,0.707127,-0.707087,100.271,302.691)">
            <path d="M-3.694,-8.919L21.53,-8.919" style="fill:none;fill-rule:nonzero;stroke:rgb(49,141,67);stroke-width:12px;"/>
        </g>
        <g transform="matrix(1,0,0,1,211.869,260.555)">
            <path d="M0,-197.922L-69.566,-236.632C-85.998,-245.776 -106.732,-239.868 -115.876,-223.435L-175.609,-116.091C-183.035,-102.745 -180.666,-86.086 -169.813,-75.339L-155.932,-61.595C-146.699,-52.452 -144.683,-38.28 -151.001,-26.926L-181.698,28.239C-184.151,32.646 -182.566,38.206 -178.159,40.659L-169.635,45.402C-165.228,47.854 -159.667,46.27 -157.215,41.863L-126.518,-13.302C-120.2,-24.656 -104.062,-30.95 -91.426,-27.923" style="fill:none;fill-rule:nonzero;stroke:rgb(49,141,67);stroke-width:12px;"/>
        </g>
        <g transform="matrix(0.873823,0.486243,0.486243,-0.873823,70.2209,215.65)">
            <path d="M-2.105,-8.112L31.261,-8.112" style="fill:none;fill-rule:nonzero;stroke:rgb(49,141,67);stroke-width:12px;"/>
        </g>
        <g transform="matrix(0.87383,0.486232,0.486232,-0.87383,58.4945,244.038)">
            <path d="M-1.591,-6.133L23.633,-6.133" style="fill:none;fill-rule:nonzero;stroke:rgb(49,141,67);stroke-width:12px;"/>
        </g>
        <g transform="matrix(0.87383,0.486232,0.486232,-0.87383,44.6225,268.968)">
            <path d="M-1.591,-6.133L23.633,-6.133" style="fill:none;fill-rule:nonzero;stroke:rgb(49,141,67);stroke-width:12px;"/>
        </g>
        <g transform="matrix(0,-1,-1,0,289.261,225.499)">
            <ellipse cx="-37.64" cy="0" rx="37.639" ry="37.64" style="fill:none;stroke:rgb(49,141,67);stroke-width:12px;"/>
        </g>
    </g>
</svg>
