<?xml version="1.0" encoding="UTF-8"?>
<svg id="b" xmlns="http://www.w3.org/2000/svg" viewBox="0 0 360 360">
<defs>
<style>.c{fill:none;stroke:#318d43;stroke-linecap:round;stroke-linejoin:round;stroke-width:13.68px;}</style>
</defs>
<path class="c" d="M183.56,151.53c-.24,35.76,52.86,34.74,55.13,77.34.92,14.43-14.05,4.3-10.98,43.2"/>
<path class="c" d="M96.5,234.71l27.37-3.33c-12.69-32.39-19.56-106.66,23.79-150.41"/>
<path class="c" d="M238.06,74.47c2.5-6.3,13.6-18.39,19.08-21.42"/>
<path class="c" d="M187.25,109.61c-2.29,3.37-3.72,7.38-3.97,11.75-.73,12.83,9.51,23.93,21.15,24.6,9.96.58,12.51,2.06,17.66,4.94,15.41,8.6,19.52,21.23,22.27,21.83,2.75.6,27.13-5.71,27.13-25.61,0-15.66-20.18-26.03-21.18-39.14-1-13.12-.28-26.5-18.23-37.99-3.44-2.2-7.2-4.15-11.2-5.81"/>
<path class="c" d="M135.85,272.07c1.7-34.46-7.77-29.51-11.97-40.69"/>
<path class="c" d="M112.69,292.82h138.04c13.81,0,25.02,11.21,25.02,25.02v7.45H87.68v-7.45c0-13.81,11.21-25.02,25.02-25.02Z"/>
<path class="c" d="M96.5,234.71s-13.38-24.53-12.18-83.35c1.32-64.94,45.89-120.83,108.08-120.65,24.27.07,46.73,8.16,65.08,21.86"/>
<path class="c" d="M112.69,288.73v-7.09c0-5.29,4.29-9.57,9.57-9.57h118.9c5.29,0,9.57,4.29,9.57,9.57v7.09"/>
</svg>
