<?xml version="1.0" encoding="UTF-8"?><svg id="a" xmlns="http://www.w3.org/2000/svg" viewBox="0 0 360 360"><defs><style>.c{fill:#318d43;}.c,.d{stroke-width:0px;}.d{fill:#318d43;}</style></defs><path class="d" d="M171.33,177.86h72.13c-.21-20.97.14-102.72,0-116.45-.24-24.47-9.22-29.75-16.57-29.67-7.34.08-15.49,5.5-15.25,29.97v89.09c0,8.3-2.72,11.17-5.99,11.17s-6.48-3.44-6.48-11.17c-.21-20.98.14-92.26,0-105.99-.24-24.47-9.22-29.75-16.57-29.67-7.34.08-15.49,5.5-15.24,29.97v105.69c0,8.3-2.73,11.17-6,11.17s-6.61-3.44-6.61-11.17c-.21-20.98.27-75.66.13-89.39-.25-24.47-9.22-29.75-16.57-29.67-7.34.08-15.49,5.5-15.25,29.97v122.66c0,8.3-3.29,11.17-6.56,11.17s-5.91-3.44-5.91-11.17c-.21-20.98.14-78.25,0-91.98-.24-24.48-9.22-29.75-16.57-29.68-7.34.08-15.49,5.5-15.25,29.98v143.32c0,28.21,8.15,72.9,51.81,91.56v-72.6l45.48-45.48c-5.6-13.64-4.73-31.64-4.73-31.64"/><polygon class="c" points="181.53 274.43 166.14 274.43 166.14 333.74 177.94 333.74 198.49 333.74 198.49 274.43 181.53 274.43"/><path class="c" d="M262.6,187.87h-78.98s-1.53,13.93,9.75,27.75c.82,1.01,1.54,2.02,2.51,3.03l36.85,36.5,1.4,1.39v73.16c24.74-9.52,45.14-50.16,45.14-85.4v-28.21c0-16.67-3.85-28.21-16.67-28.21"/></svg>