<?xml version="1.0" encoding="UTF-8"?><svg id="a" xmlns="http://www.w3.org/2000/svg" viewBox="0 0 1546.24 323.16"><text transform="translate(300.16 303.77)" fill="#231f20" font-family="RobotoSlab-Regular, &apos;Roboto Slab&apos;" font-size="76.35"><tspan x="0" y="0">Salt </tspan><tspan x="157.7" y="0" letter-spacing="0em">L</tspan><tspan x="203.56" y="0">a</tspan><tspan x="245.76" y="0" letter-spacing="-.03em">k</tspan><tspan x="291.51" y="0">e City</tspan></text><path d="M5.69,113.39v-16.79h40.73l1.14,13.64c3.31-4.96,7.45-8.79,12.45-11.5,4.99-2.7,10.76-4.05,17.31-4.05s12.27,1.46,16.98,4.39c4.71,2.92,8.27,7.34,10.68,13.26,3.18-5.53,7.31-9.85,12.4-12.97,5.09-3.11,11.07-4.67,17.94-4.67,10.17,0,18.2,3.52,24.08,10.54,5.88,7.03,8.82,17.73,8.82,32.1v42.92l13.45,2.86v16.7h-53.32v-16.7l12.02-2.86v-43.02c0-7.82-1.27-13.26-3.82-16.31-2.55-3.05-6.33-4.58-11.35-4.58-3.94,0-7.36.88-10.25,2.63-2.9,1.75-5.2,4.18-6.92,7.3,0,1.21.03,2.24.1,3.1.06.86.1,1.73.1,2.62v48.27l11.25,2.86v16.7h-50.27v-16.7l11.26-2.86v-43.02c0-7.63-1.27-13.02-3.82-16.17s-6.36-4.72-11.45-4.72c-3.75,0-7.05.72-9.87,2.15-2.83,1.43-5.17,3.45-7.01,6.06v55.71l12.02,2.86v16.7H7.12v-16.7l13.45-2.86v-64.01l-14.88-2.86Z" fill="#000" stroke-width="0"/><path d="M292.05,113.39l-9.63,1.43-37.96,100.45c-2.99,7.44-6.98,13.67-11.97,18.7-4.99,5.02-12.51,7.53-22.56,7.53-2.35,0-4.56-.19-6.63-.57-2.07-.38-4.5-.92-7.3-1.62l3.24-20.32c.89.13,1.81.25,2.77.38.95.13,1.78.19,2.48.19,4.64,0,8.21-1.13,10.68-3.39,2.48-2.26,4.39-5.07,5.73-8.44l3.15-7.82-32.72-84.99-9.63-1.53v-16.79h50.56v16.79l-11.54,1.91,14.12,41.21,1.43,7.44.57.1,16.31-48.74-11.64-1.91v-16.79h50.56v16.79Z" fill="#000" stroke-width="0"/><polygon points="300.78 77.72 300.78 60.93 358.3 60.93 358.3 77.72 343.42 80.58 343.42 120.64 400.08 120.64 400.08 80.58 385.2 77.72 385.2 60.93 400.08 60.93 427.84 60.93 442.72 60.93 442.72 77.72 427.84 80.58 427.84 180.26 442.72 183.12 442.72 199.82 385.2 199.82 385.2 183.12 400.08 180.26 400.08 142.11 343.42 142.11 343.42 180.26 358.3 183.12 358.3 199.82 300.78 199.82 300.78 183.12 315.57 180.26 315.57 80.58 300.78 77.72" fill="#000" stroke-width="0"/><path d="M478.11,149.26c0,9.41,1.65,16.97,4.96,22.66,3.31,5.69,8.65,8.54,16.03,8.54s12.45-2.86,15.79-8.58c3.34-5.72,5.01-13.26,5.01-22.61v-2c0-9.16-1.69-16.63-5.06-22.42-3.37-5.79-8.68-8.68-15.93-8.68s-12.53,2.89-15.84,8.68c-3.31,5.79-4.96,13.26-4.96,22.42v2ZM450.26,147.26c0-15.39,4.31-28,12.92-37.82,8.62-9.82,20.53-14.74,35.73-14.74s27.2,4.9,35.82,14.69c8.61,9.79,12.92,22.42,12.92,37.87v2c0,15.52-4.31,28.16-12.92,37.92-8.62,9.77-20.49,14.65-35.63,14.65s-27.3-4.88-35.92-14.65c-8.62-9.76-12.92-22.4-12.92-37.92v-2Z" fill="#000" stroke-width="0"/><path d="M558.39,113.39v-16.79h40.73l1.14,13.64c3.31-4.96,7.45-8.79,12.45-11.5,4.99-2.7,10.76-4.05,17.31-4.05s12.27,1.46,16.98,4.39c4.71,2.92,8.27,7.34,10.68,13.26,3.18-5.53,7.31-9.85,12.4-12.97,5.09-3.11,11.07-4.67,17.94-4.67,10.17,0,18.2,3.52,24.08,10.54,5.88,7.03,8.82,17.73,8.82,32.1v42.92l13.45,2.86v16.7h-53.32v-16.7l12.02-2.86v-43.02c0-7.82-1.27-13.26-3.82-16.31-2.55-3.05-6.33-4.58-11.35-4.58-3.94,0-7.36.88-10.25,2.63-2.9,1.75-5.2,4.18-6.92,7.3,0,1.21.03,2.24.1,3.1.06.86.09,1.73.09,2.62v48.27l11.26,2.86v16.7h-50.27v-16.7l11.25-2.86v-43.02c0-7.63-1.27-13.02-3.82-16.17-2.55-3.15-6.36-4.72-11.45-4.72-3.75,0-7.05.72-9.87,2.15-2.83,1.43-5.17,3.45-7.01,6.06v55.71l12.02,2.86v16.7h-53.23v-16.7l13.45-2.86v-64.01l-14.88-2.86Z" fill="#000" stroke-width="0"/><path d="M784.79,116.16c-5.15,0-9.22,1.97-12.21,5.92-2.99,3.94-4.83,9.13-5.53,15.55l.29.48h34.15v-2.48c0-5.91-1.38-10.64-4.15-14.16-2.77-3.53-6.95-5.3-12.55-5.3M787.26,201.82c-14.88,0-26.77-4.77-35.68-14.31-8.9-9.54-13.35-21.65-13.35-36.35v-3.82c0-15.32,4.21-27.95,12.64-37.87,8.43-9.92,19.73-14.85,33.91-14.78,13.93,0,24.74,4.19,32.43,12.59,7.69,8.39,11.54,19.74,11.54,34.05v15.17h-61.62l-.19.57c.51,6.81,2.78,12.4,6.82,16.79,4.04,4.39,9.52,6.58,16.45,6.58,6.17,0,11.29-.62,15.36-1.86,4.07-1.24,8.52-3.2,13.36-5.87l7.54,17.17c-4.26,3.37-9.78,6.2-16.55,8.49-6.78,2.29-14.33,3.44-22.66,3.44" fill="#000" stroke-width="0"/><path d="M883.62,74.07v22.53h18.13v19.55h-18.13v52.56c0,4,.83,6.87,2.48,8.58,1.65,1.72,3.88,2.58,6.68,2.58,1.91,0,3.58-.08,5.01-.24,1.43-.16,3.03-.43,4.82-.81l2.38,20.13c-3.11.95-6.2,1.67-9.25,2.14-3.05.48-6.36.72-9.92.72-9.6,0-16.99-2.64-22.18-7.92-5.18-5.28-7.78-13.64-7.78-25.09v-52.66h-15.17v-19.55h15.17v-22.53h27.76Z" fill="#000" stroke-width="0"/><path d="M940.97,149.26c0,9.41,1.65,16.97,4.96,22.66,3.31,5.69,8.65,8.54,16.03,8.54s12.45-2.86,15.79-8.58c3.34-5.72,5.01-13.26,5.01-22.61v-2c0-9.16-1.69-16.63-5.05-22.42-3.37-5.79-8.68-8.68-15.93-8.68s-12.53,2.89-15.84,8.68c-3.31,5.79-4.96,13.26-4.96,22.42v2ZM913.11,147.26c0-15.39,4.31-28,12.92-37.82,8.62-9.82,20.53-14.74,35.73-14.74s27.2,4.9,35.82,14.69c8.61,9.79,12.92,22.42,12.92,37.87v2c0,15.52-4.31,28.16-12.92,37.92-8.62,9.77-20.49,14.65-35.63,14.65s-27.3-4.88-35.92-14.65c-8.62-9.76-12.92-22.4-12.92-37.92v-2Z" fill="#000" stroke-width="0"/><polygon points="1166.02 113.39 1155.62 114.73 1134.06 199.82 1110.79 199.82 1091.62 138.39 1091.04 138.39 1071.87 199.82 1048.69 199.82 1027.04 114.73 1016.64 113.39 1016.64 96.6 1063.38 96.6 1063.38 113.39 1052.41 115.49 1062.14 162.71 1062.71 162.71 1081.98 96.6 1100.68 96.6 1120.14 162.9 1120.71 162.9 1130.34 115.59 1119.28 113.39 1119.28 96.6 1166.02 96.6 1166.02 113.39" fill="#000" stroke-width="0"/><path d="M1179.75,183.12l13.35-2.86v-64.01l-14.79-2.86v-16.79h40.73l1.24,14.79c3.44-5.28,7.66-9.38,12.69-12.31,5.02-2.92,10.65-4.39,16.88-4.39,10.43,0,18.57,3.28,24.42,9.82,5.85,6.55,8.77,16.82,8.77,30.81v44.93l13.35,2.86v16.69h-53.23v-16.69l11.92-2.86v-44.84c0-6.93-1.4-11.84-4.2-14.74-2.8-2.89-7.03-4.34-12.69-4.34-3.69,0-7,.75-9.92,2.24-2.93,1.5-5.37,3.61-7.35,6.34v55.33l11.26,2.86v16.69h-52.46v-16.69Z" fill="#000" stroke-width="0"/><path d="M1473.72,133.73h60.11v64.7h-60.11v-64.7ZM1404.59,10.13l.05,64.44h69.09l-54.84,58.88h-14.42v65.29h-59.98v-66.38l60.15-57.78-60.15.05V10.13h60.11ZM1533.83,10.13v123.8l-60.11-59.36V10.13h60.11Z" fill="#308d43" stroke-width="0"/></svg>