<?xml version="1.0" encoding="UTF-8"?><svg id="a" xmlns="http://www.w3.org/2000/svg" viewBox="0 0 490 600"><polygon points="244.94 0 0 201.28 0 600 490 600 490 201.28 244.94 0" fill="#fff" stroke-width="0"/><path d="M47.22,251.83v-11.73h28.46l.8,9.53c2.31-3.46,5.21-6.14,8.7-8.03,3.49-1.88,7.52-2.83,12.1-2.83s8.58,1.02,11.86,3.07c3.29,2.05,5.78,5.13,7.46,9.27,2.22-3.87,5.11-6.89,8.66-9.07,3.56-2.17,7.73-3.27,12.53-3.27,7.11,0,12.72,2.46,16.83,7.37,4.11,4.91,6.16,12.39,6.16,22.43v30l9.4,2v11.67h-37.26v-11.67l8.4-2v-30.06c0-5.47-.89-9.27-2.66-11.4-1.78-2.13-4.42-3.2-7.93-3.2-2.75,0-5.14.61-7.16,1.83-2.03,1.22-3.63,2.93-4.84,5.1,0,.84.02,1.57.07,2.17.04.6.07,1.21.07,1.83v33.73l7.86,2v11.67h-35.12v-11.67l7.86-2v-30.06c0-5.33-.89-9.1-2.66-11.3-1.78-2.2-4.44-3.3-8-3.3-2.62,0-4.92.5-6.9,1.5-1.98,1-3.61,2.41-4.9,4.23v38.93l8.4,2v11.67h-37.19v-11.67l9.4-2v-44.73l-10.4-2Z" fill="#308d43" stroke-width="0"/><path d="M247.29,251.83l-6.73,1-26.53,70.19c-2.09,5.2-4.88,9.55-8.36,13.07-3.49,3.51-8.75,5.27-15.76,5.27-1.64,0-3.19-.13-4.63-.4-1.44-.27-3.14-.64-5.1-1.13l2.27-14.2c.62.09,1.26.18,1.93.27s1.24.13,1.73.13c3.24,0,5.73-.79,7.46-2.37,1.73-1.58,3.07-3.54,4-5.9l2.2-5.47-22.86-59.39-6.73-1.07v-11.73h35.32v11.73l-8.06,1.33,9.86,28.8,1,5.2.4.07,11.4-34.06-8.13-1.33v-11.73h35.32v11.73Z" fill="#308d43" stroke-width="0"/><polygon points="44.07 353.09 44.07 341.35 84.26 341.35 84.26 353.09 73.86 355.09 73.86 383.08 113.45 383.08 113.45 355.09 103.05 353.09 103.05 341.35 113.45 341.35 132.85 341.35 143.24 341.35 143.24 353.09 132.85 355.09 132.85 424.75 143.24 426.74 143.24 438.41 103.05 438.41 103.05 426.74 113.45 424.75 113.45 398.08 73.86 398.08 73.86 424.75 84.26 426.74 84.26 438.41 44.07 438.41 44.07 426.74 54.4 424.75 54.4 355.09 44.07 353.09" fill="#308d43" stroke-width="0"/><path d="M167.97,403.08c0,6.58,1.16,11.86,3.47,15.83,2.31,3.98,6.04,5.97,11.2,5.97s8.69-2,11.03-6c2.33-4,3.5-9.27,3.5-15.8v-1.4c0-6.4-1.18-11.62-3.53-15.66-2.36-4.04-6.06-6.07-11.13-6.07s-8.76,2.02-11.06,6.07c-2.31,4.04-3.47,9.26-3.47,15.66v1.4ZM148.51,401.68c0-10.75,3.01-19.57,9.03-26.43,6.02-6.87,14.34-10.3,24.96-10.3s19,3.42,25.03,10.27c6.02,6.84,9.03,15.66,9.03,26.46v1.4c0,10.84-3.01,19.67-9.03,26.5-6.02,6.82-14.32,10.23-24.89,10.23s-19.07-3.41-25.09-10.23c-6.02-6.82-9.03-15.65-9.03-26.5v-1.4Z" fill="#308d43" stroke-width="0"/><path d="M224.06,378.02v-11.73h28.46l.8,9.53c2.31-3.46,5.21-6.14,8.7-8.03,3.49-1.88,7.52-2.83,12.1-2.83s8.58,1.02,11.86,3.07c3.29,2.05,5.78,5.13,7.46,9.27,2.22-3.87,5.11-6.89,8.66-9.07,3.56-2.17,7.73-3.27,12.53-3.27,7.11,0,12.72,2.46,16.83,7.37,4.11,4.91,6.16,12.39,6.16,22.43v30l9.4,2v11.67h-37.26v-11.67l8.4-2v-30.06c0-5.47-.89-9.27-2.67-11.4-1.78-2.13-4.42-3.2-7.93-3.2-2.75,0-5.14.61-7.16,1.83-2.03,1.22-3.63,2.93-4.84,5.1,0,.84.02,1.57.07,2.17.04.6.07,1.21.07,1.83v33.73l7.86,2v11.67h-35.12v-11.67l7.86-2v-30.06c0-5.33-.89-9.1-2.66-11.3-1.78-2.2-4.44-3.3-8-3.3-2.62,0-4.92.5-6.9,1.5-1.98,1-3.61,2.41-4.9,4.23v38.93l8.4,2v11.67h-37.19v-11.67l9.4-2v-44.73l-10.4-2Z" fill="#308d43" stroke-width="0"/><path d="M382.23,379.95c-3.6,0-6.44,1.38-8.53,4.14-2.09,2.76-3.38,6.38-3.87,10.86l.2.33h23.86v-1.73c0-4.13-.97-7.43-2.9-9.9-1.93-2.47-4.85-3.7-8.76-3.7M383.97,439.81c-10.4,0-18.7-3.33-24.93-10-6.22-6.67-9.33-15.13-9.33-25.4v-2.67c0-10.71,2.94-19.53,8.83-26.47,5.88-6.93,13.79-10.38,23.69-10.33,9.73,0,17.29,2.93,22.66,8.8,5.37,5.87,8.06,13.8,8.06,23.8v10.6h-43.06l-.13.4c.36,4.76,1.95,8.67,4.77,11.73,2.82,3.06,6.65,4.6,11.5,4.6,4.31,0,7.89-.43,10.73-1.3,2.84-.87,5.95-2.23,9.33-4.1l5.27,12c-2.98,2.36-6.83,4.33-11.56,5.93-4.73,1.6-10.01,2.4-15.83,2.4" fill="#308d43" stroke-width="0"/><path d="M74.72,462.74v17.66h12.66v13.66h-12.66v36.73c0,2.8.58,4.8,1.73,6s2.71,1.8,4.66,1.8c1.33,0,2.5-.05,3.5-.16,1-.11,2.12-.3,3.36-.57l1.67,14.06c-2.18.66-4.33,1.17-6.47,1.5-2.13.33-4.44.5-6.93.5-6.71,0-11.88-1.84-15.5-5.53-3.62-3.69-5.43-9.53-5.43-17.53v-36.8h-10.59v-13.66h10.59v-17.66h19.4Z" fill="#308d43" stroke-width="0"/><path d="M114.78,517.2c0,6.58,1.16,11.86,3.47,15.83,2.31,3.98,6.04,5.97,11.2,5.97s8.69-2,11.03-6c2.33-4,3.5-9.27,3.5-15.8v-1.4c0-6.4-1.18-11.62-3.53-15.66-2.36-4.04-6.06-6.07-11.13-6.07s-8.76,2.02-11.06,6.07c-2.31,4.04-3.47,9.26-3.47,15.66v1.4ZM95.32,515.8c0-10.75,3.01-19.57,9.03-26.43,6.02-6.86,14.34-10.3,24.96-10.3s19,3.42,25.03,10.27c6.02,6.84,9.03,15.66,9.03,26.46v1.4c0,10.84-3.01,19.68-9.03,26.5-6.02,6.82-14.32,10.23-24.89,10.23s-19.07-3.41-25.09-10.23c-6.02-6.82-9.03-15.65-9.03-26.5v-1.4Z" fill="#308d43" stroke-width="0"/><polygon points="272.02 492.14 264.75 493.07 249.69 552.53 233.43 552.53 220.03 509.6 219.64 509.6 206.24 552.53 190.04 552.53 174.92 493.07 167.65 492.14 167.65 480.4 200.31 480.4 200.31 492.14 192.64 493.6 199.44 526.6 199.84 526.6 213.3 480.4 226.37 480.4 239.96 526.73 240.36 526.73 247.09 493.67 239.36 492.14 239.36 480.4 272.02 480.4 272.02 492.14" fill="#308d43" stroke-width="0"/><path d="M281.62,540.86l9.33-2v-44.73l-10.33-2v-11.73h28.46l.87,10.33c2.4-3.69,5.36-6.56,8.86-8.6,3.51-2.05,7.44-3.07,11.8-3.07,7.29,0,12.97,2.29,17.06,6.87,4.09,4.58,6.13,11.76,6.13,21.53v31.4l9.33,2v11.67h-37.19v-11.67l8.33-2v-31.33c0-4.84-.98-8.28-2.93-10.3-1.96-2.02-4.91-3.03-8.86-3.03-2.58,0-4.89.52-6.93,1.57-2.05,1.05-3.76,2.52-5.13,4.43v38.66l7.87,2v11.67h-36.66v-11.67Z" fill="#308d43" stroke-width="0"/></svg>