<?xml version="1.0" encoding="utf-8"?>
<!-- Generator: Adobe Illustrator 28.2.0, SVG Export Plug-In . SVG Version: 6.00 Build 0)  -->
<svg version="1.1" id="Layer_1" xmlns="http://www.w3.org/2000/svg" xmlns:xlink="http://www.w3.org/1999/xlink" x="0px" y="0px"
	 viewBox="0 0 1080 1080" style="enable-background:new 0 0 1080 1080;" xml:space="preserve">
<style type="text/css">
	.st0{fill:#020202;}
	.st1{fill:#0E8C46;}
	.st2{fill:#F1F1F2;}
</style>
<path class="st0" d="M501.1,998.63c-59.14-19.01-145.22-54.48-219.27-115.57C188.07,805.73,138.5,707.3,138.5,598.39V69H942.5
	v537.03c0,106.13-49.64,202.45-143.55,278.54c-79.04,64.07-172.24,99.12-220.77,114.33L539.6,1011L501.1,998.63z"/>
<path class="st1" d="M516.23,951.45c-55.02-17.69-134.89-50.55-202.89-106.61C231.37,777.21,188.05,692,188.05,598.39V118.57h704.89
	v487.46c0,90.68-43.28,173.67-125.19,240.04c-72.64,58.88-159.22,91.39-204.36,105.54L539.78,959L516.23,951.45z"/>
<path class="st2" d="M766.28,623.97c0-99.32-81.67-115.81-161-124.32v48.01c60.45,7.05,111.32,19.77,111.32,76.31
	c0,51.46-50.31,86.94-139.55,91.35v-47.23h-22.44c-8.57,0-16.91-0.3-25.09-0.76c-0.54,0-0.83-0.04-0.83-0.04v47.62v44.27v4.23v22.03
	c0,32.53-11.68,71.58-11.68,71.58h71.69c0,0-11.65-32.53-11.65-69.43V759.4C727.86,753.06,766.28,672.04,766.28,623.97"/>
<path class="st2" d="M554.42,643.69c40.17,0,89.64-1.87,89.64-1.87v-49.7c0,0-33.55,10.33-65.72,10.33h-1.3v-33.18h-0.02v-24.59
	v-47.9v-47.57h0.02v-5.49h30.41c33.92,0,67.89,16.78,67.89,16.78V402.8h-98.3h-48.33h-8.29c0,0,8.29,27.87,8.29,53.15v34.88
	c-41.21-7.08-71.14-20.49-71.14-56.84c0-49.33,40.26-87.94,141.42-87.94c107.19,0,156.5,49.37,156.5,49.37v-66.91
	c-36.24-10.11-84.64-26.54-156.5-26.54c-166.79,0-191.1,81.97-191.1,132.02c0,75.66,56.32,95.91,120.82,105.18v59.92
	c-102.7-7.31-184-59.14-184-166.14c0-115.85,102.96-186.85,228.15-186.85c72.79,0,102.48,22.09,102.48,22.09s1.54-47.33,1.54-60.23
	c-23.83,0-48.42-5.97-104.03-5.97c-178.34,0-278.67,112.66-278.67,230.95c0,106.78,72.92,190.28,209.66,208.16
	C518.7,643.04,532.35,643.69,554.42,643.69"/>
<path class="st2" d="M337.09,715.88c38.24,8.96,89.77,37.53,163.34,41.35v-44.82c-109.45-12.78-163.34-65.42-163.34-65.42V715.88z"/>
</svg>
