<?xml version="1.0" encoding="utf-8"?>
<!-- Generator: Adobe Illustrator 27.7.0, SVG Export Plug-In . SVG Version: 6.00 Build 0)  -->
<svg version="1.1" xmlns="http://www.w3.org/2000/svg" xmlns:xlink="http://www.w3.org/1999/xlink" x="0px" y="0px"
	 viewBox="0 0 189 144" style="enable-background:new 0 0 189 144;" xml:space="preserve">
<style type="text/css">
	.st0{fill:#2D903C;}
	.st1{display:none;}
	.st2{display:inline;fill:none;stroke:#00AEEF;stroke-width:0.1324;stroke-miterlimit:10;stroke-dasharray:2.6471,2.6471;}
	.st3{display:inline;fill:none;stroke:#00AEEF;stroke-width:0.1324;stroke-miterlimit:10;}
	.st4{display:inline;fill:#EC008C;}
	.st5{font-family:'Roboto-Regular';}
	.st6{font-size:4.9827px;}
</style>
<g id="Artwork">
	<rect x="11.5" y="97.7" class="st0" width="166" height="4.4"/>
	<g>
		<g>
			<path class="st0" d="M115.1,116.5l-0.6,3c0,0,1.9-0.5,3.2-0.5c1.3,0,1.6,0,1.6,0s0,9.8,0,11.4c0,1.1-0.5,2.3-0.5,2.3h4.2
				c0,0-0.5-1-0.5-2.3c0-1.6,0-11.4,0-11.4s0,0,1.6,0c1.6,0,3.2,0.5,3.2,0.5l-0.6-3H115.1z"/>
			<path class="st0" d="M111.2,125.1c-1-2.7-2-5.6-2.3-6.4c-0.4-1.3,0.2-2.3,0.2-2.3h-1.6h-3.1h-1.6c0,0,0.7,1,0.2,2.3
				c-0.3,0.8-1.3,3.7-2.3,6.4c-0.7,1.9-1.6,4.6-1.8,5.2c-0.4,1.1-1.3,2.3-1.3,2.3h4.2c0,0-0.1-1,0.3-2.3c0.1-0.2,0.2-0.6,0.4-1.1
				h6.9c0.2,0.5,0.3,0.9,0.4,1.1c0.4,1.3,0.3,2.3,0.3,2.3h4.2c0,0-0.9-1.1-1.3-2.3C112.8,129.7,111.8,127,111.2,125.1z M103.3,126.7
				c0.2-0.5,0.4-1.1,0.6-1.6c0.8-2.1,1.6-4.4,2-5.7c0.4,1.3,1.3,3.5,2,5.7c0.2,0.5,0.4,1,0.6,1.6H103.3z"/>
			<path class="st0" d="M32.8,116.3c-5.5,0-7.8,4.3-7.8,8.2c0,3.9,2.3,8.2,7.8,8.2c5.5,0,7.8-4.3,7.8-8.2
				C40.6,120.6,38.3,116.3,32.8,116.3z M32.8,130.3c-3.5,0-4.6-2.9-4.6-5.7s1.2-5.7,4.6-5.7c3.5,0,4.6,2.9,4.6,5.7
				S36.2,130.3,32.8,130.3z"/>
			<path class="st0" d="M152.5,116.3c-5.5,0-7.8,4.3-7.8,8.2c0,3.9,2.3,8.2,7.8,8.2c5.5,0,7.8-4.3,7.8-8.2
				C160.3,120.6,158,116.3,152.5,116.3z M152.5,130.3c-3.5,0-4.6-2.9-4.6-5.7s1.2-5.7,4.6-5.7c3.5,0,4.6,2.9,4.6,5.7
				S155.9,130.3,152.5,130.3z"/>
			<path class="st0" d="M88.5,116.5L88.5,116.5l-6.8,0c0,0,0.5,1.2,0.5,2.3c0,1.1,0,10,0,11.5c0,1.6-0.5,2.3-0.5,2.3h6.8
				c5.5,0,8.2-4.2,8.2-8.1C96.7,120.6,94,116.5,88.5,116.5z M88.5,130.1L88.5,130.1c-1.6,0-3.1,0-3.1,0V119c0,0,1.5,0,3.1,0
				c3.5,0,5,2.7,5,5.5S91.9,130.1,88.5,130.1z"/>
			<path class="st0" d="M77,116.5h-3.8c0,0,0.5,0.8,0.5,2.3c0,1.4,0,8.6,0,8.6l-0.1,0l-6.8-10.9h-3.7c0,0,0.5,1.1,0.5,2.3
				c0,1.2,0,10.5,0,11.6s-0.5,2.3-0.5,2.3h3.8c0,0-0.5-1.1-0.5-2.3c0-1.2,0-8.4,0-8.4l0.1,0l6.8,10.7h3.5c0,0-0.3-1-0.3-2.5
				c0-3.7,0-10.3,0-11.4C76.5,117.2,77,116.5,77,116.5z"/>
			<path class="st0" d="M177.5,118.7c0-1.5,0.5-2.3,0.5-2.3h-3.8c0,0,0.5,0.8,0.5,2.3c0,1.4,0,8.6,0,8.6l-0.1,0l-6.8-10.9h-3.7
				c0,0,0.5,1.1,0.5,2.3c0,1.2,0,10.5,0,11.6s-0.5,2.3-0.5,2.3h3.8c0,0-0.5-1.1-0.5-2.3c0-1.2,0-8.4,0-8.4l0.1,0l6.8,10.7h3.5
				c0,0-0.3-1-0.3-2.5C177.5,126.5,177.5,119.8,177.5,118.7z"/>
			<path class="st0" d="M11,116.5c0,0,0.5,1.2,0.5,2.3c0,0.6,0,4,0,7c0,2,0,3.9,0,4.6c0,1.1-0.5,2.3-0.5,2.3h4.2c0,0-0.5-1-0.5-2.3
				c0-0.6,0-2.7,0-4.8c0,0,1.4,0,2.8,0s2.7,0.3,2.7,0.3v-3.1c0,0-1.6,0.3-2.8,0.3c-1.2,0-2.7,0-2.7,0V119c0,0,4,0,5.8,0
				s2.6,0.7,2.6,0.7l-0.6-3.2H11z"/>
			<path class="st0" d="M59,116.5h-0.5h-0.9h-1.4h-0.9h-0.5c0,0,0.5,1.2,0.5,2.3l0,0v6.8c0,2.9-0.4,4.7-3.8,4.7
				c-3.5,0-3.8-1.9-3.8-4.7v-6.8l0,0c0-1.1,0.5-2.3,0.5-2.3h-0.5H47h-1.8h-0.8H44c0,0,0.5,1.2,0.5,2.3l0,0v6.8
				c0,4.4,1.5,7.2,7.1,7.2c5.5,0,7.1-2.8,7.1-7.2v-6.8l0,0C58.6,117.7,59,116.5,59,116.5z"/>
			<path class="st0" d="M139.4,130c-1.1,0-1.7,0-1.7,0V119c0,0,0.6,0,1.7,0c1.6,0,3.1,0.1,3.1,0.1l-0.5-2.6h-4.2h-3.3h-4.2l-0.5,2.6
				c0,0,1.5-0.1,3.1-0.1c1.1,0,1.7,0,1.7,0V130c0,0-0.5,0-1.7,0c-1.6,0-3.2-0.2-3.2-0.2l0.7,2.7h4.2h3.3h4.2l0.7-2.7
				C142.6,129.8,141,130,139.4,130z"/>
		</g>
		<g>
			<path class="st0" d="M36.6,54.6L35.5,60c0,0,3.5-1,5.7-1s2.9,0,2.9,0s0,17.3,0,20.2c0,2-0.8,4-0.8,4h7.5c0,0-0.8-1.8-0.8-4
				c0-2.8,0-20.2,0-20.2s0,0,2.9,0c2.9,0,5.8,1,5.8,1l-1.1-5.4H36.6z"/>
			<path class="st0" d="M104.8,54.1c-9.9,0-14.1,7.8-14.1,14.8s4.1,14.8,14.1,14.8s14.1-7.8,14.1-14.8S114.7,54.1,104.8,54.1z
				 M104.8,79.2c-6.2,0-8.3-5.1-8.3-10.3c0-5.2,2.1-10.3,8.3-10.3c6.2,0,8.3,5.1,8.3,10.3C113.1,74.1,111,79.2,104.8,79.2z"/>
			<path class="st0" d="M148.7,54.6h-6.8c0,0,0.8,1.5,0.8,4.1c0,2.6,0,15.2,0,15.2l-0.1,0l-12.2-19.3h-6.6c0,0,0.8,1.9,0.8,4.1
				c0,2.1,0,18.6,0,20.6s-0.8,4-0.8,4h6.8c0,0-0.8-2-0.8-4s0-14.9,0-14.9l0.1,0l12.2,19h6.3c0,0-0.5-1.8-0.5-4.4
				c0-6.6,0-18.3,0-20.2C147.9,55.9,148.7,54.6,148.7,54.6z"/>
			<path class="st0" d="M171.1,69c0,0,1.1,2.2,1.1,4.4c0,2.2,0,4.9,0,4.9c-0.4,0.3-1.4,0.5-2.1,0.7c-0.7,0.2-1.7,0.3-2.8,0.3
				c-4.3,0-8-2.4-8-9.6s3.6-10.7,9.1-10.7c5.4,0,8.9,3,8.9,3v-5.2c-2.3-1.5-5.3-2.5-9.3-2.5c-8.1,0-14.5,6-14.5,15.5
				c0,8,5.4,14,13.1,14c2.7,0,5-0.4,6.8-1.1c1.8-0.7,3.1-1.6,4.1-2.5c0,0,0-3.4,0-6.6c0-2.9,1-4.4,1-4.4H171.1z"/>
			<path class="st0" d="M83.1,76.5c-0.4-1.2-1.4-3.5-2.8-4.3c3.1-1.4,5.5-4.3,5.5-8.6c0-5.8-4.4-9-10.4-9H62.2c0,0,0.8,2,0.8,4.1
				c0,2.1,0,18.5,0,20.6c0,2.1-0.8,4-0.8,4h7.4c0,0-0.8-1.9-0.8-4c0-2.1,0-6.1,0-6.1H75c0,0,1.9,4.2,2.6,5.7
				c1.7,3.7,3.8,4.5,6.5,4.5s4.4-1.1,4.4-1.1l-0.9-1.8C86.1,80.7,84.2,79.6,83.1,76.5z M68.8,68.7V59c0,0,3.9,0,6.6,0
				c3,0,4.7,1.7,4.7,4.8c0,2.8-1.7,4.8-4.8,4.8H68.8z"/>
			<path class="st0" d="M17,61.9c0-2.5,2.6-3.5,5.1-3.5c6.1,0,9.4,4.1,9.4,4.1v-5.4c-1.2-1.1-4.2-2.9-9.3-2.9
				c-6.3,0-10.8,3.6-10.8,8c0,9.7,15.6,8.4,15.6,14c0,2.7-2.1,3.3-5.1,3.3c-6.6,0-10.8-4.8-10.8-4.8v5.6c1.2,1.3,5.3,3.5,10.4,3.5
				c5.8,0,10.9-2.1,10.9-7.9C32.6,66,17,67.3,17,61.9z"/>
		</g>
		<g>
			<g>
				<path class="st0" d="M135.9,35.8v-8.2c0,0,2.6,0,5,0c2.4,0,4.8,0.5,4.8,0.5v-5.5c0,0-2.9,0.5-5,0.5c-2.1,0-4.8,0-4.8,0v-7.2
					c0,0,7.2,0,10.4,0c3.2,0,4.7,1.2,4.7,1.2l-1.1-5.7h-20.7c0,0,0.9,2.2,0.9,4.1c0,1.9,0,17.7,0,20.5c0,2.8-0.9,4.1-0.9,4.1H150
					l1.1-5.7c0,0-2.2,1.2-4.7,1.2S135.9,35.8,135.9,35.8z"/>
				<path class="st0" d="M71.6,11.5l-1.1,5.4c0,0,3.5-1,5.7-1c2.3,0,2.9,0,2.9,0s0,17.3,0,20.2c0,2-0.8,4-0.8,4h7.5
					c0,0-0.8-1.8-0.8-4c0-2.8,0-20.2,0-20.2s0,0,2.9,0c2.9,0,5.8,1,5.8,1l-1.1-5.4H71.6z"/>
				<path class="st0" d="M10.9,25.9c0,9.5,7.6,14.8,15.6,14.8c4,0,7.2-1.4,9.3-2.5v-5.2c0,0-3.5,3-8.9,3c-5.5,0-10.2-2.8-10.2-10
					s4.7-10,10.2-10c5.4,0,8.9,3,8.9,3v-5.2c-2-1.1-5.3-2.5-9.3-2.5C18.5,11.1,10.9,16.4,10.9,25.9z"/>
			</g>
			<path class="st0" d="M162.4,18.9c0-2.5,2.6-3.5,5.1-3.5c6.1,0,9.4,4.1,9.4,4.1v-5.4c-1.2-1.1-4.2-2.9-9.3-2.9
				c-6.3,0-10.8,3.6-10.8,8c0,9.7,15.6,8.4,15.6,14c0,2.7-2.1,3.3-5.1,3.3c-6.6,0-10.8-4.8-10.8-4.8v5.6c1.2,1.3,5.3,3.5,10.4,3.5
				c5.8,0,10.9-2.1,10.9-7.9C178,23,162.4,24.2,162.4,18.9z"/>
			<path class="st0" d="M116.8,35.6c-2,0-3,0-3,0V15.9c0,0,1.1,0,3,0c2.9,0,5.5,0.2,5.5,0.2l-1-4.7h-7.5H108h-7.5l-1,4.7
				c0,0,2.6-0.2,5.5-0.2c1.9,0,3,0,3,0v19.7c0,0-1,0-3,0c-2.9,0-5.7-0.3-5.7-0.3l1.2,4.9h7.5h5.8h7.5l1.2-4.9
				C122.5,35.3,119.8,35.6,116.8,35.6z"/>
			<path class="st0" d="M59.2,35.6c-2,0-3,0-3,0V15.9c0,0,1.1,0,3,0c2.9,0,5.5,0.2,5.5,0.2l-1-4.7h-7.5h-5.8h-7.5l-1,4.7
				c0,0,2.6-0.2,5.5-0.2c1.9,0,3,0,3,0v19.7c0,0-1,0-3,0c-2.9,0-5.7-0.3-5.7-0.3l1.2,4.9h7.5h5.8h7.5l1.2-4.9
				C65,35.3,62.2,35.6,59.2,35.6z"/>
		</g>
	</g>
</g>
<g id="Guides" class="st1">
	<line class="st2" x1="0" y1="144" x2="0" y2="0"/>
	<line class="st2" x1="183.3" y1="144" x2="183.3" y2="0"/>
	<line class="st2" x1="177.5" y1="144" x2="177.5" y2="0"/>
	<line class="st2" x1="5.7" y1="144" x2="5.7" y2="0"/>
	<line class="st2" x1="11.5" y1="144" x2="11.5" y2="0"/>
	<line class="st2" x1="0" y1="5.7" x2="189" y2="5.7"/>
	<polyline class="st2" points="0,11.5 129.4,11.5 189,11.5 	"/>
	<line class="st2" x1="0" y1="17.2" x2="189" y2="17.2"/>
	<line class="st2" x1="0" y1="23" x2="189" y2="23"/>
	<line class="st2" x1="0" y1="28.7" x2="189" y2="28.7"/>
	<line class="st2" x1="0" y1="34.5" x2="189" y2="34.5"/>
	<line class="st2" x1="0" y1="40.2" x2="189" y2="40.2"/>
	<line class="st2" x1="0" y1="46" x2="189" y2="46"/>
	<line class="st2" x1="0" y1="51.7" x2="189" y2="51.7"/>
	<line class="st2" x1="0" y1="54.6" x2="189" y2="54.6"/>
	<line class="st2" x1="0" y1="60.3" x2="189" y2="60.3"/>
	<line class="st2" x1="0" y1="66.1" x2="189" y2="66.1"/>
	<line class="st2" x1="0" y1="71.8" x2="189" y2="71.8"/>
	<line class="st2" x1="0" y1="77.6" x2="189" y2="77.6"/>
	<line class="st2" x1="0" y1="83.3" x2="189" y2="83.3"/>
	<line class="st2" x1="0" y1="89.1" x2="189" y2="89.1"/>
	<line class="st2" x1="0" y1="107.9" x2="189" y2="107.9"/>
	<line class="st2" x1="0" y1="113.6" x2="189" y2="113.6"/>
	<line class="st2" x1="0" y1="132.6" x2="189" y2="132.6"/>
	<line class="st2" x1="0" y1="138.3" x2="189" y2="138.3"/>
	<line class="st2" x1="0" y1="116.5" x2="189" y2="116.5"/>
	<line class="st2" x1="0" y1="94.8" x2="189" y2="94.8"/>
	<line class="st2" x1="0" y1="97.7" x2="189" y2="97.7"/>
	<line class="st2" x1="0" y1="102.1" x2="189" y2="102.1"/>
	<rect x="0" y="0" class="st3" width="189" height="144"/>
	<text transform="matrix(1 0 0 1 1.2795 4.8033)" class="st4 st5 st6">X</text>
</g>
</svg>
