<?xml version="1.0" encoding="utf-8"?>
<!-- Generator: Adobe Illustrator 27.7.0, SVG Export Plug-In . SVG Version: 6.00 Build 0)  -->
<svg version="1.1" xmlns="http://www.w3.org/2000/svg" xmlns:xlink="http://www.w3.org/1999/xlink" x="0px" y="0px"
	 viewBox="0 0 288 158.4" style="enable-background:new 0 0 288 158.4;" xml:space="preserve">
<style type="text/css">
	.st0{fill:#2D903C;}
	.st1{display:none;}
	.st2{display:inline;fill:none;stroke:#00AEEF;stroke-width:9.989302e-02;stroke-miterlimit:10;stroke-dasharray:1.9979,1.9979;}
	.st3{display:inline;fill:none;stroke:#00AEEF;stroke-width:0.1013;stroke-miterlimit:10;}
	.st4{display:inline;fill:#EC008C;}
	.st5{font-family:'Roboto-Regular';}
	.st6{font-size:4.6682px;}
	.st7{display:inline;fill:none;stroke:#00AEEF;stroke-width:0.1057;stroke-miterlimit:10;stroke-dasharray:2.1136,2.1136;}
</style>
<g id="Artwork">
	<rect x="82.1" y="115.2" class="st0" width="119.4" height="3.4"/>
	<g>
		<path d="M117.6,10.9v33.5c0,6.7,3.1,12.7,8.9,17.5c4.7,3.9,10.3,6.2,14.1,7.4l1.9,0.6l1.9-0.6c3.1-1,9.1-3.2,14.2-7.3
			c5.8-4.7,8.9-10.6,8.9-17.1v-34H117.6z M140.6,55.1c-5-0.3-8.4-2.2-11-2.8c0-1.1,0-4.7,0-4.7s3.6,3.6,11,4.4V55.1z M126.6,33.2
			c0-8,6.8-15.6,18.8-15.6c3.8,0,5.4,0.4,7,0.4c0,0.9-0.1,4.1-0.1,4.1s-2-1.5-6.9-1.5c-8.5,0-15.4,4.8-15.4,12.6
			c0,7.2,5.5,10.7,12.4,11.2c0-1.4,0-2.7,0-4c-4.4-0.6-8.2-2-8.2-7.1c0-3.4,1.6-8.9,12.9-8.9c4.9,0,8.1,1.1,10.6,1.8
			c0,1.3,0,4.5,0,4.5s-3.3-3.3-10.6-3.3c-6.8,0-9.5,2.6-9.5,5.9c0,2.5,2,3.4,4.8,3.8c0-0.8,0-1.6,0-2.4c0-1.7-0.6-3.6-0.6-3.6h10.5
			v3.9c0,0-2.3-1.1-4.6-1.1c-0.7,0-1.4,0-2.1,0v10.7c2.2,0,4.5-0.7,4.5-0.7v3.4c0,0-3.3,0.1-6.1,0.1c-1.5,0-2.4,0-3.4-0.2
			C131.6,46.1,126.6,40.5,126.6,33.2z M145.7,55.3c0,0.9,0,1.6,0,1.9c0,2.5,0.8,4.7,0.8,4.7h-4.8c0,0,0.8-2.3,0.8-4.8
			c0-0.3,0-6.8,0-8h0c0,0,0.9,0.1,1.7,0.1s1.6,0,1.6,0c0,1.1,0,2.2,0,3.2c6-0.3,9.4-2.7,9.4-6.2c0-3.8-3.4-4.7-7.5-5.2v-3.2
			c5.4,0.6,10.9,1.7,10.9,8.4C158.5,49.4,155.9,54.9,145.7,55.3z"/>
	</g>
	<path class="st0" d="M115.4,8.7v35.7c0,7.4,3.3,14,9.7,19.2c5,4.1,10.8,6.5,14.8,7.8l2.6,0.8l2.6-0.8c3.3-1,9.6-3.4,14.9-7.7
		c6.3-5.1,9.7-11.6,9.7-18.8V8.7H115.4z M166.3,44.9c0,6.1-2.9,11.7-8.5,16.2c-4.9,4-10.8,6.2-13.8,7.1l-1.6,0.5l-1.6-0.5
		c-3.7-1.2-9.1-3.4-13.7-7.2c-5.5-4.6-8.5-10.3-8.5-16.6V12h47.6V44.9z"/>
	<g>
		<path d="M166.5,82.7l-0.8,4.1c0,0,2.6-0.7,4.4-0.7c1.7,0,2.2,0,2.2,0s0,13.1,0,15.3c0,1.5-0.6,3.1-0.6,3.1h5.7
			c0,0-0.6-1.4-0.6-3.1c0-2.1,0-15.3,0-15.3s0,0,2.2,0c2.2,0,4.4,0.7,4.4,0.7l-0.8-4.1H166.5z"/>
		<path d="M221.2,82.3c-7.5,0-10.7,5.9-10.7,11.2c0,5.3,3.1,11.2,10.7,11.2c7.5,0,10.7-5.9,10.7-11.2
			C231.8,88.2,228.7,82.3,221.2,82.3z M221.2,101.3c-4.7,0-6.3-3.9-6.3-7.8s1.6-7.8,6.3-7.8c4.7,0,6.3,3.9,6.3,7.8
			S225.9,101.3,221.2,101.3z"/>
		<path d="M256,82.6h-5.2c0,0,0.6,1.1,0.6,3.1c0,2,0,11.6,0,11.6l-0.1,0l-9.3-14.6h-5c0,0,0.6,1.5,0.6,3.1c0,1.6,0,14.1,0,15.6
			c0,1.5-0.6,3.1-0.6,3.1h5.2c0,0-0.6-1.5-0.6-3.1c0-1.6,0-11.3,0-11.3l0.1,0l9.2,14.4h4.8c0,0-0.4-1.4-0.4-3.4c0-5,0-13.8,0-15.3
			C255.3,83.6,256,82.6,256,82.6z"/>
		<path d="M274.4,93.6c0,0,0.9,1.6,0.9,3.3c0,1.7,0,3.7,0,3.7c-0.3,0.2-1.1,0.4-1.6,0.5c-0.5,0.1-1.3,0.2-2.1,0.2
			c-3.3,0-6-1.8-6-7.3c0-5.4,2.7-8.1,6.9-8.1c4.1,0,6.8,2.2,6.8,2.2v-4c-1.6-0.9-4-1.9-7-1.9c-6.1,0-11,4.6-11,11.8
			c0,6.1,4.1,10.6,9.9,10.6c2.1,0,3.8-0.3,5.1-0.8c1.4-0.6,2.4-1.2,3.1-1.9c0,0,0-2.6,0-5c0-2.2,0.8-3.3,0.8-3.3H274.4z"/>
		<path d="M203.2,99.3c-0.3-0.9-1.1-2.6-2.1-3.3c2.3-1,4.2-3.3,4.2-6.5c0-4.4-3.3-6.8-7.9-6.8h-10c0,0,0.6,1.5,0.6,3.1s0,14,0,15.6
			c0,1.6-0.6,3.1-0.6,3.1h5.6c0,0-0.6-1.4-0.6-3.1c0-1.6,0-4.6,0-4.6h4.7c0,0,1.4,3.1,2,4.3c1.3,2.8,2.9,3.4,4.9,3.4
			c2.1,0,3.3-0.8,3.3-0.8l-0.7-1.4C205.5,102.5,204,101.7,203.2,99.3z M192.4,93.4V86c0,0,3,0,5,0c2.3,0,3.6,1.3,3.6,3.7
			c0,2.1-1.3,3.7-3.6,3.7H192.4z"/>
		<path d="M150.9,88.2c0-1.9,2-2.6,3.9-2.6c4.6,0,7.2,3.1,7.2,3.1v-4.1c-0.9-0.9-3.2-2.2-7.1-2.2c-4.8,0-8.2,2.8-8.2,6.1
			c0,7.4,11.9,6.4,11.9,10.7c0,2-1.6,2.5-3.9,2.5c-5.1,0-8.2-3.7-8.2-3.7v4.2c0.9,1,4,2.7,8,2.7c4.4,0,8.3-1.6,8.3-6.1
			C162.8,91.3,150.9,92.3,150.9,88.2z"/>
	</g>
	<g>
		<path d="M164.1,129.4l-0.6,3c0,0,1.9-0.5,3.2-0.5c1.3,0,1.6,0,1.6,0s0,9.7,0,11.4c0,1.1-0.5,2.2-0.5,2.2h4.1c0,0-0.5-1-0.5-2.2
			c0-1.6,0-11.4,0-11.4s0,0,1.6,0c1.6,0,3.2,0.5,3.2,0.5l-0.6-3H164.1z"/>
		<path d="M160.3,138.1c-1-2.7-2-5.6-2.3-6.4c-0.4-1.3,0.2-2.2,0.2-2.2h-1.6h-3.1h-1.6c0,0,0.7,1,0.2,2.2c-0.3,0.8-1.3,3.7-2.3,6.4
			c-0.7,1.9-1.6,4.6-1.8,5.2c-0.4,1.1-1.3,2.2-1.3,2.2h4.1c0,0-0.1-1,0.3-2.2c0.1-0.2,0.2-0.6,0.4-1.1h6.9c0.2,0.5,0.3,0.9,0.4,1.1
			c0.4,1.3,0.3,2.2,0.3,2.2h4.1c0,0-0.9-1.1-1.3-2.2C161.9,142.7,160.9,139.9,160.3,138.1z M152.5,139.6c0.2-0.5,0.4-1.1,0.6-1.6
			c0.8-2.1,1.6-4.4,2-5.7c0.4,1.2,1.3,3.5,2,5.7c0.2,0.5,0.4,1,0.6,1.6H152.5z"/>
		<path d="M82.1,129.3c-5.5,0-7.8,4.3-7.8,8.2c0,3.9,2.3,8.2,7.8,8.2c5.5,0,7.8-4.3,7.8-8.2C89.9,133.6,87.6,129.3,82.1,129.3z
			 M82.1,143.2c-3.5,0-4.6-2.8-4.6-5.7s1.2-5.7,4.6-5.7c3.5,0,4.6,2.8,4.6,5.7S85.6,143.2,82.1,143.2z"/>
		<path d="M201.4,129.3c-5.5,0-7.8,4.3-7.8,8.2c0,3.9,2.3,8.2,7.8,8.2c5.5,0,7.8-4.3,7.8-8.2C209.3,133.6,207,129.3,201.4,129.3z
			 M201.4,143.2c-3.5,0-4.6-2.8-4.6-5.7s1.2-5.7,4.6-5.7c3.5,0,4.6,2.8,4.6,5.7S204.9,143.2,201.4,143.2z"/>
		<path d="M137.6,129.4L137.6,129.4l-6.8,0c0,0,0.5,1.2,0.5,2.3c0,1.1,0,9.9,0,11.5c0,1.6-0.5,2.3-0.5,2.3h6.8c5.5,0,8.2-4.1,8.2-8
			C145.8,133.6,143.1,129.4,137.6,129.4z M137.6,143L137.6,143c-1.6,0-3.1,0-3.1,0v-11.1c0,0,1.5,0,3.1,0c3.5,0,5,2.7,5,5.5
			S141.1,143,137.6,143z"/>
		<path d="M126.2,129.4h-3.8c0,0,0.5,0.8,0.5,2.3c0,1.4,0,8.6,0,8.6l-0.1,0l-6.8-10.8h-3.7c0,0,0.5,1.1,0.5,2.3c0,1.2,0,10.5,0,11.6
			s-0.5,2.2-0.5,2.2h3.8c0,0-0.5-1.1-0.5-2.2c0-1.2,0-8.4,0-8.4l0.1,0l6.8,10.7h3.5c0,0-0.3-1-0.3-2.5c0-3.6,0-10.3,0-11.3
			C125.7,130.2,126.2,129.4,126.2,129.4z"/>
		<path d="M226.4,131.7c0-1.5,0.5-2.3,0.5-2.3h-3.8c0,0,0.5,0.8,0.5,2.3c0,1.4,0,8.6,0,8.6l-0.1,0l-6.8-10.8h-3.7
			c0,0,0.5,1.1,0.5,2.3c0,1.2,0,10.5,0,11.6s-0.5,2.2-0.5,2.2h3.8c0,0-0.5-1.1-0.5-2.2c0-1.2,0-8.4,0-8.4l0.1,0l6.8,10.7h3.5
			c0,0-0.3-1-0.3-2.5C226.4,139.4,226.4,132.8,226.4,131.7z"/>
		<path d="M60.4,129.4c0,0,0.5,1.2,0.5,2.3c0,0.6,0,4,0,7c0,2,0,3.9,0,4.6c0,1.1-0.5,2.2-0.5,2.2h4.2c0,0-0.5-1-0.5-2.2
			c0-0.6,0-2.7,0-4.8c0,0,1.4,0,2.8,0c1.3,0,2.7,0.3,2.7,0.3v-3.1c0,0-1.6,0.3-2.8,0.3c-1.2,0-2.7,0-2.7,0v-4.1c0,0,4,0,5.8,0
			c1.8,0,2.6,0.7,2.6,0.7l-0.6-3.2H60.4z"/>
		<path d="M108.3,129.4h-0.5h-0.9h-1.4h-0.9h-0.5c0,0,0.5,1.2,0.5,2.3l0,0v6.7c0,2.9-0.4,4.7-3.8,4.7c-3.5,0-3.8-1.9-3.8-4.7v-6.7
			l0,0c0-1.1,0.5-2.3,0.5-2.3h-0.5h-0.7h-1.8h-0.7h-0.5c0,0,0.5,1.2,0.5,2.3l0,0v6.7c0,4.4,1.5,7.2,7,7.2c5.5,0,7-2.8,7-7.2v-6.7
			l0,0C107.8,130.7,108.3,129.4,108.3,129.4z"/>
		<path d="M188.4,142.9c-1.1,0-1.7,0-1.7,0v-11c0,0,0.6,0,1.7,0c1.6,0,3.1,0.1,3.1,0.1l-0.5-2.6h-4.2h-3.3h-4.2l-0.5,2.6
			c0,0,1.4-0.1,3.1-0.1c1.1,0,1.7,0,1.7,0v11c0,0-0.5,0-1.7,0c-1.6,0-3.2-0.2-3.2-0.2l0.7,2.7h4.2h3.3h4.2l0.7-2.7
			C191.6,142.8,190,142.9,188.4,142.9z"/>
	</g>
	<g>
		<g>
			<path d="M103.2,101.1v-6.2c0,0,2,0,3.8,0c1.8,0,3.7,0.4,3.7,0.4v-4.2c0,0-2.2,0.4-3.8,0.4s-3.7,0-3.7,0V86c0,0,5.5,0,7.9,0
				s3.6,0.9,3.6,0.9l-0.8-4.3H98.1c0,0,0.7,1.7,0.7,3.1c0,1.5,0,13.5,0,15.6c0,2.1-0.7,3.1-0.7,3.1h15.8l0.8-4.3
				c0,0-1.7,0.9-3.6,0.9C109.3,101.1,103.2,101.1,103.2,101.1z"/>
			<path d="M54.2,82.6l-0.8,4.1c0,0,2.6-0.7,4.4-0.7s2.2,0,2.2,0s0,13.2,0,15.4c0,1.6-0.6,3.1-0.6,3.1H65c0,0-0.6-1.4-0.6-3.1
				c0-2.2,0-15.4,0-15.4s0,0,2.2,0c2.2,0,4.4,0.7,4.4,0.7l-0.8-4.1H54.2z"/>
			<path d="M54.2,82.6l-0.8,4.1c0,0,2.6-0.7,4.4-0.7s2.2,0,2.2,0s0,13.2,0,15.4c0,1.6-0.6,3.1-0.6,3.1H65c0,0-0.6-1.4-0.6-3.1
				c0-2.2,0-15.4,0-15.4s0,0,2.2,0c2.2,0,4.4,0.7,4.4,0.7l-0.8-4.1H54.2z"/>
			<path d="M8,93.5c0,7.2,5.8,11.2,11.9,11.2c3,0,5.5-1,7.1-1.9v-4c0,0-2.7,2.3-6.8,2.3c-4.2,0-7.8-2.1-7.8-7.6
				c0-5.5,3.6-7.6,7.8-7.6c4.1,0,6.8,2.3,6.8,2.3v-4c-1.6-0.9-4.1-1.9-7.1-1.9C13.7,82.3,8,86.3,8,93.5z"/>
		</g>
		<path d="M123.4,88.2c0-1.9,2-2.6,3.9-2.6c4.6,0,7.2,3.1,7.2,3.1v-4.1c-0.9-0.9-3.2-2.2-7.1-2.2c-4.8,0-8.2,2.8-8.2,6.1
			c0,7.4,11.9,6.4,11.9,10.7c0,2-1.6,2.5-3.9,2.5c-5.1,0-8.2-3.7-8.2-3.7v4.2c0.9,1,4,2.7,8,2.7c4.4,0,8.3-1.6,8.3-6.1
			C135.2,91.3,123.4,92.3,123.4,88.2z"/>
		<path d="M88.6,101c-1.5,0-2.3,0-2.3,0V86c0,0,0.8,0,2.3,0c2.2,0,4.2,0.2,4.2,0.2l-0.7-3.6h-5.7h-4.5h-5.7l-0.7,3.6
			c0,0,2-0.2,4.2-0.2c1.4,0,2.3,0,2.3,0v15c0,0-0.7,0-2.3,0c-2.2,0-4.4-0.3-4.4-0.3l0.9,3.7h5.7h4.5h5.7l0.9-3.7
			C93,100.7,90.9,101,88.6,101z"/>
		<path d="M44.8,101c-1.5,0-2.3,0-2.3,0V86c0,0,0.8,0,2.3,0c2.2,0,4.2,0.2,4.2,0.2l-0.7-3.6h-5.7H38h-5.7l-0.7,3.6
			c0,0,2-0.2,4.2-0.2c1.4,0,2.3,0,2.3,0v15c0,0-0.7,0-2.3,0c-2.2,0-4.4-0.3-4.4-0.3l0.9,3.7H38h4.5h5.7l0.9-3.7
			C49.1,100.7,47,101,44.8,101z"/>
	</g>
</g>
<g id="Safe_Area" class="st1">
	<polyline class="st2" points="0.3,74 71.8,74 287.7,74 	"/>
	<polyline class="st2" points="0.3,78.3 71.8,78.3 287.7,78.3 	"/>
	<polyline class="st2" points="0.3,82.6 71.8,82.6 287.7,82.6 	"/>
	<polyline class="st2" points="0.3,87 71.8,87 287.7,87 	"/>
	<polyline class="st2" points="0.3,91.4 71.8,91.4 287.7,91.4 	"/>
	<polyline class="st2" points="0.3,95.7 71.8,95.7 287.7,95.7 	"/>
	<polyline class="st2" points="0.3,100 71.8,100 287.7,100 	"/>
	<polyline class="st2" points="0.3,104.4 71.8,104.4 287.7,104.4 	"/>
	<polyline class="st2" points="0,108.7 75.9,108.7 287.4,108.7 	"/>
	<polyline class="st2" points="0,113 75.9,113 204.1,113 287.4,113 	"/>
	<polyline class="st2" points="0,115.2 75.9,115.2 204.1,115.2 287.4,115.2 	"/>
	<polyline class="st2" points="0,118.6 75.9,118.6 93,118.6 287.4,118.6 	"/>
	<polyline class="st2" points="0,122.9 75.9,122.9 93,122.9 287.4,122.9 	"/>
	<polyline class="st2" points="0,127.3 61.4,127.3 93,127.3 287.4,127.3 	"/>
	<polyline class="st2" points="0,145.5 61.4,145.5 93,145.5 287.4,145.5 	"/>
	<polyline class="st2" points="0,149.8 61.4,149.8 93,149.8 287.4,149.8 	"/>
	<polyline class="st2" points="0,154.2 61.4,154.2 93,154.2 287.4,154.2 	"/>
	<polyline class="st2" points="0,129.4 75.9,129.4 93,129.4 287.4,129.4 	"/>
	<polyline class="st2" points="0.3,71.8 111.2,71.8 287.7,71.8 	"/>
	<polyline class="st2" points="0.3,8.7 111.2,8.7 287.7,8.7 	"/>
	<polyline class="st2" points="0.3,4.3 111.2,4.3 287.7,4.3 	"/>
	<rect class="st3" width="288" height="158.5"/>
	<polyline class="st2" points="4.3,158.5 4.3,97.9 4.3,0 	"/>
	<polyline class="st2" points="8.7,158.5 8.7,97.9 8.7,0 	"/>
	<polyline class="st2" points="283.7,158.5 283.7,106.1 283.7,97.9 283.7,0 	"/>
	<polyline class="st2" points="279.3,158.5 279.3,106.1 279.3,97.9 279.3,0 	"/>
	<text transform="matrix(1 0 0 1 0.7512 86.5574)" class="st4 st5 st6">X</text>
	<line class="st2" x1="82.1" y1="115.2" x2="82.1" y2="158.6"/>
	<line class="st2" x1="201.4" y1="115.2" x2="201.4" y2="158.6"/>
	<path class="st7" d="M59.9,101.4"/>
</g>
</svg>
