<?xml version="1.0" encoding="utf-8"?>
<!-- Generator: Adobe Illustrator 27.7.0, SVG Export Plug-In . SVG Version: 6.00 Build 0)  -->
<svg version="1.1" xmlns="http://www.w3.org/2000/svg" xmlns:xlink="http://www.w3.org/1999/xlink" x="0px" y="0px"
	 viewBox="0 0 100.3 108" style="enable-background:new 0 0 100.3 108;" xml:space="preserve">
<style type="text/css">
	.st0{display:none;}
	.st1{display:inline;fill:none;stroke:#00AEEF;stroke-width:0.1273;stroke-miterlimit:10;}
	.st2{display:inline;fill:none;stroke:#00AEEF;stroke-width:0.1273;stroke-miterlimit:10;stroke-dasharray:2.545,2.545;}
	.st3{display:inline;fill:#EC008C;}
	.st4{font-family:'Roboto-Regular';}
	.st5{font-size:8.9134px;}
</style>
<g id="Artwork">
	<g>
		<g>
			<path d="M16,16v45c0,9.2,4.2,17.6,12.2,24.2c6.3,5.2,13.6,8.2,18.6,9.8l3.3,1l3.3-1c4.1-1.3,12-4.3,18.7-9.7
				c8-6.5,12.2-14.6,12.2-23.7V16H16z M80.1,61.6c0,7.7-3.7,14.7-10.6,20.4c-6.2,5-13.5,7.8-17.4,9l-2,0.6l-2-0.6
				c-4.7-1.5-11.5-4.3-17.2-9.1c-7-5.7-10.6-13-10.6-20.9V20.2h59.9V61.6z"/>
		</g>
		<g>
			<path d="M47.7,74.4c-6.2-0.3-10.6-2.8-13.9-3.5c0-1.4,0-5.8,0-5.8s4.6,4.5,13.9,5.6V74.4z"/>
			<path d="M48,64.6C36.4,63.1,30.2,56,30.2,46.9c0-10,8.5-19.6,23.7-19.6c4.7,0,6.8,0.5,8.8,0.5c0,1.1-0.1,5.1-0.1,5.1
				S60,31,53.8,31c-10.6,0-19.4,6-19.4,15.9c0,9.1,6.9,13.5,15.6,14.1c0-1.7,0-3.4,0-5.1c-5.5-0.8-10.3-2.5-10.3-8.9
				c0-4.3,2.1-11.2,16.2-11.2c6.1,0,10.2,1.4,13.3,2.3c0,1.6,0,5.7,0,5.7s-4.2-4.2-13.3-4.2c-8.6,0-12,3.3-12,7.5
				c0,3.1,2.5,4.2,6,4.8c0-1.1,0-2.1,0-3c0-2.1-0.7-4.5-0.7-4.5h13.2v4.9c0,0-2.9-1.4-5.8-1.4c-0.8,0-1.7,0-2.6,0v13.5
				c2.7,0,5.7-0.9,5.7-0.9v4.2c0,0-4.2,0.2-7.6,0.2C50.4,64.8,49.2,64.7,48,64.6z"/>
			<path d="M54.2,74.6c0,1.2,0,2,0,2.4c0,3.1,1,5.9,1,5.9h-6.1c0,0,1-2.9,1-6.1c0-0.3,0-8.6,0-10h0c0,0,1.2,0.1,2.1,0.1s2,0,2,0
				c0,1.4,0,2.8,0,4c7.6-0.4,11.9-3.4,11.9-7.8c0-4.8-4.3-5.9-9.5-6.5v-4.1c6.7,0.7,13.7,2.1,13.7,10.6C70.3,67.2,67,74.1,54.2,74.6
				z"/>
		</g>
	</g>
</g>
<g id="Guides" class="st0">
	<rect x="0" y="0" class="st1" width="100.3" height="108"/>
	<line class="st2" x1="0" y1="16" x2="100.3" y2="16"/>
	<line class="st2" x1="0" y1="32" x2="100.3" y2="32"/>
	<line class="st2" x1="0" y1="64" x2="100.3" y2="64"/>
	<line class="st2" x1="0" y1="48" x2="100.3" y2="48"/>
	<line class="st2" x1="0" y1="80" x2="100.3" y2="80"/>
	<line class="st2" x1="0" y1="96" x2="100.3" y2="96"/>
	<line class="st2" x1="16" y1="0" x2="16" y2="107.9"/>
	<line class="st2" x1="84.3" y1="0" x2="84.3" y2="107.9"/>
	<text transform="matrix(1 0 0 1 5.2992 10.9085)" class="st3 st4 st5">X</text>
</g>
</svg>
