<?xml version="1.0" encoding="utf-8"?>
<!-- Generator: Adobe Illustrator 27.7.0, SVG Export Plug-In . SVG Version: 6.00 Build 0)  -->
<svg version="1.1" xmlns="http://www.w3.org/2000/svg" xmlns:xlink="http://www.w3.org/1999/xlink" x="0px" y="0px"
	 viewBox="0 0 157.5 72" style="enable-background:new 0 0 157.5 72;" xml:space="preserve">
<style type="text/css">
	.st0{fill:#2D903C;}
	.st1{display:none;}
	.st2{display:inline;fill:none;stroke:#00AEEF;stroke-width:0.1182;stroke-miterlimit:10;}
	.st3{display:inline;fill:none;stroke:#00AEEF;stroke-width:0.1182;stroke-miterlimit:10;stroke-dasharray:2.364,2.364;}
</style>
<g id="Artwork">
	<rect x="69.1" y="48.6" class="st0" width="82.7" height="2.2"/>
	<g>
		<path class="st0" d="M120.7,57.9l-0.3,1.5c0,0,1-0.3,1.6-0.3s0.8,0,0.8,0s0,4.9,0,5.7c0,0.6-0.2,1.1-0.2,1.1h2.1
			c0,0-0.2-0.5-0.2-1.1c0-0.8,0-5.7,0-5.7s0,0,0.8,0c0.8,0,1.6,0.3,1.6,0.3l-0.3-1.5H120.7z"/>
		<path class="st0" d="M118.7,62.2c-0.5-1.3-1-2.8-1.1-3.2c-0.2-0.6,0.1-1.1,0.1-1.1h-0.8h-1.5h-0.8c0,0,0.3,0.5,0.1,1.1
			c-0.1,0.4-0.7,1.9-1.1,3.2c-0.3,0.9-0.8,2.3-0.9,2.6c-0.2,0.6-0.6,1.1-0.6,1.1h2.1c0,0-0.1-0.5,0.2-1.1c0-0.1,0.1-0.3,0.2-0.6h3.5
			c0.1,0.3,0.2,0.5,0.2,0.6c0.2,0.6,0.2,1.1,0.2,1.1h2.1c0,0-0.4-0.6-0.6-1.1C119.5,64.5,119.1,63.2,118.7,62.2z M114.8,63
			c0.1-0.3,0.2-0.5,0.3-0.8c0.4-1.1,0.8-2.2,1-2.8c0.2,0.6,0.6,1.8,1,2.8c0.1,0.2,0.2,0.5,0.3,0.8H114.8z"/>
		<path class="st0" d="M79.7,57.8c-2.8,0-3.9,2.2-3.9,4.1s1.2,4.1,3.9,4.1c2.8,0,3.9-2.2,3.9-4.1S82.4,57.8,79.7,57.8z M79.7,64.8
			c-1.7,0-2.3-1.4-2.3-2.9s0.6-2.9,2.3-2.9c1.7,0,2.3,1.4,2.3,2.9S81.4,64.8,79.7,64.8z"/>
		<path class="st0" d="M139.3,57.8c-2.8,0-3.9,2.2-3.9,4.1s1.2,4.1,3.9,4.1c2.8,0,3.9-2.2,3.9-4.1S142.1,57.8,139.3,57.8z
			 M139.3,64.8c-1.7,0-2.3-1.4-2.3-2.9s0.6-2.9,2.3-2.9c1.7,0,2.3,1.4,2.3,2.9S141,64.8,139.3,64.8z"/>
		<path class="st0" d="M107.4,57.9L107.4,57.9l-3.4,0c0,0,0.2,0.6,0.2,1.1c0,0.5,0,5,0,5.7c0,0.8-0.2,1.1-0.2,1.1h3.4
			c2.8,0,4.1-2.1,4.1-4S110.2,57.9,107.4,57.9z M107.4,64.7L107.4,64.7c-0.8,0-1.5,0-1.5,0v-5.5c0,0,0.7,0,1.5,0
			c1.7,0,2.5,1.3,2.5,2.8S109.1,64.7,107.4,64.7z"/>
		<path class="st0" d="M101.7,57.9h-1.9c0,0,0.2,0.4,0.2,1.1c0,0.7,0,4.3,0,4.3l0,0l-3.4-5.4h-1.8c0,0,0.2,0.5,0.2,1.1
			c0,0.6,0,5.2,0,5.8S94.8,66,94.8,66h1.9c0,0-0.2-0.5-0.2-1.1c0-0.6,0-4.2,0-4.2l0,0l3.4,5.3h1.7c0,0-0.1-0.5-0.1-1.2
			c0-1.8,0-5.1,0-5.7C101.5,58.3,101.7,57.9,101.7,57.9z"/>
		<path class="st0" d="M151.8,59.1c0-0.8,0.2-1.1,0.2-1.1h-1.9c0,0,0.2,0.4,0.2,1.1c0,0.7,0,4.3,0,4.3l0,0l-3.4-5.4h-1.8
			c0,0,0.2,0.5,0.2,1.1c0,0.6,0,5.2,0,5.8s-0.2,1.1-0.2,1.1h1.9c0,0-0.2-0.5-0.2-1.1c0-0.6,0-4.2,0-4.2l0,0l3.4,5.3h1.7
			c0,0-0.1-0.5-0.1-1.2C151.8,62.9,151.8,59.6,151.8,59.1z"/>
		<path class="st0" d="M68.8,57.9c0,0,0.2,0.6,0.2,1.1c0,0.3,0,2,0,3.5c0,1,0,2,0,2.3c0,0.6-0.2,1.1-0.2,1.1h2.1
			c0,0-0.2-0.5-0.2-1.1c0-0.3,0-1.4,0-2.4c0,0,0.7,0,1.4,0c0.7,0,1.3,0.1,1.3,0.1v-1.5c0,0-0.8,0.2-1.4,0.2c-0.6,0-1.3,0-1.3,0v-2
			c0,0,2,0,2.9,0s1.3,0.3,1.3,0.3l-0.3-1.6H68.8z"/>
		<path class="st0" d="M92.8,57.9h-0.2h-0.5h-0.7h-0.5h-0.2c0,0,0.2,0.6,0.2,1.1l0,0v3.4c0,1.4-0.2,2.4-1.9,2.4
			c-1.7,0-1.9-0.9-1.9-2.4v-3.4l0,0c0-0.5,0.2-1.1,0.2-1.1h-0.2h-0.3h-0.9h-0.4h-0.2c0,0,0.2,0.6,0.2,1.1l0,0v3.4
			c0,2.2,0.8,3.6,3.5,3.6c2.8,0,3.5-1.4,3.5-3.6v-3.4l0,0C92.5,58.6,92.8,57.9,92.8,57.9z"/>
		<path class="st0" d="M132.8,64.7c-0.6,0-0.8,0-0.8,0v-5.5c0,0,0.3,0,0.8,0c0.8,0,1.5,0.1,1.5,0.1l-0.3-1.3h-2.1h-1.6h-2.1
			l-0.3,1.3c0,0,0.7-0.1,1.5-0.1c0.5,0,0.8,0,0.8,0v5.5c0,0-0.3,0-0.8,0c-0.8,0-1.6-0.1-1.6-0.1l0.3,1.4h2.1h1.6h2.1l0.3-1.4
			C134.4,64.6,133.6,64.7,132.8,64.7z"/>
	</g>
	<g>
		<g>
			<path class="st0" d="M131,17.8v-4.1c0,0,1.3,0,2.5,0c1.2,0,2.4,0.3,2.4,0.3v-2.7c0,0-1.5,0.3-2.5,0.3c-1,0-2.4,0-2.4,0V7.9
				c0,0,3.6,0,5.2,0s2.4,0.6,2.4,0.6L138,5.7h-10.3c0,0,0.4,1.1,0.4,2c0,1,0,8.8,0,10.2c0,1.4-0.4,2-0.4,2H138l0.6-2.8
				c0,0-1.1,0.6-2.3,0.6S131,17.8,131,17.8z"/>
			<path class="st0" d="M99,5.7l-0.6,2.7c0,0,1.7-0.5,2.9-0.5c1.1,0,1.4,0,1.4,0s0,8.6,0,10.1c0,1-0.4,2-0.4,2h3.7
				c0,0-0.4-0.9-0.4-2c0-1.4,0-10.1,0-10.1s0,0,1.5,0c1.4,0,2.9,0.5,2.9,0.5l-0.6-2.7H99z"/>
			<path class="st0" d="M99,5.7l-0.6,2.7c0,0,1.7-0.5,2.9-0.5c1.1,0,1.4,0,1.4,0s0,8.6,0,10.1c0,1-0.4,2-0.4,2h3.7
				c0,0-0.4-0.9-0.4-2c0-1.4,0-10.1,0-10.1s0,0,1.5,0c1.4,0,2.9,0.5,2.9,0.5l-0.6-2.7H99z"/>
			<path class="st0" d="M68.8,12.8c0,4.7,3.8,7.4,7.8,7.4c2,0,3.6-0.7,4.6-1.2v-2.6c0,0-1.8,1.5-4.5,1.5c-2.8,0-5.1-1.4-5.1-5
				s2.3-5,5.1-5c2.7,0,4.5,1.5,4.5,1.5V6.7c-1-0.6-2.7-1.2-4.6-1.2C72.5,5.5,68.8,8.1,68.8,12.8z"/>
		</g>
		<path class="st0" d="M144.3,9.4c0-1.3,1.3-1.7,2.6-1.7c3,0,4.7,2,4.7,2V7c-0.6-0.6-2.1-1.5-4.7-1.5c-3.2,0-5.4,1.8-5.4,4
			c0,4.8,7.8,4.2,7.8,7c0,1.3-1,1.6-2.6,1.6c-3.3,0-5.4-2.4-5.4-2.4v2.8c0.6,0.6,2.6,1.7,5.2,1.7c2.9,0,5.4-1.1,5.4-4
			C152,11.4,144.3,12,144.3,9.4z"/>
		<path class="st0" d="M121.5,17.7c-1,0-1.5,0-1.5,0V7.9c0,0,0.5,0,1.5,0c1.5,0,2.8,0.1,2.8,0.1l-0.5-2.3H120h-2.9h-3.8L112.9,8
			c0,0,1.3-0.1,2.8-0.1c0.9,0,1.5,0,1.5,0v9.8c0,0-0.5,0-1.5,0c-1.5,0-2.9-0.2-2.9-0.2l0.6,2.4h3.8h2.9h3.8l0.6-2.4
			C124.4,17.6,123,17.7,121.5,17.7z"/>
		<path class="st0" d="M92.8,17.7c-1,0-1.5,0-1.5,0V7.9c0,0,0.5,0,1.5,0c1.5,0,2.8,0.1,2.8,0.1l-0.5-2.3h-3.8h-2.9h-3.8L84.2,8
			c0,0,1.3-0.1,2.8-0.1c0.9,0,1.5,0,1.5,0v9.8c0,0-0.5,0-1.5,0c-1.5,0-2.9-0.2-2.9-0.2l0.6,2.4h3.8h2.9h3.8l0.6-2.4
			C95.7,17.6,94.3,17.7,92.8,17.7z"/>
	</g>
	<g>
		<path class="st0" d="M81.6,27.1L81,29.8c0,0,1.7-0.5,2.9-0.5c1.1,0,1.4,0,1.4,0s0,8.6,0,10.1c0,1-0.4,2-0.4,2h3.7
			c0,0-0.4-0.9-0.4-2c0-1.4,0-10.1,0-10.1s0,0,1.5,0c1.4,0,2.9,0.5,2.9,0.5L92,27.1H81.6z"/>
		<path class="st0" d="M115.5,26.9c-4.9,0-7,3.9-7,7.4s2.1,7.4,7,7.4c4.9,0,7-3.9,7-7.4S120.5,26.9,115.5,26.9z M115.5,39.4
			c-3.1,0-4.1-2.5-4.1-5.1c0-2.6,1-5.1,4.1-5.1s4.1,2.5,4.1,5.1C119.7,36.9,118.6,39.4,115.5,39.4z"/>
		<path class="st0" d="M137.4,27.1H134c0,0,0.4,0.7,0.4,2c0,1.3,0,7.6,0,7.6l-0.1,0l-6.1-9.6H125c0,0,0.4,1,0.4,2
			c0,1.1,0,9.3,0,10.3c0,1-0.4,2-0.4,2h3.4c0,0-0.4-1-0.4-2c0-1,0-7.4,0-7.4l0.1,0l6.1,9.5h3.1c0,0-0.3-0.9-0.3-2.2
			c0-3.3,0-9.1,0-10.1C137,27.8,137.4,27.1,137.4,27.1z"/>
		<path class="st0" d="M148.6,34.4c0,0,0.6,1.1,0.6,2.2c0,1.1,0,2.4,0,2.4c-0.2,0.1-0.7,0.2-1.1,0.3c-0.4,0.1-0.8,0.1-1.4,0.1
			c-2.2,0-4-1.2-4-4.8s1.8-5.3,4.5-5.3c2.7,0,4.5,1.5,4.5,1.5v-2.6c-1.1-0.8-2.7-1.2-4.6-1.2c-4,0-7.2,3-7.2,7.7c0,4,2.7,7,6.5,7
			c1.4,0,2.5-0.2,3.4-0.6c0.9-0.4,1.6-0.8,2-1.2c0,0,0-1.7,0-3.3c0-1.4,0.5-2.2,0.5-2.2H148.6z"/>
		<path class="st0" d="M104.7,38.1c-0.2-0.6-0.7-1.7-1.4-2.1c1.5-0.7,2.8-2.1,2.8-4.3c0-2.9-2.2-4.5-5.2-4.5h-6.6c0,0,0.4,1,0.4,2
			c0,1,0,9.2,0,10.3c0,1.1-0.4,2-0.4,2H98c0,0-0.4-0.9-0.4-2c0-1.1,0-3,0-3h3.1c0,0,0.9,2.1,1.3,2.9c0.8,1.8,1.9,2.3,3.2,2.3
			s2.2-0.5,2.2-0.5L107,40C106.2,40.2,105.3,39.6,104.7,38.1z M97.6,34.2v-4.8c0,0,2,0,3.3,0c1.5,0,2.3,0.8,2.3,2.4
			c0,1.4-0.8,2.4-2.4,2.4H97.6z"/>
		<path class="st0" d="M71.8,30.8c0-1.3,1.3-1.7,2.6-1.7c3,0,4.7,2,4.7,2v-2.7c-0.6-0.6-2.1-1.5-4.7-1.5c-3.2,0-5.4,1.8-5.4,4
			c0,4.8,7.8,4.2,7.8,7c0,1.3-1,1.6-2.6,1.6c-3.3,0-5.4-2.4-5.4-2.4v2.8c0.6,0.6,2.6,1.7,5.2,1.7c2.9,0,5.4-1.1,5.4-4
			C79.5,32.8,71.8,33.5,71.8,30.8z"/>
	</g>
	<g>
		<path class="st0" d="M18.3,54.7c4.1,3.4,9,5.4,12.3,6.5l1.4,0.5l1.4-0.4c2.7-0.9,8-2.8,12.4-6.4c5-4,7.6-9.1,7.6-14.6v-30H10.7
			v29.5C10.7,45.4,13.3,50.6,18.3,54.7z M30.3,48.9c-4.5-0.2-7.6-2-9.9-2.5c0-1,0-4.2,0-4.2s3.3,3.2,9.9,4V48.9z M34.9,49.1
			c0,0.8,0,1.4,0,1.7c0,2.2,0.7,4.2,0.7,4.2h-4.4c0,0,0.7-2,0.7-4.3c0-0.2,0-6.2,0-7.2c0,0,0.8,0,1.5,0c0.7,0,1.4,0,1.4,0
			c0,1,0,2,0,2.9c5.4-0.3,8.5-2.4,8.5-5.5c0-3.4-3.1-4.2-6.8-4.6v-2.9c4.8,0.5,9.8,1.5,9.8,7.5C46.4,43.8,44.1,48.7,34.9,49.1z
			 M34.7,15.2c3.4,0,4.9,0.4,6.3,0.4c0,0.8-0.1,3.7-0.1,3.7s-1.8-1.3-6.2-1.3c-7.6,0-13.8,4.3-13.8,11.3c0,6.5,4.9,9.6,11.2,10.1
			c0-1.2,0-2.5,0-3.6c-3.9-0.6-7.3-1.8-7.3-6.4c0-3,1.5-8,11.6-8c4.4,0,7.3,1,9.5,1.6c0,1.1,0,4.1,0,4.1s-3-3-9.5-3
			c-6.1,0-8.6,2.3-8.6,5.3c0,2.2,1.8,3,4.3,3.4c0-0.8,0-1.5,0-2.1c0-1.5-0.5-3.2-0.5-3.2h9.4v3.5c0,0-2.1-1-4.1-1
			c-0.6,0-1.2,0-1.8,0v9.6c2,0,4.1-0.6,4.1-0.6v3c0,0-3,0.1-5.4,0.1c-1.3,0-2.2,0-3.1-0.2c-8.3-1.1-12.7-6.2-12.7-12.6
			C17.8,22.1,23.9,15.2,34.7,15.2z"/>
		<path class="st0" d="M56.5,5.7H7.7H6.2v1.5v32.6c0,7.1,3.2,13.4,9.2,18.4c4.7,3.9,10.1,6.1,13.8,7.3l2.3,0.8l0.4,0.1l0.4-0.1
			l2.3-0.7c3-1,8.9-3.2,13.9-7.2c6.1-4.9,9.2-11.1,9.2-18v-33V5.7H56.5z M56.5,40.2c0,6.4-3,12.3-8.7,16.9c-4.8,3.9-10.5,6-13.4,6.9
			L32,64.8L29.7,64c-3.6-1.2-8.8-3.3-13.3-7c-5.7-4.7-8.7-10.7-8.7-17.3V7.2h48.8V40.2z"/>
	</g>
</g>
<g id="Guides" class="st1">
	<rect x="0" y="0" class="st2" width="157.5" height="71.7"/>
	<line class="st3" x1="0" y1="2.9" x2="157.5" y2="2.9"/>
	<line class="st3" x1="0" y1="5.7" x2="157.5" y2="5.7"/>
	<line class="st3" x1="0" y1="8.6" x2="157.5" y2="8.6"/>
	<line class="st3" x1="0" y1="11.4" x2="157.5" y2="11.4"/>
	<line class="st3" x1="0" y1="14.3" x2="157.5" y2="14.3"/>
	<line class="st3" x1="0" y1="17.1" x2="157.5" y2="17.1"/>
	<line class="st3" x1="0" y1="20" x2="157.5" y2="20"/>
	<line class="st3" x1="0" y1="22.9" x2="157.5" y2="22.9"/>
	<line class="st3" x1="0" y1="25.7" x2="157.5" y2="25.7"/>
	<line class="st3" x1="0" y1="27.2" x2="157.5" y2="27.2"/>
	<polyline class="st3" points="0,68.8 151.8,68.8 157.5,68.8 	"/>
	<polyline class="st3" points="0,50.8 151.8,50.8 157.5,50.8 	"/>
	<polyline class="st3" points="0,52.2 151.8,52.2 157.5,52.2 	"/>
	<polyline class="st3" points="0,55.1 151.8,55.1 157.5,55.1 	"/>
	<polyline class="st3" points="0,57.9 151.8,57.9 157.5,57.9 	"/>
	<polyline class="st3" points="0,48.6 151.8,48.6 157.5,48.6 	"/>
	<polyline class="st3" points="0,47.2 151.8,47.2 157.5,47.2 	"/>
	<polyline class="st3" points="0,44.3 151.8,44.3 157.5,44.3 	"/>
	<polyline class="st3" points="0,41.4 151.8,41.4 157.5,41.4 	"/>
	<line class="st3" x1="0" y1="66" x2="157.5" y2="66"/>
	<polyline class="st3" points="2.9,0 2.9,2.9 2.9,71.7 	"/>
	<polyline class="st3" points="5.7,0 5.7,2.9 5.7,71.7 	"/>
	<line class="st3" x1="151.8" y1="0.1" x2="151.8" y2="71.7"/>
	<line class="st3" x1="154.7" y1="0.1" x2="154.7" y2="71.7"/>
	<polyline class="st3" points="69.1,71.8 69.1,5.8 69.1,-0.2 	"/>
	<polyline class="st3" points="66.1,71.8 66.1,5.8 66.1,-0.2 	"/>
	<polyline class="st3" points="63.3,71.8 63.3,5.8 63.3,-0.2 	"/>
	<polyline class="st3" points="60.4,71.8 60.4,5.8 60.4,-0.2 	"/>
	<polyline class="st3" points="57.5,71.8 57.5,5.8 57.5,-0.2 	"/>
</g>
</svg>
