<?xml version="1.0" encoding="utf-8"?>
<!-- Generator: Adobe Illustrator 27.7.0, SVG Export Plug-In . SVG Version: 6.00 Build 0)  -->
<svg version="1.1" xmlns="http://www.w3.org/2000/svg" xmlns:xlink="http://www.w3.org/1999/xlink" x="0px" y="0px"
	 viewBox="0 0 263.3 70" style="enable-background:new 0 0 263.3 70;" xml:space="preserve">
<style type="text/css">
	.st0{fill:#2D903C;}
	.st1{display:none;}
	.st2{display:inline;}
	.st3{fill:none;stroke:#00AEEF;stroke-width:0.1061;stroke-miterlimit:10;}
	.st4{fill:none;stroke:#00AEEF;stroke-width:0.1061;stroke-miterlimit:10;stroke-dasharray:2.1098,2.1098;}
	.st5{fill:none;stroke:#00AEEF;stroke-width:0.1061;stroke-miterlimit:10;stroke-dasharray:2.1189,2.1189;}
	.st6{fill:none;stroke:#00AEEF;stroke-width:0.1061;stroke-miterlimit:10;stroke-dasharray:2.1065,2.1065;}
	.st7{fill:none;stroke:#00AEEF;stroke-width:0.1061;stroke-miterlimit:10;stroke-dasharray:2.1887,2.1887;}
	.st8{fill:none;stroke:#00AEEF;stroke-width:0.1061;stroke-miterlimit:10;stroke-dasharray:2.1885,2.1885;}
	.st9{fill:none;stroke:#00AEEF;stroke-width:0.1061;stroke-miterlimit:10;stroke-dasharray:2.122,2.122;}
	.st10{fill:none;stroke:#00AEEF;stroke-width:0.1061;stroke-miterlimit:10;stroke-dasharray:2.1221,2.1221;}
	.st11{display:inline;fill:none;stroke:#00AEEF;stroke-width:0.1061;stroke-miterlimit:10;}
	.st12{fill:none;stroke:#00AEEF;stroke-width:0.1061;stroke-miterlimit:10;stroke-dasharray:2.0575,2.0575;}
</style>
<g id="Artwork">
	<rect x="14.2" y="39.7" class="st0" width="234.9" height="19"/>
	<g>
		<path d="M151,13.1l-0.7,3.6c0,0,2.3-0.6,3.8-0.6s1.9,0,1.9,0s0,11.5,0,13.4c0,1.3-0.6,2.7-0.6,2.7h4.9c0,0-0.6-1.2-0.6-2.7
			c0-1.9,0-13.4,0-13.4s0,0,1.9,0c1.9,0,3.8,0.6,3.8,0.6l-0.7-3.6H151z"/>
		<path d="M198.5,12.8c-6.5,0-9.3,5.1-9.3,9.7s2.7,9.7,9.3,9.7c6.5,0,9.3-5.1,9.3-9.7S205.1,12.8,198.5,12.8z M198.5,29.3
			c-4.1,0-5.5-3.4-5.5-6.8s1.4-6.8,5.5-6.8c4.1,0,5.5,3.4,5.5,6.8S202.6,29.3,198.5,29.3z"/>
		<path d="M228.8,13.1h-4.5c0,0,0.6,1,0.6,2.7s0,10.1,0,10.1l-0.1,0l-8.1-12.8h-4.3c0,0,0.5,1.3,0.5,2.7c0,1.4,0,12.4,0,13.7
			c0,1.3-0.5,2.7-0.5,2.7h4.5c0,0-0.6-1.3-0.6-2.7c0-1.4,0-9.9,0-9.9l0.1,0l8,12.6h4.1c0,0-0.4-1.2-0.4-2.9c0-4.3,0-12.1,0-13.4
			C228.2,14,228.8,13.1,228.8,13.1z"/>
		<path d="M244.9,22.7c0,0,0.8,1.4,0.8,2.9c0,1.4,0,3.2,0,3.2c-0.3,0.2-0.9,0.3-1.4,0.5c-0.5,0.1-1.1,0.2-1.9,0.2
			c-2.8,0-5.3-1.6-5.3-6.3s2.4-7.1,6-7.1c3.6,0,5.9,2,5.9,2v-3.5c-1.4-0.7-3.5-1.7-6.1-1.7c-5.3,0-9.6,4-9.6,10.2
			c0,5.3,3.5,9.2,8.6,9.2c1.8,0,3.3-0.2,4.5-0.7c1.2-0.5,2.1-1,2.7-1.6c0,0,0-2.2,0-4.4c0-1.9,0.7-2.9,0.7-2.9H244.9z"/>
		<path d="M182.9,27.6c-0.3-0.8-0.9-2.4-1.8-2.9c2-0.9,3.6-2.8,3.6-5.7c0-3.8-2.9-5.9-6.9-5.9h-8.7c0,0,0.5,1.3,0.5,2.7
			s0,12.2,0,13.7s-0.5,2.7-0.5,2.7h4.9c0,0-0.6-1.3-0.6-2.7c0-1.4,0-4.1,0-4.1h4.1c0,0,1.2,2.8,1.7,3.8c1.1,2.4,2.5,3,4.3,3
			c1.8,0,2.9-0.7,2.9-0.7l-0.6-1.2C184.9,30.4,183.6,29.7,182.9,27.6z M173.5,22.4V16c0,0,2.6,0,4.3,0c2,0,3.1,1.1,3.1,3.2
			c0,1.8-1.1,3.2-3.2,3.2H173.5z"/>
		<path d="M137.4,18c0-1.7,1.7-2.3,3.4-2.3c4,0,6.3,2.7,6.3,2.7v-3.6c-0.8-0.7-2.8-2-6.2-2c-4.2,0-7.1,2.4-7.1,5.3
			c0,6.4,10.4,5.6,10.4,9.3c0,1.8-1.4,2.2-3.4,2.2c-4.4,0-7.2-3.2-7.2-3.2v3.7c0.8,0.8,3.5,2.3,6.9,2.3c3.8,0,7.2-1.4,7.2-5.3
			C147.7,20.7,137.4,21.5,137.4,18z"/>
	</g>
	<g>
		<g>
			<path d="M95.9,29.2v-5.4c0,0,1.7,0,3.3,0c1.6,0,3.2,0.4,3.2,0.4v-3.7c0,0-1.9,0.4-3.3,0.4s-3.2,0-3.2,0V16c0,0,4.8,0,6.9,0
				c2.1,0,3.1,0.8,3.1,0.8l-0.7-3.8H91.4c0,0,0.6,1.5,0.6,2.7c0,1.3,0,11.7,0,13.6c0,1.9-0.6,2.7-0.6,2.7h13.8l0.7-3.8
				c0,0-1.5,0.8-3.1,0.8S95.9,29.2,95.9,29.2z"/>
			<path d="M53.2,13.1l-0.7,3.6c0,0,2.3-0.7,3.8-0.7s1.9,0,1.9,0s0,11.5,0,13.4c0,1.4-0.6,2.7-0.6,2.7h4.9c0,0-0.6-1.2-0.6-2.7
				c0-1.9,0-13.4,0-13.4s0,0,1.9,0c1.9,0,3.8,0.7,3.8,0.7l-0.7-3.6H53.2z"/>
			<path d="M13,22.6c0,6.3,5,9.8,10.4,9.8c2.6,0,4.8-0.9,6.2-1.7v-3.5c0,0-2.4,2-5.9,2c-3.7,0-6.8-1.9-6.8-6.6s3.1-6.6,6.8-6.6
				c3.6,0,5.9,2,5.9,2v-3.5c-1.4-0.8-3.5-1.7-6.2-1.7C18,12.8,13,16.3,13,22.6z"/>
		</g>
		<path d="M113.5,18c0-1.7,1.7-2.3,3.4-2.3c4,0,6.3,2.7,6.3,2.7v-3.6c-0.8-0.7-2.8-2-6.2-2c-4.2,0-7.1,2.4-7.1,5.3
			c0,6.4,10.4,5.6,10.4,9.3c0,1.8-1.4,2.2-3.4,2.2c-4.4,0-7.2-3.2-7.2-3.2v3.7c0.8,0.8,3.5,2.3,6.9,2.3c3.8,0,7.2-1.4,7.2-5.3
			C123.8,20.7,113.5,21.5,113.5,18z"/>
		<path d="M83.2,29.1c-1.3,0-2,0-2,0V16c0,0,0.7,0,2,0c1.9,0,3.7,0.2,3.7,0.2l-0.6-3.1h-5h-3.9h-5l-0.6,3.1c0,0,1.7-0.2,3.7-0.2
			c1.2,0,2,0,2,0v13.1c0,0-0.6,0-2,0c-1.9,0-3.8-0.2-3.8-0.2l0.8,3.2h5h3.9h5l0.8-3.2C87,28.9,85.1,29.1,83.2,29.1z"/>
		<path d="M45,29.1c-1.3,0-2,0-2,0V16c0,0,0.7,0,2,0c1.9,0,3.7,0.2,3.7,0.2l-0.6-3.1h-5h-3.9h-5l-0.6,3.1c0,0,1.7-0.2,3.7-0.2
			c1.2,0,2,0,2,0v13.1c0,0-0.6,0-2,0c-1.9,0-3.8-0.2-3.8-0.2l0.8,3.2h5h3.9h5l0.8-3.2C48.8,28.9,47,29.1,45,29.1z"/>
	</g>
</g>
<g id="Guides" class="st1">
	<g class="st2">
		<g>
			<line class="st3" x1="263.2" y1="39.7" x2="262.1" y2="39.7"/>
			<line class="st4" x1="260" y1="39.7" x2="16.3" y2="39.7"/>
			<line class="st3" x1="15.3" y1="39.7" x2="14.2" y2="39.7"/>
		</g>
	</g>
	<g class="st2">
		<g>
			<line class="st3" x1="263.2" y1="35.9" x2="262.1" y2="35.9"/>
			<line class="st4" x1="260" y1="35.9" x2="16.3" y2="35.9"/>
			<line class="st3" x1="15.3" y1="35.9" x2="14.2" y2="35.9"/>
		</g>
	</g>
	<g class="st2">
		<g>
			<line class="st3" x1="263.2" y1="32.1" x2="262.1" y2="32.1"/>
			<line class="st4" x1="260" y1="32.1" x2="16.3" y2="32.1"/>
			<line class="st3" x1="15.3" y1="32.1" x2="14.2" y2="32.1"/>
		</g>
	</g>
	<g class="st2">
		<g>
			<line class="st3" x1="263.2" y1="28.3" x2="262.1" y2="28.3"/>
			<line class="st4" x1="260" y1="28.3" x2="16.3" y2="28.3"/>
			<line class="st3" x1="15.3" y1="28.3" x2="14.2" y2="28.3"/>
		</g>
	</g>
	<g class="st2">
		<g>
			<line class="st3" x1="263.2" y1="24.5" x2="262.1" y2="24.5"/>
			<line class="st4" x1="260" y1="24.5" x2="16.3" y2="24.5"/>
			<line class="st3" x1="15.3" y1="24.5" x2="14.2" y2="24.5"/>
		</g>
	</g>
	<g class="st2">
		<g>
			<line class="st3" x1="263.2" y1="20.7" x2="262.1" y2="20.7"/>
			<line class="st4" x1="260" y1="20.7" x2="16.3" y2="20.7"/>
			<line class="st3" x1="15.3" y1="20.7" x2="14.2" y2="20.7"/>
		</g>
	</g>
	<g class="st2">
		<g>
			<line class="st3" x1="263.2" y1="16.9" x2="262.1" y2="16.9"/>
			<line class="st4" x1="260" y1="16.9" x2="16.3" y2="16.9"/>
			<line class="st3" x1="15.3" y1="16.9" x2="14.2" y2="16.9"/>
		</g>
	</g>
	<g class="st2">
		<g>
			<line class="st3" x1="263.2" y1="13.1" x2="262.1" y2="13.1"/>
			<line class="st4" x1="260" y1="13.1" x2="16.3" y2="13.1"/>
			<line class="st3" x1="15.3" y1="13.1" x2="14.2" y2="13.1"/>
		</g>
	</g>
	<g class="st2">
		<g>
			<line class="st3" x1="262.8" y1="62.4" x2="261.7" y2="62.4"/>
			<line class="st5" x1="259.6" y1="62.4" x2="2.2" y2="62.4"/>
			<line class="st3" x1="1.1" y1="62.4" x2="0.1" y2="62.4"/>
		</g>
	</g>
	<g class="st2">
		<g>
			<line class="st3" x1="262.8" y1="58.6" x2="261.7" y2="58.6"/>
			<line class="st6" x1="259.6" y1="58.6" x2="16.3" y2="58.6"/>
			<line class="st3" x1="15.3" y1="58.6" x2="14.2" y2="58.6"/>
		</g>
	</g>
	<g class="st2">
		<g>
			<line class="st3" x1="262.8" y1="66.2" x2="261.7" y2="66.2"/>
			<line class="st5" x1="259.6" y1="66.2" x2="2.2" y2="66.2"/>
			<line class="st3" x1="1.1" y1="66.2" x2="0.1" y2="66.2"/>
		</g>
	</g>
	<g class="st2">
		<g>
			<line class="st3" x1="249.1" y1="0" x2="249.1" y2="1"/>
			<polyline class="st7" points="249.1,3.2 249.1,39.7 249.1,67.8 			"/>
			<line class="st3" x1="249.1" y1="68.9" x2="249.1" y2="69.9"/>
		</g>
	</g>
	<g class="st2">
		<g>
			<line class="st3" x1="14.2" y1="0" x2="14.2" y2="1.1"/>
			<polyline class="st8" points="14.2,3.3 14.2,9.4 14.2,39.7 14.2,67.8 			"/>
			<line class="st3" x1="14.2" y1="68.9" x2="14.2" y2="70"/>
		</g>
	</g>
	<g class="st2">
		<g>
			<line class="st3" x1="253.9" y1="0" x2="253.9" y2="1"/>
			<polyline class="st7" points="253.9,3.2 253.9,39.7 253.9,67.8 			"/>
			<line class="st3" x1="253.9" y1="68.9" x2="253.9" y2="69.9"/>
		</g>
	</g>
	<g class="st2">
		<g>
			<line class="st3" x1="258.6" y1="0" x2="258.6" y2="1"/>
			<polyline class="st7" points="258.6,3.2 258.6,39.7 258.6,67.8 			"/>
			<line class="st3" x1="258.6" y1="68.9" x2="258.6" y2="69.9"/>
		</g>
	</g>
	<g class="st2">
		<g>
			<line class="st3" x1="258.6" y1="0" x2="258.6" y2="1"/>
			<polyline class="st7" points="258.6,3.2 258.6,39.7 258.6,67.8 			"/>
			<line class="st3" x1="258.6" y1="68.9" x2="258.6" y2="69.9"/>
		</g>
	</g>
	<g class="st2">
		<g>
			<line class="st3" x1="263.2" y1="9.4" x2="262.1" y2="9.4"/>
			<line class="st9" x1="260" y1="9.4" x2="2.2" y2="9.4"/>
			<line class="st3" x1="1.1" y1="9.4" x2="0.1" y2="9.4"/>
		</g>
	</g>
	<g class="st2">
		<g>
			<line class="st3" x1="263.2" y1="4.6" x2="262.1" y2="4.6"/>
			<line class="st10" x1="260" y1="4.6" x2="2.2" y2="4.6"/>
			<line class="st3" x1="1.1" y1="4.6" x2="0" y2="4.6"/>
		</g>
	</g>
	<rect x="0" y="0" class="st11" width="263.3" height="70"/>
	<g class="st2">
		<g>
			<line class="st3" x1="4.7" y1="0" x2="4.7" y2="1"/>
			<polyline class="st7" points="4.7,3.2 4.7,39.7 4.7,67.8 			"/>
			<line class="st3" x1="4.7" y1="68.9" x2="4.7" y2="69.9"/>
		</g>
	</g>
	<g class="st2">
		<g>
			<line class="st3" x1="9.5" y1="0" x2="9.5" y2="1"/>
			<polyline class="st12" points="9.5,3.1 9.5,39.7 9.5,67.9 			"/>
			<line class="st3" x1="9.5" y1="68.9" x2="9.5" y2="70"/>
		</g>
	</g>
</g>
</svg>
