<?xml version="1.0" encoding="utf-8"?>
<!-- Generator: Adobe Illustrator 27.7.0, SVG Export Plug-In . SVG Version: 6.00 Build 0)  -->
<svg version="1.1" xmlns="http://www.w3.org/2000/svg" xmlns:xlink="http://www.w3.org/1999/xlink" x="0px" y="0px"
	 viewBox="0 0 100.3 108" style="enable-background:new 0 0 100.3 108;" xml:space="preserve">
<style type="text/css">
	.st0{fill:#2D903C;}
	.st1{display:none;}
	.st2{display:inline;fill:none;stroke:#00AEEF;stroke-width:0.1273;stroke-miterlimit:10;}
	.st3{display:inline;fill:none;stroke:#00AEEF;stroke-width:0.1273;stroke-miterlimit:10;stroke-dasharray:2.545,2.545;}
</style>
<g id="Artwork">
	<path class="st0" d="M16,16v45c0,9.2,4.2,17.6,12.2,24.2c6.3,5.2,13.6,8.2,18.6,9.8l3.3,1l3.3-1c4.1-1.3,12-4.3,18.7-9.7
		c8-6.5,12.2-14.6,12.2-23.7V16H16z M80.1,61.6c0,7.7-3.7,14.7-10.6,20.4c-6.2,5-13.5,7.8-17.4,9l-2,0.6l-2-0.6
		c-4.7-1.5-11.5-4.3-17.2-9.1c-7-5.7-10.6-13-10.6-20.9V20.2h3.6h52.7h3.6V61.6z"/>
	<g>
		<path d="M18.4,18.4V61c0,8.5,3.9,16.2,11.3,22.3c6,4.9,13,7.8,17.8,9.4l2.6,0.8l2.6-0.8c4-1.2,11.6-4.1,18-9.3
			c7.4-6,11.3-13.5,11.3-21.8V18.4H18.4z M23.8,27.4l20.9,0.2c-1.4,0.4-2.7,0.8-3.9,1.4l-17,0.2V27.4z M60.8,32.5
			c-0.1,0-0.1-0.1-0.2-0.1c-0.2-0.1-0.5-0.2-0.8-0.3c-1.4-0.5-3.6-1-6.9-1c-2.4,0-4.7,0.3-6.8,0.9c-0.8,0.2-1.7,0.5-2.4,0.8
			c-0.3,0.1-0.5,0.2-0.8,0.3c-0.1,0-0.1,0.1-0.2,0.1c-0.5,0.3-1.1,0.5-1.6,0.8c-0.2,0.1-0.3,0.2-0.5,0.3c-0.2,0.2-0.5,0.3-0.7,0.5
			c-0.3,0.2-0.5,0.4-0.8,0.6c-0.3,0.3-0.6,0.5-0.9,0.8c-0.5,0.4-0.9,0.9-1.3,1.3c0,0,0,0-0.1,0.1c-0.2,0.2-0.4,0.5-0.6,0.7
			c-0.1,0.2-0.3,0.4-0.4,0.6c-0.2,0.2-0.3,0.5-0.5,0.8c-0.1,0.2-0.2,0.4-0.4,0.7c0,0,0,0.1-0.1,0.1c-0.2,0.4-0.4,0.9-0.6,1.3
			c0,0,0,0,0,0c-0.1,0.3-0.2,0.5-0.3,0.8c-0.1,0.3-0.2,0.6-0.2,0.8c0,0.2-0.1,0.3-0.1,0.5c-0.1,0.3-0.1,0.6-0.1,0.8
			c-0.1,0.4-0.1,0.8-0.1,1.3c0,0.3,0,0.6,0,0.9c0,0,0,0,0,0c0,0.4,0,0.8,0,1.2c0,0.3,0.1,0.6,0.1,0.9c0.1,0.4,0.1,0.8,0.2,1.2
			c0.1,0.3,0.2,0.6,0.2,1c0.1,0.4,0.3,0.8,0.4,1.2c0.1,0.3,0.3,0.7,0.5,1c0.2,0.4,0.4,0.8,0.7,1.1c0.2,0.4,0.5,0.7,0.8,1.1
			c0.3,0.4,0.6,0.7,1,1.1c0.4,0.4,0.8,0.7,1.2,1l0,0c0.1,0,0.1,0.1,0.2,0.1c0.5,0.4,1,0.7,1.6,1c0.1,0.1,0.2,0.1,0.4,0.2
			c0.7,0.4,1.5,0.7,2.4,1c1.1,0.4,2.4,0.7,3.6,0.9c0.8,0.1,1.6,0.2,2.5,0.3c0-0.1,0-0.2,0-0.3c0-0.3,0-0.6,0-0.8c0-0.4,0-0.7,0-1.1
			c0-0.1,0-0.1,0-0.2c0-0.2,0-0.3,0-0.5c0-0.1,0-0.2,0-0.3c0-0.4,0-0.8,0-1.3c0-0.2,0-0.4,0-0.5c-0.7-0.1-1.4-0.2-2.1-0.4
			c-0.5-0.1-0.9-0.2-1.4-0.3c-0.5-0.1-0.9-0.3-1.3-0.4c-0.3-0.1-0.6-0.2-0.8-0.4c0,0-0.1,0-0.1-0.1c-0.3-0.1-0.6-0.3-0.8-0.5v0
			c-0.2-0.1-0.4-0.2-0.6-0.4c-0.1-0.1-0.2-0.1-0.2-0.2c-0.1-0.1-0.2-0.2-0.4-0.3c-0.3-0.2-0.5-0.5-0.8-0.8c-0.1-0.2-0.3-0.3-0.4-0.5
			c-0.1-0.2-0.2-0.4-0.3-0.5c-0.2-0.3-0.3-0.7-0.5-1c0,0,0,0,0,0c-0.1-0.3-0.2-0.7-0.3-1.1c-0.1-0.3-0.1-0.6-0.1-1
			c0-0.3-0.1-0.7-0.1-1.1c0,0,0-0.1,0-0.1c0-0.3,0-0.6,0-1c0-0.4,0.1-0.8,0.2-1.2c0.1-0.3,0.1-0.6,0.2-0.9c0.1-0.4,0.3-0.8,0.4-1.2
			c0,0,0-0.1,0-0.1c0.1-0.3,0.3-0.5,0.4-0.8c0,0,0-0.1,0.1-0.1c0.2-0.4,0.5-0.7,0.8-1.1c0.1-0.1,0.1-0.2,0.2-0.2
			c0.2-0.2,0.4-0.4,0.7-0.7c0.1-0.1,0.1-0.1,0.2-0.2c0.4-0.4,0.9-0.7,1.4-1c0.1,0,0.1-0.1,0.2-0.1c0.5-0.3,1-0.6,1.6-0.8h0
			c1.1-0.5,2.5-0.9,4-1.2c0.3-0.1,0.6-0.1,1-0.2c1.4-0.2,3-0.3,4.8-0.3c0.6,0,1.3,0,1.8,0c1.8,0.1,3.4,0.3,4.8,0.5
			c0.1,0,0.2,0,0.3,0c0.5,0.1,1.1,0.2,1.6,0.3c0.5,0.1,1,0.2,1.4,0.4c0.1,0,0.3,0.1,0.4,0.1c0.6,0.2,1.2,0.3,1.7,0.5
			c0.4,0.1,0.8,0.2,1.2,0.3c0,0,0,0,0,0v0c0,0.2,0,0.3,0,0.6c0,0.2,0,0.5,0,0.7c0,0.4,0,0.9,0,1.4c0,0.2,0,0.5,0,0.7
			c0,0.5,0,1,0,1.4c0,0.3,0,0.6,0,0.7c0,0.1,0,0.2,0,0.2c0,0-0.1-0.1-0.2-0.1c0,0,0,0,0,0c-0.2-0.2-0.5-0.4-0.9-0.7
			c-0.1,0-0.1-0.1-0.2-0.1c-0.6-0.4-1.3-0.8-2.3-1.3c-0.6-0.3-1.3-0.5-2.1-0.8c-0.5-0.2-1.1-0.3-1.7-0.5c-1.3-0.3-2.7-0.5-4.3-0.6
			c-0.5,0-1.1,0-1.6,0c-0.4,0-0.7,0-1,0c-2.4,0.1-4.3,0.4-5.9,1c-0.6,0.2-1.1,0.4-1.5,0.7c-0.2,0.1-0.5,0.3-0.7,0.4c0,0,0,0-0.1,0
			c-0.4,0.3-0.7,0.5-1,0.8c-0.1,0.1-0.1,0.1-0.1,0.2c-0.3,0.4-0.6,0.7-0.8,1.1c-0.1,0.1-0.1,0.2-0.2,0.3c-0.1,0.2-0.2,0.5-0.3,0.7
			c0,0,0,0,0,0c-0.1,0.4-0.2,0.7-0.3,1.1c-0.1,0.3-0.1,0.7-0.1,1c0,0,0,0,0,0.1c0,0.4,0,0.7,0.1,1c0.1,0.3,0.2,0.7,0.3,0.9
			c0,0,0.1,0.1,0.1,0.1c0.2,0.4,0.5,0.7,0.8,1c0,0,0.1,0.1,0.1,0.1c0.1,0.1,0.2,0.1,0.3,0.2c0.3,0.2,0.6,0.4,0.9,0.5
			c0.1,0,0.2,0.1,0.2,0.1c0,0,0,0,0,0c0.3,0.1,0.5,0.2,0.8,0.3c0,0,0,0,0.1,0c0,0,0,0,0,0c0.5,0.2,1.1,0.3,1.7,0.4
			c0.2,0,0.4,0.1,0.6,0.1c0-0.2,0-0.4,0-0.5c0-0.4,0-0.8,0-1.2c0-0.3,0-0.7,0-1c0-0.1,0-0.2,0-0.3c0-0.3,0-0.6,0-0.9
			c0-0.3-0.1-0.7-0.1-1c-0.1-0.4-0.1-0.8-0.2-1.1c-0.1-0.3-0.1-0.5-0.2-0.8c0-0.1,0-0.2-0.1-0.3c-0.1-0.2-0.1-0.4-0.1-0.5
			c0,0,0,0,0,0h0h0.7h0.7h3.4h6.6h1.7v0.6v0.8v1.3v0.8v1.4v0c0,0,0,0,0,0c-0.2-0.1-2.1-1-4.4-1.3c-0.4-0.1-0.9-0.1-1.3-0.1
			c-0.8,0-1.7,0-2.6,0c0,0,0,0.1,0,0.1c0,0.1,0,0.2,0,0.3h0v0.9v0.9v1.2v0.9v0.1v1.1v0.9v1.3v0.8v0.1v1.3v0.7h0c0,0,0,0.1,0,0.1
			c0,0.4,0,0.9,0,1.3c0,0.3,0,0.5,0,0.8c0,0.2,0,0.4,0,0.6c0,0,0.1,0,0.1,0c0.2,0,0.3,0,0.5,0c0.7,0,1.4-0.1,2-0.2c0,0,0,0,0,0
			c0.2,0,0.5-0.1,0.7-0.1c0.2,0,0.4-0.1,0.6-0.1c0.1,0,0.3-0.1,0.4-0.1c0.1,0,0.2-0.1,0.3-0.1c0,0,0.1,0,0.1,0
			c0.6-0.1,0.9-0.2,0.9-0.2v0.2v1.4v0.7v1.4v0.4c0,0-1.3,0.1-3.1,0.1c-0.4,0-0.8,0-1.2,0c-0.2,0-0.4,0-0.6,0c-0.9,0-1.8,0-2.6,0
			c-0.2,0-0.5,0-0.7,0c-1.3,0-2.2-0.1-3.2-0.2c-0.2,0-0.3,0-0.5-0.1c-0.9-0.1-1.7-0.3-2.5-0.4c-0.5-0.1-1.1-0.2-1.6-0.4
			c-0.9-0.3-1.8-0.5-2.6-0.9c-0.3-0.1-0.7-0.3-1-0.4c-0.3-0.2-0.7-0.3-1-0.5c-0.2-0.1-0.4-0.2-0.6-0.3c-0.5-0.3-0.9-0.6-1.3-0.8
			c-0.3-0.2-0.5-0.4-0.8-0.6c-0.1-0.1-0.2-0.1-0.3-0.2l0,0c0,0,0,0,0,0v0c-0.1-0.1-0.2-0.1-0.3-0.2c-0.3-0.2-0.5-0.4-0.7-0.6
			c-0.2-0.2-0.3-0.3-0.5-0.5c-0.3-0.3-0.5-0.6-0.8-0.9c-0.1-0.1-0.1-0.1-0.2-0.2c-0.3-0.3-0.5-0.7-0.8-1c-0.3-0.4-0.5-0.7-0.7-1.1
			c-0.1-0.2-0.3-0.5-0.4-0.7c0-0.1-0.1-0.2-0.1-0.2c-0.2-0.4-0.4-0.8-0.5-1.2c0,0,0,0,0,0c-0.1-0.2-0.2-0.5-0.3-0.7
			c0-0.1,0-0.1-0.1-0.2c-0.1-0.4-0.2-0.8-0.3-1.2c0,0,0-0.1,0-0.1c-0.1-0.2-0.1-0.5-0.2-0.7c-0.1-0.4-0.1-0.8-0.2-1.3
			c0-0.3-0.1-0.6-0.1-0.8c0-0.4,0-0.8,0-1.2c0,0,0-0.1,0-0.1c0-0.3,0-0.5,0-0.8c0-0.5,0.1-0.9,0.1-1.3c0-0.3,0.1-0.5,0.1-0.8
			c0.1-0.5,0.2-0.9,0.3-1.4c0.1-0.2,0.1-0.5,0.2-0.7c0.1-0.5,0.3-0.9,0.5-1.4c0.1-0.2,0.2-0.5,0.3-0.7c0,0,0,0,0-0.1
			c0.2-0.5,0.4-0.9,0.7-1.4c0.1-0.1,0.1-0.2,0.2-0.3c0.1-0.1,0.2-0.2,0.2-0.4c0.3-0.4,0.5-0.8,0.8-1.3c0-0.1,0.1-0.1,0.2-0.2
			c0.1-0.2,0.3-0.4,0.4-0.6c0,0,0.1-0.1,0.1-0.1h0c0.4-0.5,0.9-1,1.3-1.5h0c0.2-0.2,0.4-0.4,0.6-0.6c0,0,0.1,0,0.1-0.1
			c0.6-0.5,1.2-1,1.8-1.4c0.2-0.1,0.4-0.3,0.6-0.4c0.2-0.1,0.3-0.2,0.5-0.3c0.7-0.5,1.5-0.9,2.4-1.3c0.1,0,0.2-0.1,0.2-0.1
			c0.6-0.3,1.2-0.5,1.9-0.8c0,0,0,0,0,0c0.4-0.1,0.7-0.3,1.1-0.4c0.8-0.2,1.5-0.4,2.4-0.6c0.6-0.1,1.2-0.2,1.8-0.3
			c1.5-0.2,3.1-0.4,4.8-0.4c1.5,0,2.7,0,3.7,0.1c0.4,0,0.8,0.1,1.2,0.1c0.8,0.1,1.5,0.1,2.1,0.2c0.4,0,0.7,0.1,1.1,0.1
			c0.2,0,0.4,0,0.6,0c0,0,0.1,0,0.1,0c0,0,0,0,0,0c0,0,0,0,0,0c0,0.2,0,0.5,0,0.9c0,0.2,0,0.5,0,0.7c0,0.2,0,0.3,0,0.5
			c0,0.3,0,0.6,0,0.9c0,0.1,0,0.2,0,0.3c0,0.1,0,0.3,0,0.4c0,0.2,0,0.3,0,0.5c0,0.1,0,0.1,0,0.2c0,0.4,0,0.6,0,0.6
			S61.4,32.7,60.8,32.5z M61.4,35.1l-3.8,0c-0.8-0.1-1.7-0.1-2.6-0.1c-1.2,0-2.3,0.1-3.3,0.1l-0.4,0l-2.4,0c2.1-0.6,4.3-0.9,6.6-0.9
			C58.2,34.4,60.1,34.7,61.4,35.1z M46.5,36.2c-0.7,0.2-1.3,0.4-1.9,0.7c0.5-0.3,1-0.5,1.5-0.7L46.5,36.2z M40.2,40.5
			c-0.3,0.4-0.5,0.8-0.8,1.2l-0.2,0C39.5,41.3,39.8,40.9,40.2,40.5z M41.8,58.6c-0.7-0.3-1.3-0.6-1.9-1l5.8,0
			c0.8,0.4,1.6,0.7,2.5,0.9L41.8,58.6z M48.4,59.9v0.4c-0.9-0.1-1.8-0.2-2.6-0.4L48.4,59.9z M38.8,56.5c-0.2-0.3-0.4-0.7-0.6-1
			l4.6,0c0.3,0.4,0.7,0.7,1,1L38.8,56.5z M37.7,54.4c-0.1-0.4-0.3-0.7-0.4-1.1l3.2,0c0.4,0.4,0.8,0.7,1.3,1L37.7,54.4z M37.1,52.3
			c-0.1-0.4-0.1-0.8-0.2-1.1l2.1,0c0.2,0.4,0.4,0.7,0.6,1.1L37.1,52.3z M36.9,50.2c0-0.2,0-0.5,0-0.7c0-0.2,0-0.3,0-0.5l1.5,0
			c0.1,0.4,0.2,0.8,0.3,1.1L36.9,50.2z M38.2,46.9C38.2,46.9,38.2,47,38.2,46.9c0,0.5,0,0.8,0,1.2l-1.3,0c0-0.4,0.1-0.8,0.2-1.2
			L38.2,46.9z M37.3,46c0.1-0.4,0.2-0.8,0.4-1.2l0.7,0c-0.1,0.4-0.1,0.8-0.2,1.2L37.3,46z M38.6,43.8l-0.5,0
			c0.2-0.4,0.4-0.8,0.6-1.2l0.3,0C38.8,43,38.7,43.4,38.6,43.8z M64.4,30.8c0-0.2,0-0.3,0-0.4h0C64.4,30.5,64.4,30.7,64.4,30.8
			L64.4,30.8z M53.3,77.1c0,0.2,0,0.4,0,0.6c0,0.2,0,0.3,0,0.5c0,0.4,0.1,0.7,0.1,1c0,0,0,0,0,0.1c0,0.2,0,0.3,0.1,0.5c0,0,0,0,0,0
			c0.1,0.6,0.2,1.1,0.3,1.5c0,0.1,0,0.1,0,0.2c0,0.1,0.1,0.2,0.1,0.3c0,0,0,0,0,0.1c0.1,0.3,0.2,0.5,0.2,0.7
			c0.1,0.2,0.1,0.3,0.1,0.3h-4.1h-1h-1c0,0,0.1-0.4,0.3-1c0-0.2,0.1-0.4,0.1-0.6c0-0.1,0.1-0.3,0.1-0.4c0.1-0.3,0.1-0.7,0.2-1.1
			c0-0.2,0.1-0.4,0.1-0.6c0.1-0.5,0.1-1,0.2-1.4c0,0,0,0,0-0.1c0-0.2,0-0.4,0-0.6c0,0,0,0,0,0c0-0.1,0-0.1,0-0.2c0-0.2,0-0.7,0-1.3
			c0-0.2,0-0.4,0-0.6c0,0,0,0,0-0.1c0-0.1,0-0.2,0-0.3c0-0.4,0-0.7,0-1.2c0-0.1,0-0.3,0-0.4c0-0.1,0-0.2,0-0.3c0-0.2,0-0.5,0-0.7
			c0-0.2,0-0.5,0-0.7c0-0.2,0-0.3,0-0.5c0-0.1,0-0.2,0-0.2c0-0.4,0-0.9,0-1.4c0-0.2,0-0.5,0-0.7c0-0.2,0-0.4,0-0.6
			c0-0.2,0-0.5,0-0.7c0,0,0,0,0-0.1c0-0.1,0-0.2,0-0.3c0,0,0,0,0,0c0,0,0,0,0.1,0c0.7,0,1.4,0.1,2.1,0.1h0c0.3,0,0.7,0,1.2,0
			c0.2,0,0.5,0,0.7,0c0,0.1,0,0.1,0,0.2c0,0.1,0,0.2,0,0.4c0,0.2,0,0.5,0,0.7c0,0.1,0,0.2,0,0.3c0,0.2,0,0.5,0,0.7c0,0.5,0,1,0,1.4
			c0,0.1,0,0.2,0,0.3c0.5,0,0.9-0.1,1.4-0.1c0.4,0,0.8-0.1,1.2-0.1c0,0,0,0,0.1,0c0.2,0,0.5-0.1,0.7-0.1c0.2,0,0.4-0.1,0.6-0.1
			c1.4-0.3,2.6-0.7,3.7-1.2c0.4-0.2,0.8-0.4,1.1-0.6c0.3-0.2,0.5-0.4,0.7-0.5c0.4-0.3,0.7-0.6,0.9-1c0.1-0.1,0.1-0.2,0.2-0.2
			c0.1-0.1,0.2-0.3,0.3-0.4c0.3-0.5,0.5-1,0.7-1.5c0.1-0.2,0.1-0.4,0.1-0.6c0.1-0.4,0.1-0.7,0.1-1.1c0-0.1,0-0.2,0-0.4
			c0-0.2,0-0.4-0.1-0.6c0-0.1,0-0.2-0.1-0.3c0,0,0-0.1,0-0.1c-0.1-0.3-0.1-0.6-0.3-0.9c0-0.1-0.1-0.1-0.1-0.2
			c-0.1-0.2-0.2-0.5-0.4-0.7c-0.2-0.3-0.5-0.6-0.7-0.8c-0.3-0.2-0.5-0.4-0.8-0.6c-0.1-0.1-0.2-0.1-0.3-0.2c-0.3-0.2-0.7-0.4-1.1-0.5
			c-0.8-0.3-1.8-0.6-2.7-0.7c-0.4-0.1-0.8-0.1-1.2-0.2h0c-0.2,0-0.4-0.1-0.6-0.1c-0.1,0-0.1,0-0.2,0c-0.2,0-0.4,0-0.5-0.1
			c-0.1,0-0.2,0-0.2,0v-0.2v-0.8v-1.3v-0.8v-0.9c0.1,0,0.2,0,0.2,0c0.2,0,0.5,0.1,0.7,0.1c0.5,0.1,1.1,0.1,1.6,0.2
			c0.8,0.1,1.7,0.3,2.5,0.5c0.2,0.1,0.5,0.1,0.7,0.2c0.8,0.2,1.5,0.4,2.2,0.7c0.9,0.4,1.8,0.9,2.5,1.4c0.3,0.2,0.5,0.4,0.8,0.7
			c0,0,0,0,0.1,0.1c0.4,0.4,0.8,0.9,1.1,1.4c0,0,0,0,0,0c0.1,0.2,0.2,0.4,0.3,0.6c0.2,0.5,0.4,1,0.6,1.5c0.1,0.2,0.1,0.4,0.1,0.6
			c0.1,0.5,0.2,1,0.2,1.5c0,0.2,0,0.4,0,0.6c0,0.1,0,0.3,0,0.4c0,0.4,0,0.8-0.1,1.2c0,0.2-0.1,0.4-0.1,0.6c-0.1,0.5-0.3,1-0.5,1.6
			c-0.1,0.2-0.2,0.4-0.2,0.6c-0.2,0.5-0.5,1-0.9,1.6c-0.1,0.2-0.3,0.4-0.4,0.6c-0.4,0.5-0.9,1.1-1.5,1.6c-0.2,0.2-0.5,0.4-0.8,0.6
			c-0.8,0.6-1.7,1.1-2.7,1.5c-0.5,0.2-1,0.4-1.6,0.6c-2,0.7-4.4,1.1-7.2,1.2c0,0.1,0,0.2,0,0.3c0,0.2,0,0.4,0,0.6
			C53.3,76.2,53.3,76.7,53.3,77.1C53.3,77,53.3,77,53.3,77.1z M49.2,83.9c0,0,0.2-0.1,0.3-0.3h0C49.4,83.8,49.2,83.9,49.2,83.9z
			 M49.3,84.1L49.3,84.1l-0.1-0.1L49.3,84.1z M33.9,65c-0.4-0.3-0.5-0.5-0.5-0.5l-0.5-0.5l5.9,0c0.5,0.3,1,0.6,1.5,0.9L33.9,65z
			 M43,66.3c0.8,0.3,1.6,0.6,2.5,0.8l-8.2,0c-0.2-0.1-0.4-0.2-0.5-0.3c-0.4-0.2-0.7-0.4-1-0.6L43,66.3z M32.9,70.5
			c0-0.2,0-0.5,0-0.7c0-0.2,0-0.4,0-0.5c0-0.3,0-0.6,0-0.9c0-0.4,0-0.8,0-1.2c0-0.3,0-0.6,0-0.9c0-0.7,0-1.2,0-1.2s0.5,0.5,1.5,1.2
			c0.3,0.2,0.6,0.4,0.9,0.6c0.2,0.1,0.3,0.2,0.5,0.3c0.2,0.1,0.3,0.2,0.5,0.3c0.6,0.3,1.3,0.7,2,1c0,0,0,0,0,0
			c0.7,0.3,1.4,0.6,2.1,0.8c0.1,0,0.1,0,0.2,0.1c0.4,0.1,0.9,0.3,1.4,0.4c1.2,0.3,2.5,0.6,4,0.8c0.2,0,0.3,0,0.5,0.1
			c0.1,0,0.2,0,0.3,0v0v0.7v1.4v0.7v1c-1.2-0.1-2.3-0.2-3.3-0.4c-0.3-0.1-0.7-0.1-1-0.2c-0.3-0.1-0.5-0.1-0.8-0.2
			c-0.3-0.1-0.5-0.1-0.8-0.2c-0.4-0.1-0.8-0.2-1.3-0.4c-0.4-0.1-0.8-0.3-1.3-0.4c-1.4-0.5-2.7-1-3.9-1.3c-0.5-0.2-1.1-0.3-1.6-0.5
			C32.9,70.8,32.9,70.7,32.9,70.5z M43,69.2c-1-0.2-1.9-0.5-2.7-0.8l8.2,0v0.8L43,69.2z M48.4,70.6v0.2v0.5l-0.7-0.7L48.4,70.6z
			 M62.3,64.9v-0.7c0.7,0,1.3,0,2,0c0,0.2-0.1,0.4-0.2,0.6L62.3,64.9z M63.3,66.4c-0.2,0.2-0.4,0.4-0.6,0.6l-0.4,0v-0.6
			C62.6,66.4,63,66.4,63.3,66.4z M62.3,62.8L62.3,62.8l-0.2-0.2l-0.5-0.5c0.9,0,1.8,0,2.7,0c0,0.2,0.1,0.4,0.1,0.6L62.3,62.8z
			 M60.2,60.7l-0.5-0.5c0.9,0.1,1.7,0.3,2.4,0.5L60.2,60.7z M60.6,68.5c-0.5,0.2-1,0.5-1.6,0.7l-2.4,0L56.4,69l-0.5-0.5
			C57.3,68.5,58.9,68.5,60.6,68.5z M57.9,59.9L57.9,59.9c-0.3,0.1-0.8,0.2-1.3,0.3v-0.3C57,59.9,57.5,59.9,57.9,59.9z M56.8,57.8
			l0.8,0.8h0L56.8,57.8z M63,52.1l-4.9,0c-0.5-0.1-1-0.1-1.5-0.2v-0.3l0-0.3c1.2,0,2.4,0,3.8,0C61.4,51.6,62.4,51.9,63,52.1z
			 M61.8,43.5l-0.3,0.1l-0.6,0h-7.6h-1.6c1.7-0.5,3.7-0.8,6.1-0.8c3,0,5.2,0.3,6.9,0.7l-2.8,0L61.8,43.5z M63.2,45
			c1.6,0,3.2,0,4.8,0c0.1,0.1,0.3,0.2,0.4,0.3c0.2,0.1,0.4,0.3,0.6,0.4l-5.1,0L63.2,45z M50.2,43.4c-0.2,0.1-0.3,0.1-0.5,0.2h0
			C49.8,43.6,50,43.5,50.2,43.4z M48.3,47c0,0.3,0.1,0.7,0.1,1l-1.7,0c0.1-0.4,0.2-0.7,0.4-1L48.3,47z M47.8,45.9
			c0.1-0.1,0.1-0.1,0.2-0.2c0,0.1,0,0.1,0,0.2L47.8,45.9z M48.4,49.1v1l-2,0c0-0.2,0-0.3,0-0.5c0-0.2,0-0.3,0-0.5L48.4,49.1z
			 M23.8,29.5l15.5,0.2c-0.8,0.4-1.6,0.9-2.3,1.4l-13.2,0.1V29.5z M23.8,31.7l12.3,0.1c-0.4,0.3-0.8,0.6-1.2,1
			c-0.2,0.2-0.3,0.3-0.5,0.5l-10.6,0.1V31.7z M23.8,33.8l9.9,0.1c-0.4,0.5-0.9,1-1.3,1.5l-8.7,0.1V33.8z M23.8,36l8.2,0.1
			c-0.3,0.5-0.7,1-1,1.5l-7.2,0.1V36z M23.8,38.2l6.9,0.1c-0.3,0.5-0.5,1-0.7,1.5l-6.2,0.1V38.2z M23.8,40.3l5.9,0.1
			c-0.2,0.5-0.3,0.9-0.5,1.4l-5.4,0V40.3z M23.8,42.5l5.2,0c-0.1,0.5-0.2,0.9-0.3,1.4l-4.9,0V42.5z M23.8,44.6l4.8,0
			c-0.1,0.5-0.1,0.9-0.1,1.4l-4.7,0V44.6z M23.8,46.8l4.7,0c0,0,0,0.1,0,0.1c0,0.4,0,0.8,0,1.2l-4.7,0V46.8z M23.8,48.9l4.8,0
			c0,0.4,0.1,0.9,0.2,1.3l-5,0V48.9z M23.8,51.1l5.2,0c0.1,0.4,0.2,0.8,0.3,1.2l-5.5,0V51.1z M23.8,53.3l5.8,0
			c0.1,0.4,0.3,0.8,0.5,1.2l-6.3,0V53.3z M23.8,55.4l6.8,0c0.2,0.4,0.4,0.8,0.7,1.1l-7.5,0V55.4z M23.8,57.6l8.2,0
			c0.3,0.4,0.6,0.7,0.9,1.1l-9.1,0.1V57.6z M23.8,59.7L34,59.8c0.3,0.2,0.5,0.5,0.8,0.7c0.1,0.1,0.2,0.2,0.2,0.3l-11.3,0.1V59.7z
			 M23.8,61.9L36.2,62c0.3,0.3,0.7,0.6,1,0.9L23.9,63C23.9,62.6,23.9,62.2,23.8,61.9z M24,64l8.2,0l0,1l-8,0
			C24.1,64.7,24.1,64.4,24,64z M24.4,66.2l7.8,0v0.9l-7.6,0C24.5,66.9,24.4,66.5,24.4,66.2z M24.9,68.4l7.2,0v0.9l-6.9,0
			C25.1,69,25,68.7,24.9,68.4z M25.7,70.5l6.4,0v0.1L31.9,71l0.2,0.2v0.2l-6,0C26,71.1,25.9,70.8,25.7,70.5z M26.8,72.7l6.8,0
			l0.8,0.8l-7.2,0C27.1,73.2,27,73,26.8,72.7z M28.7,75.6c-0.2-0.3-0.4-0.5-0.6-0.8l9.2,0c0.4,0.1,0.8,0.3,1.3,0.5
			c0.3,0.1,0.5,0.2,0.8,0.3L28.7,75.6z M29.8,77l14.4,0c1.3,0.3,2.6,0.5,4.1,0.7l-17.9,0C30.2,77.5,30,77.3,29.8,77z M31.8,79.2
			l16.5,0c0,0.2-0.1,0.4-0.1,0.6l-15.6,0C32.3,79.6,32,79.4,31.8,79.2z M34.3,81.4C34.2,81.4,34.2,81.3,34.3,81.4l13.6-0.1
			c-0.1,0.2-0.1,0.4-0.1,0.6L35,82C34.7,81.8,34.5,81.6,34.3,81.4z M37,83.5l10.3,0l0,0.1l1,0h0.3l-0.3,0.3l0.2,0.2l-10.5,0
			C37.6,83.9,37.3,83.7,37,83.5z M40.1,85.6l9.7,0l0.4,0.4l0.1,0.1l-9.4,0C40.7,86,40.4,85.8,40.1,85.6z M52.6,90.4h-1.5h-3
			c-0.3-0.2-0.6-0.3-0.9-0.5h3.9h2.6C53.3,90.1,52.9,90.3,52.6,90.4z M56.8,88.3l-5.8,0l-6.7,0c-0.3-0.2-0.6-0.3-0.9-0.5l7.5,0
			c0,0,2.8,0,6.7,0C57.5,88,57.1,88.1,56.8,88.3z M60.6,86.2l-2.7,0l-0.2-0.5c1.2,0,2.4,0,3.8,0C61.2,85.8,60.9,86,60.6,86.2z
			 M63.9,84l-6.7,0c0-0.2-0.1-0.4-0.1-0.5c2.2,0,4.9,0,7.6,0C64.4,83.7,64.1,83.9,63.9,84z M66.7,81.9l-9.9,0c0-0.2-0.1-0.4-0.1-0.6
			c3,0,6.9,0,10.6,0C67.1,81.6,66.9,81.7,66.7,81.9z M69,79.8l-12.4,0c0-0.1,0-0.1,0-0.2v-0.4c3.6,0,8.5,0,12.8,0.1
			C69.3,79.4,69.1,79.6,69,79.8z M70.8,77.6l-11.7,0c1-0.1,2-0.3,2.9-0.6c3,0,6.2,0,9.1,0.1C71.1,77.3,71,77.5,70.8,77.6z
			 M72.4,75.5l-6.2,0c0.3-0.2,0.6-0.4,0.9-0.5c1.9,0,3.8,0,5.6,0C72.6,75.2,72.5,75.3,72.4,75.5z M73.6,73.4l-4.4,0c0,0,0,0,0,0
			c0.2-0.2,0.3-0.3,0.5-0.5c1.5,0,2.9,0,4.1,0C73.8,73.1,73.7,73.2,73.6,73.4z M74.6,71.2l-3.6,0c0.1-0.2,0.2-0.3,0.3-0.5
			c1.2,0,2.4,0,3.5,0C74.7,70.9,74.7,71.1,74.6,71.2z M75.4,69.1l-3.3,0c0.1-0.2,0.1-0.3,0.2-0.5c1.2,0,2.3,0,3.3,0
			C75.5,68.8,75.4,68.9,75.4,69.1z M75.9,67l-3.3,0c0-0.2,0-0.4,0.1-0.5c1.2,0,2.4,0,3.4,0C76,66.7,75.9,66.8,75.9,67z M76.3,64.8
			l-3.6,0c0-0.2,0-0.4,0-0.5c1.4,0,2.6,0,3.7,0C76.3,64.5,76.3,64.7,76.3,64.8z M76.5,62.7l-4.1,0c0-0.2-0.1-0.4-0.1-0.5
			c1.6,0,3,0,4.3,0C76.5,62.4,76.5,62.5,76.5,62.7z M76.5,60.6l-4.9,0c-0.1-0.2-0.2-0.4-0.3-0.6c2,0,3.8,0,5.3,0.1V60.6z M76.5,58.4
			l-6.5,0c-0.2-0.2-0.4-0.4-0.7-0.6c2.7,0,5.2,0,7.2,0.1V58.4z M76.5,56.3l-8.7,0.1c-0.2-0.2-0.4-0.4-0.6-0.6c3.4,0,6.8,0.1,9.3,0.1
			V56.3z M76.5,54.2l-11.3,0.1c-0.5-0.3-1-0.5-1.5-0.7c4.6,0,9.5,0.1,12.8,0.1V54.2z M76.5,52l-11.5,0.1l0-0.2v-0.5
			c4.2,0,8.5,0.1,11.5,0.1V52z M76.5,49.9L64.9,50v-0.7c4.2,0,8.5,0.1,11.5,0.1V49.9z M76.5,47.8l-11.5,0.1v-0.7
			c4.2,0,8.5,0.1,11.5,0.1V47.8z M76.5,45.6l-4.7,0V45c1.7,0,3.4,0,4.7,0.1V45.6z M76.5,43.5l-4.7,0v-0.6c1.7,0,3.4,0,4.7,0.1V43.5z
			 M76.5,41.4l-4.7,0v-0.6c1.7,0,3.4,0,4.7,0.1V41.4z M76.5,39.2l-5.8,0.1L70,38.6c2.4,0,4.7,0.1,6.5,0.1V39.2z M76.5,37.1L68,37.2
			c-0.1,0-0.3-0.1-0.4-0.1c-0.7-0.2-1.5-0.4-2.3-0.6c4.1,0,8.3,0.1,11.3,0.1V37.1z M76.5,35L65,35.1c0-0.2,0-0.5,0-0.8
			c4.2,0,8.4,0.1,11.5,0.1V35z M76.5,32.8L65,33c0-0.3,0-0.6,0-0.8c4.1,0,8.4,0.1,11.4,0.1V32.8z M76.5,30.7l-11.4,0.1
			c0-0.2,0-0.3,0-0.4V30c4.1,0,8.4,0.1,11.4,0.1V30.7z M76.5,28.6l-12.8,0.1c0,0,0-0.1-0.1-0.1c-0.3-0.3-0.6-0.6-0.8-0.8
			c4.8,0.1,10.1,0.1,13.7,0.2V28.6z M76.5,26.4l-20.3,0.2c-0.9-0.1-2-0.1-3.3-0.1c-1.2,0-2.3,0.1-3.4,0.2l-25.7,0.3v-1.8l27.6,0.3
			c0,0,16.9,0.2,25.1,0.3V26.4z M76.5,24.3l-25.1,0.3l-27.6,0.3v-1.9l27.6,0.3l25.1,0.3V24.3z"/>
	</g>
</g>
<g id="Guides" class="st1">
	<rect x="0" y="0" class="st2" width="100.3" height="108"/>
	<line class="st3" x1="0" y1="16" x2="100.3" y2="16"/>
	<line class="st3" x1="0" y1="32" x2="100.3" y2="32"/>
	<line class="st3" x1="0" y1="64" x2="100.3" y2="64"/>
	<line class="st3" x1="0" y1="48" x2="100.3" y2="48"/>
	<line class="st3" x1="0" y1="80" x2="100.3" y2="80"/>
	<line class="st3" x1="0" y1="96" x2="100.3" y2="96"/>
	<line class="st3" x1="16" y1="0" x2="16" y2="107.9"/>
	<line class="st3" x1="84.3" y1="0" x2="84.3" y2="107.9"/>
</g>
</svg>
