<?xml version="1.0" encoding="utf-8"?>
<!-- Generator: Adobe Illustrator 27.7.0, SVG Export Plug-In . SVG Version: 6.00 Build 0)  -->
<svg version="1.1" xmlns="http://www.w3.org/2000/svg" xmlns:xlink="http://www.w3.org/1999/xlink" x="0px" y="0px"
	 viewBox="0 0 96.4 179.5" style="enable-background:new 0 0 96.4 179.5;" xml:space="preserve">
<style type="text/css">
	.st0{fill:none;stroke:#00AEEF;stroke-width:0.25;stroke-miterlimit:10;stroke-dasharray:5,5;}
	.st1{fill:#2D903C;}
	.st2{display:none;}
	.st3{display:inline;fill:none;stroke:#00AEEF;stroke-width:0.1211;stroke-miterlimit:10;stroke-dasharray:2.4219,2.4219;}
	.st4{display:inline;fill:none;stroke:#00AEEF;stroke-width:0.1211;stroke-miterlimit:10;}
</style>
<g id="Artwork">
	<line class="st0" x1="-317.4" y1="618.1" x2="-118.4" y2="618.1"/>
	<g>
		<path d="M9.3,78.1v52.2c0,10.4,4.8,19.8,13.8,27.3c7.4,6.1,16,9.6,21.9,11.5l3,1l3-0.9c4.9-1.5,14.2-5,22.1-11.4
			c9-7.3,13.8-16.5,13.8-26.6V78.1H9.3z M45.1,147c-7.7-0.4-13.2-3.4-17.2-4.4c0-1.8,0-7.3,0-7.3s5.7,5.5,17.2,6.9V147z M23.4,112.9
			c0-12.5,10.6-24.3,29.3-24.3c5.9,0,8.4,0.6,10.9,0.6c0,1.4-0.2,6.3-0.2,6.3s-3.1-2.3-10.8-2.3c-13.2,0-24,7.5-24,19.7
			c0,11.3,8.6,16.7,19.4,17.5c0-2.1,0-4.3,0-6.3c-6.8-1-12.7-3.1-12.7-11.1c0-5.3,2.6-13.9,20.1-13.9c7.6,0,12.7,1.7,16.5,2.8
			c0,2,0,7,0,7s-5.2-5.2-16.5-5.2c-10.6,0-14.9,4.1-14.9,9.3c0,3.8,3.2,5.2,7.5,6c0-1.3,0-2.6,0-3.7c0-2.7-0.9-5.6-0.9-5.6h16.3v6.1
			c0,0-3.6-1.8-7.1-1.8c-1,0-2.1,0-3.2,0v16.7c3.4,0,7.1-1.1,7.1-1.1v5.2c0,0-5.2,0.2-9.4,0.2c-2.3,0-3.8-0.1-5.3-0.3
			C31.1,132.9,23.4,124.1,23.4,112.9z M53.2,147.3c0,1.4,0,2.5,0,3c0,3.9,1.2,7.3,1.2,7.3h-7.5c0,0,1.2-3.6,1.2-7.5
			c0-0.4,0-10.7,0-12.4h0c0,0,1.5,0.1,2.6,0.1c1.1,0,2.5,0,2.5,0c0,1.8,0,3.4,0,5c9.4-0.5,14.7-4.2,14.7-9.6c0-5.9-5.4-7.3-11.7-8
			v-5.1c8.4,0.9,16.9,2.6,16.9,13.1C73.1,138.1,69.1,146.6,53.2,147.3z"/>
	</g>
	<path class="st1" d="M5.9,74.6v55.7c0,11.5,5.2,21.8,15.1,30c7.8,6.4,16.9,10.2,23.1,12.2l4.1,1.3l4.1-1.3
		c5.1-1.6,14.9-5.3,23.2-12c9.9-8,15.1-18.1,15.1-29.3V74.6H5.9z M85.3,131.1c0,9.5-4.6,18.3-13.2,25.3c-7.6,6.2-16.8,9.6-21.5,11.1
		l-2.5,0.8l-2.5-0.8c-5.8-1.9-14.2-5.3-21.4-11.2c-8.6-7.1-13.2-16.1-13.2-25.9V79.8h74.2V131.1z"/>
	<rect x="5.9" y="49.9" class="st1" width="84.7" height="1.9"/>
	<g>
		<path d="M58.7,59.1l-0.3,1.5c0,0,1-0.3,1.6-0.3c0.7,0,0.8,0,0.8,0s0,5,0,5.8c0,0.6-0.2,1.1-0.2,1.1h2.1c0,0-0.2-0.5-0.2-1.1
			c0-0.8,0-5.8,0-5.8s0,0,0.8,0c0.8,0,1.6,0.3,1.6,0.3l-0.3-1.5H58.7z"/>
		<path d="M56.7,63.5c-0.5-1.4-1-2.8-1.2-3.3c-0.2-0.6,0.1-1.1,0.1-1.1h-0.8h-1.6h-0.8c0,0,0.3,0.5,0.1,1.1
			c-0.1,0.4-0.7,1.9-1.2,3.3c-0.3,0.9-0.8,2.4-0.9,2.7c-0.2,0.6-0.7,1.1-0.7,1.1h2.1c0,0-0.1-0.5,0.2-1.1c0-0.1,0.1-0.3,0.2-0.6h3.5
			c0.1,0.3,0.2,0.5,0.2,0.6c0.2,0.6,0.2,1.1,0.2,1.1h2.1c0,0-0.4-0.6-0.7-1.1C57.5,65.8,57,64.4,56.7,63.5z M52.7,64.3
			c0.1-0.3,0.2-0.6,0.3-0.8c0.4-1.1,0.8-2.3,1-2.9c0.2,0.6,0.6,1.8,1,2.9c0.1,0.3,0.2,0.5,0.3,0.8H52.7z"/>
		<path d="M16.7,59c-2.8,0-4,2.2-4,4.2c0,2,1.2,4.2,4,4.2c2.8,0,4-2.2,4-4.2C20.7,61.2,19.5,59,16.7,59z M16.7,66.1
			c-1.8,0-2.4-1.5-2.4-2.9c0-1.5,0.6-2.9,2.4-2.9c1.8,0,2.4,1.5,2.4,2.9C19.1,64.6,18.5,66.1,16.7,66.1z"/>
		<path d="M77.8,59c-2.8,0-4,2.2-4,4.2c0,2,1.2,4.2,4,4.2c2.8,0,4-2.2,4-4.2C81.8,61.2,80.6,59,77.8,59z M77.8,66.1
			c-1.8,0-2.4-1.5-2.4-2.9c0-1.5,0.6-2.9,2.4-2.9c1.8,0,2.4,1.5,2.4,2.9C80.1,64.6,79.5,66.1,77.8,66.1z"/>
		<path d="M45.1,59.1L45.1,59.1l-3.5,0c0,0,0.2,0.6,0.2,1.2c0,0.5,0,5.1,0,5.9c0,0.8-0.2,1.2-0.2,1.2h3.5c2.8,0,4.2-2.1,4.2-4.1
			C49.3,61.2,47.9,59.1,45.1,59.1z M45.1,66L45.1,66c-0.8,0-1.6,0-1.6,0v-5.7c0,0,0.7,0,1.6,0c1.8,0,2.6,1.4,2.6,2.8
			C47.7,64.6,46.9,66,45.1,66z"/>
		<path d="M39.3,59.1h-1.9c0,0,0.2,0.4,0.2,1.2c0,0.7,0,4.4,0,4.4l0,0l-3.5-5.5h-1.9c0,0,0.2,0.5,0.2,1.2c0,0.6,0,5.4,0,5.9
			c0,0.6-0.2,1.1-0.2,1.1h1.9c0,0-0.2-0.6-0.2-1.1c0-0.6,0-4.3,0-4.3l0,0l3.5,5.5h1.8c0,0-0.2-0.5-0.2-1.3c0-1.9,0-5.2,0-5.8
			C39,59.4,39.3,59.1,39.3,59.1z"/>
		<path d="M90.6,60.2c0-0.8,0.2-1.2,0.2-1.2h-1.9c0,0,0.2,0.4,0.2,1.2c0,0.7,0,4.4,0,4.4l0,0l-3.5-5.5h-1.9c0,0,0.2,0.5,0.2,1.2
			c0,0.6,0,5.4,0,5.9c0,0.6-0.2,1.1-0.2,1.1h1.9c0,0-0.2-0.6-0.2-1.1c0-0.6,0-4.3,0-4.3l0,0l3.5,5.5h1.8c0,0-0.2-0.5-0.2-1.3
			C90.6,64.1,90.6,60.8,90.6,60.2z"/>
		<path d="M5.6,59.1c0,0,0.2,0.6,0.2,1.2c0,0.3,0,2,0,3.6c0,1,0,2,0,2.3c0,0.6-0.2,1.1-0.2,1.1h2.1c0,0-0.2-0.5-0.2-1.1
			c0-0.3,0-1.4,0-2.4c0,0,0.7,0,1.4,0s1.4,0.2,1.4,0.2v-1.6c0,0-0.8,0.2-1.4,0.2c-0.6,0-1.4,0-1.4,0v-2.1c0,0,2,0,3,0
			s1.3,0.4,1.3,0.4l-0.3-1.6H5.6z"/>
		<path d="M30.1,59.1h-0.2h-0.5h-0.7h-0.5H28c0,0,0.2,0.6,0.2,1.2l0,0v3.4c0,1.5-0.2,2.4-2,2.4s-2-0.9-2-2.4v-3.4l0,0
			c0-0.5,0.2-1.2,0.2-1.2h-0.2H24h-0.9h-0.4h-0.2c0,0,0.2,0.6,0.2,1.2l0,0v3.4c0,2.3,0.8,3.7,3.6,3.7c2.8,0,3.6-1.4,3.6-3.7v-3.4
			l0,0C29.9,59.7,30.1,59.1,30.1,59.1z"/>
		<path d="M71.1,66c-0.6,0-0.9,0-0.9,0v-5.6c0,0,0.3,0,0.9,0c0.8,0,1.6,0.1,1.6,0.1l-0.3-1.3h-2.2h-1.7h-2.2l-0.3,1.3
			c0,0,0.7-0.1,1.6-0.1c0.5,0,0.9,0,0.9,0V66c0,0-0.3,0-0.9,0c-0.8,0-1.6-0.1-1.6-0.1l0.3,1.4h2.2h1.7h2.2l0.3-1.4
			C72.7,65.9,71.9,66,71.1,66z"/>
	</g>
	<g>
		<g>
			<path d="M69.3,18.3v-4.2c0,0,1.3,0,2.5,0c1.2,0,2.5,0.3,2.5,0.3v-2.8c0,0-1.5,0.3-2.6,0.3c-1.1,0-2.5,0-2.5,0V8.2
				c0,0,3.7,0,5.3,0c1.6,0,2.4,0.6,2.4,0.6l-0.6-2.9H65.9c0,0,0.4,1.1,0.4,2.1c0,1,0,9,0,10.5c0,1.4-0.4,2.1-0.4,2.1h10.6l0.6-2.9
				c0,0-1.1,0.6-2.4,0.6C73.4,18.3,69.3,18.3,69.3,18.3z"/>
			<path d="M36.5,5.9l-0.6,2.8c0,0,1.8-0.5,2.9-0.5s1.5,0,1.5,0s0,8.8,0,10.3c0,1-0.4,2.1-0.4,2.1h3.8c0,0-0.4-0.9-0.4-2.1
				c0-1.4,0-10.3,0-10.3s0,0,1.5,0c1.5,0,2.9,0.5,2.9,0.5l-0.6-2.8H36.5z"/>
			<path d="M36.5,5.9l-0.6,2.8c0,0,1.8-0.5,2.9-0.5s1.5,0,1.5,0s0,8.8,0,10.3c0,1-0.4,2.1-0.4,2.1h3.8c0,0-0.4-0.9-0.4-2.1
				c0-1.4,0-10.3,0-10.3s0,0,1.5,0c1.5,0,2.9,0.5,2.9,0.5l-0.6-2.8H36.5z"/>
			<path d="M5.6,13.3c0,4.8,3.9,7.5,8,7.5c2,0,3.7-0.7,4.7-1.3v-2.7c0,0-1.8,1.5-4.6,1.5c-2.8,0-5.2-1.4-5.2-5.1s2.4-5.1,5.2-5.1
				c2.8,0,4.6,1.5,4.6,1.5V7c-1-0.6-2.7-1.3-4.7-1.3C9.4,5.7,5.6,8.4,5.6,13.3z"/>
		</g>
		<path d="M82.8,9.7c0-1.3,1.3-1.8,2.6-1.8c3.1,0,4.8,2.1,4.8,2.1V7.2c-0.6-0.6-2.1-1.5-4.8-1.5c-3.2,0-5.5,1.9-5.5,4.1
			c0,5,8,4.3,8,7.2c0,1.4-1.1,1.7-2.6,1.7c-3.4,0-5.5-2.5-5.5-2.5V19c0.6,0.7,2.7,1.8,5.3,1.8c2.9,0,5.6-1.1,5.6-4.1
			C90.8,11.8,82.8,12.4,82.8,9.7z"/>
		<path d="M59.6,18.3c-1,0-1.5,0-1.5,0v-10c0,0,0.6,0,1.5,0c1.5,0,2.8,0.1,2.8,0.1l-0.5-2.4H58h-3h-3.8l-0.5,2.4
			c0,0,1.3-0.1,2.8-0.1c1,0,1.5,0,1.5,0v10c0,0-0.5,0-1.5,0c-1.5,0-2.9-0.2-2.9-0.2l0.6,2.5h3.8h3h3.8l0.6-2.5
			C62.5,18.1,61.1,18.3,59.6,18.3z"/>
		<path d="M30.2,18.3c-1,0-1.5,0-1.5,0v-10c0,0,0.6,0,1.5,0c1.5,0,2.8,0.1,2.8,0.1l-0.5-2.4h-3.8h-3h-3.8l-0.5,2.4
			c0,0,1.3-0.1,2.8-0.1c1,0,1.5,0,1.5,0v10c0,0-0.5,0-1.5,0c-1.5,0-2.9-0.2-2.9-0.2l0.6,2.5h3.8h3h3.8l0.6-2.5
			C33.1,18.1,31.7,18.3,30.2,18.3z"/>
	</g>
	<g>
		<path d="M18.7,27.9l-0.6,2.8c0,0,1.8-0.5,2.9-0.5s1.5,0,1.5,0s0,8.8,0,10.3c0,1-0.4,2.1-0.4,2.1h3.8c0,0-0.4-0.9-0.4-2.1
			c0-1.4,0-10.3,0-10.3s0,0,1.5,0c1.5,0,2.9,0.5,2.9,0.5l-0.6-2.8H18.7z"/>
		<path d="M53.4,27.7c-5.1,0-7.2,4-7.2,7.5s2.1,7.5,7.2,7.5s7.2-4,7.2-7.5S58.5,27.7,53.4,27.7z M53.4,40.5c-3.2,0-4.2-2.6-4.2-5.2
			c0-2.6,1.1-5.2,4.2-5.2s4.2,2.6,4.2,5.2C57.7,37.9,56.6,40.5,53.4,40.5z"/>
		<path d="M75.8,27.9h-3.5c0,0,0.4,0.8,0.4,2.1c0,1.3,0,7.8,0,7.8l-0.1,0l-6.2-9.9h-3.4c0,0,0.4,1,0.4,2.1c0,1.1,0,9.5,0,10.5
			s-0.4,2.1-0.4,2.1h3.5c0,0-0.4-1-0.4-2.1s0-7.6,0-7.6l0.1,0l6.2,9.7h3.2c0,0-0.3-0.9-0.3-2.3c0-3.3,0-9.3,0-10.3
			C75.4,28.6,75.8,27.9,75.8,27.9z"/>
		<path d="M87.2,35.3c0,0,0.6,1.1,0.6,2.2c0,1.1,0,2.5,0,2.5c-0.2,0.1-0.7,0.3-1.1,0.4c-0.4,0.1-0.8,0.2-1.4,0.2
			c-2.2,0-4.1-1.2-4.1-4.9s1.8-5.5,4.6-5.5c2.8,0,4.6,1.5,4.6,1.5V29c-1.2-0.8-2.7-1.3-4.7-1.3c-4.1,0-7.4,3.1-7.4,7.9
			c0,4.1,2.7,7.1,6.7,7.1c1.4,0,2.5-0.2,3.5-0.6c0.9-0.4,1.6-0.8,2.1-1.3c0,0,0-1.7,0-3.4c0-1.5,0.5-2.3,0.5-2.3H87.2z"/>
		<path d="M42.3,39.1c-0.2-0.6-0.7-1.8-1.4-2.2c1.6-0.7,2.8-2.2,2.8-4.4c0-2.9-2.2-4.6-5.3-4.6h-6.7c0,0,0.4,1,0.4,2.1
			c0,1.1,0,9.4,0,10.5c0,1.1-0.4,2.1-0.4,2.1h3.8c0,0-0.4-1-0.4-2.1c0-1.1,0-3.1,0-3.1h3.2c0,0,1,2.1,1.3,2.9
			c0.9,1.9,1.9,2.3,3.3,2.3s2.2-0.6,2.2-0.6l-0.4-0.9C43.9,41.2,42.9,40.7,42.3,39.1z M35.1,35.1v-4.9c0,0,2,0,3.3,0
			c1.5,0,2.4,0.9,2.4,2.5c0,1.4-0.9,2.5-2.5,2.5H35.1z"/>
		<path d="M8.7,31.7c0-1.3,1.3-1.8,2.6-1.8c3.1,0,4.8,2.1,4.8,2.1v-2.8c-0.6-0.6-2.1-1.5-4.8-1.5c-3.2,0-5.5,1.9-5.5,4.1
			c0,5,8,4.3,8,7.2c0,1.4-1.1,1.7-2.6,1.7c-3.4,0-5.5-2.5-5.5-2.5V41c0.6,0.7,2.7,1.8,5.3,1.8c2.9,0,5.6-1.1,5.6-4.1
			C16.6,33.8,8.7,34.4,8.7,31.7z"/>
	</g>
</g>
<g id="Guides" class="st2">
	<polyline class="st3" points="0,73.1 48.1,73.1 96.4,73.1 	"/>
	<polyline class="st3" points="5.9,0 5.9,5.9 5.9,179.6 	"/>
	<polyline class="st3" points="90.6,0 90.6,5.9 90.6,73.1 	"/>
	<line class="st3" x1="90.6" y1="40.9" x2="90.6" y2="179.6"/>
	<line class="st3" x1="93.5" y1="179.6" x2="93.5" y2="0"/>
	<line class="st3" x1="2.9" y1="179.6" x2="2.9" y2="0"/>
	<line class="st3" x1="0" y1="3" x2="96.4" y2="3"/>
	<line class="st3" x1="0" y1="5.9" x2="96.4" y2="5.9"/>
	<polyline class="st3" points="0,173.7 48.4,173.7 96.4,173.7 	"/>
	<line class="st3" x1="0" y1="14.7" x2="96.4" y2="14.7"/>
	<polyline class="st3" points="0,8.9 48.1,8.9 96.4,8.9 	"/>
	<line class="st3" x1="0" y1="11.8" x2="96.4" y2="11.8"/>
	<line class="st3" x1="0" y1="17.7" x2="96.4" y2="17.7"/>
	<line class="st3" x1="0" y1="26.4" x2="96.4" y2="26.4"/>
	<line class="st3" x1="0" y1="27.9" x2="96.4" y2="27.9"/>
	<polyline class="st3" points="0,20.6 48.1,20.6 96.4,20.6 	"/>
	<line class="st3" x1="0" y1="23.5" x2="96.4" y2="23.5"/>
	<line class="st3" x1="0" y1="30.8" x2="96.4" y2="30.8"/>
	<line class="st3" x1="0" y1="33.8" x2="96.4" y2="33.8"/>
	<polyline class="st3" points="0,36.7 48.1,36.7 96.4,36.7 	"/>
	<line class="st3" x1="0" y1="39.6" x2="96.4" y2="39.6"/>
	<line class="st3" x1="0" y1="42.5" x2="96.4" y2="42.5"/>
	<line class="st3" x1="0" y1="45.5" x2="96.4" y2="45.5"/>
	<line class="st3" x1="0" y1="48.4" x2="96.4" y2="48.4"/>
	<line class="st3" x1="0" y1="51.7" x2="96.4" y2="51.7"/>
	<line class="st3" x1="0" y1="56.1" x2="96.4" y2="56.1"/>
	<line class="st3" x1="0" y1="59.1" x2="96.4" y2="59.1"/>
	<line class="st3" x1="0" y1="70.2" x2="96.4" y2="70.2"/>
	<line class="st3" x1="0" y1="67.3" x2="96.4" y2="67.3"/>
	<line class="st3" x1="0" y1="49.9" x2="96.4" y2="49.9"/>
	<polyline class="st3" points="0,74.6 48.1,74.6 96.4,74.6 	"/>
	<line class="st3" x1="0" y1="53.2" x2="96.4" y2="53.2"/>
	<rect x="0" y="0.1" class="st4" width="96.4" height="179.5"/>
	<line class="st3" x1="0" y1="176.7" x2="96.4" y2="176.7"/>
</g>
</svg>
