<?xml version="1.0" encoding="utf-8"?>
<!-- Generator: Adobe Illustrator 27.7.0, SVG Export Plug-In . SVG Version: 6.00 Build 0)  -->
<svg version="1.1" xmlns="http://www.w3.org/2000/svg" xmlns:xlink="http://www.w3.org/1999/xlink" x="0px" y="0px"
	 viewBox="0 0 189 137.8" style="enable-background:new 0 0 189 137.8;" xml:space="preserve">
<style type="text/css">
	.st0{fill:#2D903C;}
	.st1{display:none;}
	.st2{display:inline;fill:none;stroke:#00AEEF;stroke-width:0.1322;stroke-miterlimit:10;stroke-dasharray:2.6434,2.6434;}
	.st3{display:inline;fill:none;stroke:#00AEEF;stroke-width:0.1322;stroke-miterlimit:10;}
</style>
<g id="Artwork">
	<g>
		<path class="st0" d="M146.3,106.9c-3.1,0-4.1,2.5-4.1,5.1c0,2.6,1,5.1,4.1,5.1c3.1,0,4.1-2.5,4.1-5.1
			C150.5,109.4,149.4,106.9,146.3,106.9z"/>
		<path class="st0" d="M104.7,107.5c-0.4,1.1-1.1,3.2-1.8,5.1c-0.2,0.4-0.3,0.9-0.5,1.4h4.6c-0.2-0.5-0.3-1-0.5-1.4
			C105.9,110.6,105.1,108.6,104.7,107.5z"/>
		<path class="st0" d="M89.1,107.1c-1.4,0-2.7,0-2.7,0v9.9c0,0,1.3,0,2.7,0v0c3.1,0,4.5-2.4,4.5-5C93.6,109.4,92.2,107.1,89.1,107.1
			z"/>
		<path class="st0" d="M11.5,97.6v28.7h166.1V97.6H11.5z M28.4,107.1c-1.6,0-5.2,0-5.2,0v3.6c0,0,1.4,0,2.4,0c1,0,2.5-0.3,2.5-0.3
			v2.8c0,0-1.2-0.3-2.4-0.3c-1.2,0-2.5,0-2.5,0c0,1.8,0,3.7,0,4.3c0,1.1,0.4,2,0.4,2h-3.8c0,0,0.4-1,0.4-2c0-0.6,0-2.3,0-4.1
			c0-2.7,0-5.7,0-6.2c0-1-0.4-2.1-0.4-2.1h10.3l0.6,2.9C30.8,107.7,30,107.1,28.4,107.1z M39.3,119.4c-4.9,0-7-3.9-7-7.4
			c0-3.5,2.1-7.4,7-7.4c4.9,0,7,3.9,7,7.4C46.3,115.5,44.3,119.4,39.3,119.4z M62.4,106.9L62.4,106.9l0,6c0,4-1.4,6.5-6.3,6.5
			s-6.3-2.5-6.3-6.5v-6l0,0c0-1-0.4-2.1-0.4-2.1h0.4h0.7H52h0.6h0.4c0,0-0.4,1.1-0.4,2.1l0,0v6c0,2.6,0.3,4.2,3.4,4.2
			c3.1,0,3.4-1.7,3.4-4.2v-6l0,0c0-1-0.4-2.1-0.4-2.1h0.4h0.8h1.2h0.8h0.4C62.8,104.8,62.4,105.9,62.4,106.9z M78.7,119.2h-3.1
			l-6.1-9.6l-0.1,0c0,0,0,6.5,0,7.5c0,1,0.4,2,0.4,2h-3.4c0,0,0.4-1,0.4-2c0-1,0-9.3,0-10.4c0-1.1-0.4-2-0.4-2h3.3l6.1,9.7l0.1,0
			c0,0,0-6.4,0-7.7c0-1.3-0.4-2-0.4-2h3.4c0,0-0.4,0.7-0.4,2c0,1,0,6.9,0,10.2C78.4,118.3,78.7,119.2,78.7,119.2z M89.1,119.2H83
			c0,0,0.4-0.6,0.4-2c0-1.4,0-9.4,0-10.3c0-1-0.4-2.1-0.4-2.1h6.1v0c4.9,0,7.3,3.7,7.3,7.2C96.5,115.5,94.1,119.2,89.1,119.2z
			 M108.5,119.2c0,0,0.1-0.9-0.3-2c-0.1-0.2-0.2-0.5-0.4-1h-6.2c-0.2,0.5-0.3,0.8-0.4,1c-0.4,1.1-0.3,2-0.3,2h-3.7c0,0,0.8-1,1.1-2
			c0.2-0.5,1-3,1.6-4.7c0.9-2.4,1.8-5,2-5.7c0.4-1.1-0.2-2-0.2-2h1.5h2.8h1.5c0,0-0.6,0.9-0.2,2c0.3,0.7,1.2,3.3,2,5.7
			c0.6,1.7,1.4,4.1,1.6,4.7c0.4,1,1.1,2,1.1,2H108.5z M121,107c-1.4,0-1.5,0-1.5,0s0,8.8,0,10.2c0,1.1,0.4,2,0.4,2h-3.7
			c0,0,0.4-1,0.4-2c0-1.5,0-10.2,0-10.2s-0.3,0-1.4,0c-1.1,0-2.9,0.5-2.9,0.5l0.6-2.7h10.4l0.6,2.7C123.9,107.5,122.4,107,121,107z
			 M136.9,119.2h-3.8h-2.9h-3.8l-0.6-2.5c0,0,1.4,0.2,2.9,0.2c1,0,1.5,0,1.5,0V107c0,0-0.5,0-1.5,0c-1.5,0-2.8,0.1-2.8,0.1l0.5-2.3
			h3.8h2.9h3.8l0.5,2.3c0,0-1.3-0.1-2.8-0.1c-0.9,0-1.5,0-1.5,0v9.9c0,0,0.5,0,1.5,0c1.5,0,2.9-0.2,2.9-0.2L136.9,119.2z
			 M146.3,119.4c-4.9,0-7-3.9-7-7.4c0-3.5,2.1-7.4,7-7.4c4.9,0,7,3.9,7,7.4C153.3,115.5,151.3,119.4,146.3,119.4z M169,119.2h-3.1
			l-6.1-9.6l-0.1,0c0,0,0,6.5,0,7.5c0,1,0.4,2,0.4,2h-3.4c0,0,0.4-1,0.4-2c0-1,0-9.3,0-10.4c0-1.1-0.4-2-0.4-2h3.3l6.1,9.7l0.1,0
			c0,0,0-6.4,0-7.7c0-1.3-0.4-2-0.4-2h3.4c0,0-0.4,0.7-0.4,2c0,1,0,6.9,0,10.2C168.7,118.3,169,119.2,169,119.2z"/>
		<path class="st0" d="M39.3,106.9c-3.1,0-4.1,2.5-4.1,5.1c0,2.6,1,5.1,4.1,5.1c3.1,0,4.1-2.5,4.1-5.1
			C43.5,109.4,42.4,106.9,39.3,106.9z"/>
	</g>
	<g>
		<g>
			<path class="st0" d="M36.6,54.5L35.5,60c0,0,3.5-1,5.7-1s2.9,0,2.9,0s0,17.3,0,20.2c0,2-0.8,4-0.8,4h7.5c0,0-0.8-1.8-0.8-4
				c0-2.8,0-20.2,0-20.2s0,0,2.9,0c2.9,0,5.8,1,5.8,1l-1.1-5.4H36.6z"/>
			<path class="st0" d="M104.7,54.1c-9.9,0-14.1,7.8-14.1,14.8s4.1,14.8,14.1,14.8s14.1-7.8,14.1-14.8S114.7,54.1,104.7,54.1z
				 M104.7,79.2c-6.2,0-8.3-5.1-8.3-10.3c0-5.2,2.1-10.3,8.3-10.3s8.3,5.1,8.3,10.3C113.1,74,111,79.2,104.7,79.2z"/>
			<path class="st0" d="M148.7,54.5h-6.8c0,0,0.8,1.5,0.8,4.1c0,2.6,0,15.2,0,15.2l-0.1,0l-12.2-19.3h-6.6c0,0,0.8,1.9,0.8,4.1
				c0,2.1,0,18.6,0,20.6s-0.8,4-0.8,4h6.8c0,0-0.8-2-0.8-4s0-14.9,0-14.9l0.1,0l12.2,19h6.3c0,0-0.5-1.8-0.5-4.4
				c0-6.6,0-18.3,0-20.2C147.8,55.9,148.7,54.5,148.7,54.5z"/>
			<path class="st0" d="M171.1,69c0,0,1.1,2.2,1.1,4.4c0,2.2,0,4.9,0,4.9c-0.4,0.3-1.4,0.5-2.1,0.7c-0.7,0.2-1.7,0.3-2.8,0.3
				c-4.3,0-8-2.4-8-9.6s3.6-10.7,9.1-10.7c5.4,0,8.9,3,8.9,3v-5.2c-2.3-1.5-5.3-2.5-9.3-2.5c-8.1,0-14.5,6-14.5,15.5
				c0,8,5.4,14,13.1,14c2.7,0,5-0.4,6.8-1.1c1.8-0.7,3.1-1.6,4.1-2.5c0,0,0-3.4,0-6.6c0-2.9,1-4.4,1-4.4H171.1z"/>
			<path class="st0" d="M83,76.5c-0.4-1.2-1.4-3.5-2.8-4.3c3.1-1.4,5.5-4.3,5.5-8.6c0-5.8-4.4-9-10.4-9H62.2c0,0,0.8,2,0.8,4.1
				c0,2.1,0,18.5,0,20.6c0,2.1-0.8,4-0.8,4h7.4c0,0-0.8-1.9-0.8-4c0-2.1,0-6.1,0-6.1H75c0,0,1.9,4.2,2.6,5.7
				c1.7,3.7,3.8,4.5,6.5,4.5s4.4-1.1,4.4-1.1l-0.9-1.8C86,80.6,84.1,79.6,83,76.5z M68.8,68.6V59c0,0,3.9,0,6.6,0
				c3,0,4.7,1.7,4.7,4.8c0,2.8-1.7,4.8-4.8,4.8H68.8z"/>
			<path class="st0" d="M17,61.9c0-2.5,2.6-3.5,5.1-3.5c6.1,0,9.4,4.1,9.4,4.1v-5.4c-1.2-1.1-4.2-2.9-9.3-2.9
				c-6.3,0-10.8,3.6-10.8,8c0,9.7,15.6,8.4,15.6,14c0,2.7-2.1,3.3-5.1,3.3c-6.6,0-10.8-4.8-10.8-4.8v5.6c1.2,1.3,5.3,3.5,10.4,3.5
				c5.8,0,10.9-2.1,10.9-7.9C32.5,66,17,67.2,17,61.9z"/>
		</g>
		<g>
			<g>
				<path class="st0" d="M135.9,35.7v-8.2c0,0,2.6,0,5,0c2.4,0,4.8,0.5,4.8,0.5v-5.5c0,0-2.9,0.5-5,0.5s-4.8,0-4.8,0v-7.2
					c0,0,7.2,0,10.4,0c3.2,0,4.7,1.2,4.7,1.2l-1.1-5.7h-20.7c0,0,0.9,2.2,0.9,4.1c0,1.9,0,17.7,0,20.5c0,2.8-0.9,4.1-0.9,4.1h20.8
					l1.1-5.7c0,0-2.2,1.2-4.7,1.2S135.9,35.7,135.9,35.7z"/>
				<path class="st0" d="M71.6,11.5l-1.1,5.4c0,0,3.5-1,5.7-1c2.3,0,2.9,0,2.9,0s0,17.3,0,20.2c0,2-0.8,4-0.8,4h7.5
					c0,0-0.8-1.8-0.8-4c0-2.8,0-20.2,0-20.2s0,0,2.9,0c2.9,0,5.8,1,5.8,1l-1.1-5.4H71.6z"/>
				<path class="st0" d="M10.9,25.8c0,9.5,7.6,14.8,15.6,14.8c4,0,7.2-1.4,9.3-2.5v-5.2c0,0-3.5,3-8.9,3c-5.5,0-10.2-2.8-10.2-10
					s4.7-10,10.2-10c5.4,0,8.9,3,8.9,3v-5.2c-2-1.1-5.3-2.5-9.3-2.5C18.5,11.1,10.9,16.3,10.9,25.8z"/>
			</g>
			<path class="st0" d="M162.4,18.9c0-2.5,2.6-3.5,5.1-3.5c6.1,0,9.4,4.1,9.4,4.1V14c-1.2-1.1-4.2-2.9-9.3-2.9
				c-6.3,0-10.8,3.6-10.8,8c0,9.7,15.6,8.4,15.6,14c0,2.7-2.1,3.3-5.1,3.3c-6.6,0-10.8-4.8-10.8-4.8v5.6c1.2,1.3,5.3,3.5,10.4,3.5
				c5.8,0,10.9-2.1,10.9-7.9C178,22.9,162.4,24.2,162.4,18.9z"/>
			<path class="st0" d="M116.8,35.6c-2,0-3,0-3,0V15.9c0,0,1.1,0,3,0c2.9,0,5.5,0.2,5.5,0.2l-1-4.7h-7.5H108h-7.5l-1,4.7
				c0,0,2.6-0.2,5.5-0.2c1.9,0,3,0,3,0v19.7c0,0-1,0-3,0c-2.9,0-5.7-0.3-5.7-0.3l1.2,4.9h7.5h5.8h7.5l1.2-4.9
				C122.5,35.3,119.7,35.6,116.8,35.6z"/>
			<path class="st0" d="M59.2,35.6c-2,0-3,0-3,0V15.9c0,0,1.1,0,3,0c2.9,0,5.5,0.2,5.5,0.2l-1-4.7h-7.5h-5.8h-7.5l-1,4.7
				c0,0,2.6-0.2,5.5-0.2c1.9,0,3,0,3,0v19.7c0,0-1,0-3,0c-2.9,0-5.7-0.3-5.7-0.3l1.2,4.9h7.5h5.8h7.5l1.2-4.9
				C64.9,35.3,62.1,35.6,59.2,35.6z"/>
		</g>
	</g>
</g>
<g id="Guides" class="st1">
	<line class="st2" x1="0" y1="83.2" x2="189" y2="83.2"/>
	<line class="st2" x1="0" y1="54.5" x2="189" y2="54.5"/>
	<line class="st2" x1="0" y1="45.9" x2="189" y2="45.9"/>
	<line class="st2" x1="0" y1="51.7" x2="189" y2="51.7"/>
	<line class="st2" x1="0" y1="40.2" x2="189" y2="40.2"/>
	<line class="st2" x1="0" y1="5.7" x2="189" y2="5.7"/>
	<line class="st2" x1="0" y1="11.5" x2="189" y2="11.5"/>
	<line class="st2" x1="0" y1="103.3" x2="189" y2="103.3"/>
	<line class="st2" x1="0" y1="109.1" x2="189" y2="109.1"/>
	<line class="st2" x1="0" y1="97.6" x2="189" y2="97.6"/>
	<line class="st2" x1="0" y1="120.5" x2="189" y2="120.5"/>
	<line class="st2" x1="0" y1="119.1" x2="189" y2="119.1"/>
	<line class="st2" x1="0" y1="104.8" x2="189" y2="104.8"/>
	<line class="st2" x1="0" y1="126.3" x2="189" y2="126.3"/>
	<line class="st2" x1="0" y1="132" x2="189" y2="132"/>
	<line class="st2" x1="0" y1="114.8" x2="189" y2="114.8"/>
	<line class="st2" x1="0" y1="89" x2="189" y2="89"/>
	<line class="st2" x1="0" y1="94.7" x2="189" y2="94.7"/>
	<rect x="0" y="0" class="st3" width="189" height="137.8"/>
	<line class="st2" x1="177.5" y1="137.7" x2="177.5" y2="0.4"/>
	<line class="st2" x1="5.8" y1="137.7" x2="5.8" y2="0.4"/>
	<line class="st2" x1="11.5" y1="137.7" x2="11.5" y2="0.4"/>
	<polyline class="st2" points="177.5,137.6 177.5,78.4 177.5,0.4 	"/>
	<line class="st2" x1="183.3" y1="137.6" x2="183.3" y2="0.4"/>
</g>
</svg>
