<?xml version="1.0" encoding="utf-8"?>
<!-- Generator: Adobe Illustrator 27.7.0, SVG Export Plug-In . SVG Version: 6.00 Build 0)  -->
<svg version="1.1" xmlns="http://www.w3.org/2000/svg" xmlns:xlink="http://www.w3.org/1999/xlink" x="0px" y="0px"
	 viewBox="0 0 189 137.8" style="enable-background:new 0 0 189 137.8;" xml:space="preserve">
<style type="text/css">
	.st0{fill:#FFFFFF;}
	.st1{display:none;}
	.st2{display:inline;fill:none;stroke:#00AEEF;stroke-width:0.1322;stroke-miterlimit:10;stroke-dasharray:2.6434,2.6434;}
	.st3{display:inline;fill:none;stroke:#00AEEF;stroke-width:0.1322;stroke-miterlimit:10;}
</style>
<g id="Artwork">
	<rect x="11.5" y="97.6" class="st0" width="166.1" height="28.7"/>
	<g>
		<g>
			<path class="st0" d="M36.6,54.5L35.5,60c0,0,3.5-1,5.7-1s2.9,0,2.9,0s0,17.3,0,20.2c0,2-0.8,4-0.8,4h7.5c0,0-0.8-1.8-0.8-4
				c0-2.8,0-20.2,0-20.2s0,0,2.9,0c2.9,0,5.8,1,5.8,1l-1.1-5.4H36.6z"/>
			<path class="st0" d="M104.8,54.1c-9.9,0-14.1,7.8-14.1,14.8s4.1,14.8,14.1,14.8s14.1-7.8,14.1-14.8S114.7,54.1,104.8,54.1z
				 M104.8,79.2c-6.2,0-8.3-5.1-8.3-10.3c0-5.2,2.1-10.3,8.3-10.3c6.2,0,8.3,5.1,8.3,10.3C113.1,74,111,79.2,104.8,79.2z"/>
			<path class="st0" d="M148.7,54.5h-6.8c0,0,0.8,1.5,0.8,4.1c0,2.6,0,15.2,0,15.2l-0.1,0l-12.2-19.3h-6.6c0,0,0.8,1.9,0.8,4.1
				c0,2.1,0,18.6,0,20.6c0,2-0.8,4-0.8,4h6.8c0,0-0.8-2-0.8-4c0-2.1,0-14.9,0-14.9l0.1,0l12.2,19h6.3c0,0-0.5-1.8-0.5-4.4
				c0-6.6,0-18.3,0-20.2C147.9,55.9,148.7,54.5,148.7,54.5z"/>
			<path class="st0" d="M171.1,69c0,0,1.1,2.2,1.1,4.4c0,2.2,0,4.9,0,4.9c-0.4,0.3-1.4,0.5-2.1,0.7c-0.7,0.2-1.7,0.3-2.8,0.3
				c-4.3,0-8-2.4-8-9.6s3.6-10.7,9.1-10.7c5.4,0,8.9,3,8.9,3v-5.2c-2.3-1.5-5.3-2.5-9.3-2.5c-8.1,0-14.5,6-14.5,15.5
				c0,8,5.4,14,13.1,14c2.7,0,5-0.4,6.8-1.1c1.8-0.7,3.1-1.6,4.1-2.5c0,0,0-3.4,0-6.6c0-2.9,1-4.4,1-4.4H171.1z"/>
			<path class="st0" d="M83.1,76.5c-0.4-1.2-1.4-3.5-2.8-4.3c3.1-1.4,5.5-4.3,5.5-8.6c0-5.8-4.4-9-10.4-9H62.2c0,0,0.8,2,0.8,4.1
				c0,2.1,0,18.5,0,20.6c0,2.1-0.8,4-0.8,4h7.4c0,0-0.8-1.9-0.8-4c0-2.1,0-6.1,0-6.1H75c0,0,1.9,4.2,2.6,5.7
				c1.7,3.7,3.8,4.5,6.5,4.5s4.4-1.1,4.4-1.1l-0.9-1.8C86,80.6,84.2,79.6,83.1,76.5z M68.8,68.6V59c0,0,3.9,0,6.6,0
				c3,0,4.7,1.7,4.7,4.8c0,2.8-1.7,4.8-4.8,4.8H68.8z"/>
			<path class="st0" d="M17,61.9c0-2.5,2.6-3.5,5.1-3.5c6.1,0,9.4,4.1,9.4,4.1v-5.4c-1.2-1.1-4.2-2.9-9.3-2.9
				c-6.3,0-10.8,3.6-10.8,8c0,9.7,15.6,8.4,15.6,14c0,2.7-2.1,3.3-5.1,3.3c-6.6,0-10.8-4.8-10.8-4.8v5.6c1.2,1.3,5.3,3.5,10.4,3.5
				c5.8,0,10.9-2.1,10.9-7.9C32.6,66,17,67.2,17,61.9z"/>
		</g>
		<g>
			<g>
				<path class="st0" d="M135.9,35.7v-8.2c0,0,2.6,0,5,0c2.4,0,4.8,0.5,4.8,0.5v-5.5c0,0-2.9,0.5-5,0.5c-2.1,0-4.8,0-4.8,0v-7.2
					c0,0,7.2,0,10.4,0c3.2,0,4.7,1.2,4.7,1.2l-1.1-5.7h-20.7c0,0,0.9,2.2,0.9,4.1c0,1.9,0,17.7,0,20.5c0,2.8-0.9,4.1-0.9,4.1H150
					l1.1-5.7c0,0-2.2,1.2-4.7,1.2S135.9,35.7,135.9,35.7z"/>
				<path class="st0" d="M71.6,11.5l-1.1,5.4c0,0,3.5-1,5.7-1c2.3,0,2.9,0,2.9,0s0,17.3,0,20.2c0,2-0.8,4-0.8,4h7.5
					c0,0-0.8-1.8-0.8-4c0-2.8,0-20.2,0-20.2s0,0,2.9,0c2.9,0,5.8,1,5.8,1l-1.1-5.4H71.6z"/>
				<path class="st0" d="M10.9,25.8c0,9.5,7.6,14.8,15.6,14.8c4,0,7.2-1.4,9.3-2.5v-5.2c0,0-3.5,3-8.9,3c-5.5,0-10.2-2.8-10.2-10
					s4.7-10,10.2-10c5.4,0,8.9,3,8.9,3v-5.2c-2-1.1-5.3-2.5-9.3-2.5C18.5,11.1,10.9,16.3,10.9,25.8z"/>
			</g>
			<path class="st0" d="M162.4,18.9c0-2.5,2.6-3.5,5.1-3.5c6.1,0,9.4,4.1,9.4,4.1V14c-1.2-1.1-4.2-2.9-9.3-2.9
				c-6.3,0-10.8,3.6-10.8,8c0,9.7,15.6,8.4,15.6,14c0,2.7-2.1,3.3-5.1,3.3c-6.6,0-10.8-4.8-10.8-4.8v5.6c1.2,1.3,5.3,3.5,10.4,3.5
				c5.8,0,10.9-2.1,10.9-7.9C178,22.9,162.4,24.2,162.4,18.9z"/>
			<path class="st0" d="M116.8,35.6c-2,0-3,0-3,0V15.9c0,0,1.1,0,3,0c2.9,0,5.5,0.2,5.5,0.2l-1-4.7h-7.5H108h-7.5l-1,4.7
				c0,0,2.6-0.2,5.5-0.2c1.9,0,3,0,3,0v19.7c0,0-1,0-3,0c-2.9,0-5.7-0.3-5.7-0.3l1.2,4.9h7.5h5.8h7.5l1.2-4.9
				C122.5,35.3,119.7,35.6,116.8,35.6z"/>
			<path class="st0" d="M59.2,35.6c-2,0-3,0-3,0V15.9c0,0,1.1,0,3,0c2.9,0,5.5,0.2,5.5,0.2l-1-4.7h-7.5h-5.8h-7.5l-1,4.7
				c0,0,2.6-0.2,5.5-0.2c1.9,0,3,0,3,0v19.7c0,0-1,0-3,0c-2.9,0-5.7-0.3-5.7-0.3l1.2,4.9h7.5h5.8h7.5l1.2-4.9
				C65,35.3,62.2,35.6,59.2,35.6z"/>
		</g>
	</g>
</g>
<g id="Guides" class="st1">
	<line class="st2" x1="0" y1="83.2" x2="189" y2="83.2"/>
	<line class="st2" x1="0" y1="54.5" x2="189" y2="54.5"/>
	<line class="st2" x1="0" y1="45.9" x2="189" y2="45.9"/>
	<line class="st2" x1="0" y1="51.7" x2="189" y2="51.7"/>
	<line class="st2" x1="0" y1="40.2" x2="189" y2="40.2"/>
	<line class="st2" x1="0" y1="5.7" x2="189" y2="5.7"/>
	<line class="st2" x1="0" y1="11.5" x2="189" y2="11.5"/>
	<line class="st2" x1="0" y1="97.6" x2="189" y2="97.6"/>
	<line class="st2" x1="0" y1="126.3" x2="189" y2="126.3"/>
	<line class="st2" x1="0" y1="132" x2="189" y2="132"/>
	<line class="st2" x1="0" y1="89" x2="189" y2="89"/>
	<line class="st2" x1="0" y1="94.7" x2="189" y2="94.7"/>
	<rect x="0" y="0" class="st3" width="189" height="137.8"/>
	<polyline class="st2" points="177.5,137.6 177.5,78.4 177.5,0.4 	"/>
	<line class="st2" x1="5.8" y1="137.6" x2="5.8" y2="0.4"/>
	<line class="st2" x1="11.5" y1="137.6" x2="11.5" y2="0.4"/>
	<line class="st2" x1="183.3" y1="137.6" x2="183.3" y2="0.4"/>
</g>
</svg>
