<?xml version="1.0" encoding="utf-8"?>
<!-- Generator: Adobe Illustrator 27.7.0, SVG Export Plug-In . SVG Version: 6.00 Build 0)  -->
<svg version="1.1" xmlns="http://www.w3.org/2000/svg" xmlns:xlink="http://www.w3.org/1999/xlink" x="0px" y="0px"
	 viewBox="0 0 313 72" style="enable-background:new 0 0 313 72;" xml:space="preserve">
<style type="text/css">
	.st0{fill:#2D903C;}
	.st1{display:none;}
	.st2{display:inline;}
	.st3{fill:none;stroke:#00AEEF;stroke-width:0.1061;stroke-miterlimit:10;}
	.st4{fill:none;stroke:#00AEEF;stroke-width:0.1061;stroke-miterlimit:10;stroke-dasharray:2.1106,2.1106;}
	.st5{fill:none;stroke:#00AEEF;stroke-width:0.1061;stroke-miterlimit:10;stroke-dasharray:2.1148,2.1148;}
	.st6{fill:none;stroke:#00AEEF;stroke-width:0.1061;stroke-miterlimit:10;stroke-dasharray:2.1175,2.1175;}
	.st7{fill:none;stroke:#00AEEF;stroke-width:0.1061;stroke-miterlimit:10;stroke-dasharray:2.1158,2.1158;}
	.st8{fill:none;stroke:#00AEEF;stroke-width:0.1061;stroke-miterlimit:10;stroke-dasharray:2.1147,2.1147;}
	.st9{display:inline;fill:none;stroke:#00AEEF;stroke-width:0.1061;stroke-miterlimit:10;}
	.st10{display:inline;fill:#EC008C;}
	.st11{font-family:'Roboto-Regular';}
	.st12{font-size:3.6542px;}
</style>
<g id="Artwork">
	<g>
		<path class="st0" d="M9.5,9.5v29.6c0,6.1,2.8,11.6,8,15.9c4.1,3.4,9,5.4,12.3,6.5l2.2,0.7l2.2-0.7c2.7-0.9,7.9-2.8,12.4-6.4
			c5.3-4.3,8-9.7,8-15.6V9.5H9.5z M51.7,39.5c0,5.1-2.4,9.7-7,13.4c-4.1,3.3-8.9,5.1-11.4,5.9l-1.3,0.4l-1.3-0.4
			c-3.1-1-7.6-2.8-11.4-6c-4.6-3.8-7-8.6-7-13.8V12.2h39.5V39.5z"/>
	</g>
	<g>
		<path class="st0" d="M45.2,40.5c0-5.6-4.6-6.5-9-7v2.7c3.4,0.4,6.2,1.1,6.2,4.3c0,2.9-2.8,4.9-7.8,5.1c0-0.8,0-1.7,0-2.6
			c0,0-0.7,0-1.3,0s-1.4,0-1.4,0h0c0,0.9,0,6.4,0,6.6c0,2.1-0.7,4-0.7,4h4c0,0-0.7-1.8-0.7-3.9c0-0.3,0-0.8,0-1.6
			C43.1,47.8,45.2,43.2,45.2,40.5z"/>
		<path class="st0" d="M33.4,41.6c2.2,0,5-0.1,5-0.1v-2.8c0,0-2,0.6-3.8,0.6v-8.9c0.6,0,1.2,0,1.7,0c1.9,0,3.8,0.9,3.8,0.9v-3.2
			h-8.7c0,0,0.5,1.6,0.5,3c0,0.6,0,1.3,0,2c-2.3-0.4-4-1.1-4-3.2c0-2.8,2.3-4.9,7.9-4.9c6,0,8.8,2.8,8.8,2.8s0-2.7,0-3.7
			c-2-0.6-4.7-1.5-8.8-1.5c-9.3,0-10.7,4.6-10.7,7.4c0,4.2,3.2,5.4,6.8,5.9c0,1.1,0,2.2,0,3.4c-5.7-0.4-10.3-3.3-10.3-9.3
			c0-6.5,5.8-10.5,12.8-10.5c4.1,0,5.7,1.2,5.7,1.2s0.1-2.6,0.1-3.4c-1.3,0-2.7-0.3-5.8-0.3c-10,0-15.6,6.3-15.6,12.9
			c0,6,4.1,10.7,11.7,11.7C31.4,41.6,32.1,41.6,33.4,41.6z"/>
		<path class="st0" d="M21.2,45.7c2.1,0.5,5,2.1,9.1,2.3v-2.5c-6.1-0.7-9.1-3.7-9.1-3.7S21.2,44.7,21.2,45.7z"/>
	</g>
	<g>
		<path class="st0" d="M167.5,45.2c-2.4,0-3.3,2-3.3,4s0.8,4,3.3,4c2.4,0,3.3-2,3.3-4S169.9,45.2,167.5,45.2z"/>
		<path class="st0" d="M63.9,39.8v18.9h234.8V39.8H63.9z M74.5,45.3c-1.3,0-4.1,0-4.1,0v2.9c0,0,1.1,0,1.9,0c0.8,0,2-0.2,2-0.2v2.2
			c0,0-1-0.2-1.9-0.2c-0.9,0-2,0-2,0c0,1.5,0,2.9,0,3.4c0,0.9,0.3,1.6,0.3,1.6h-3c0,0,0.3-0.8,0.3-1.6c0-0.5,0-1.8,0-3.2
			c0-2.1,0-4.5,0-4.9c0-0.8-0.3-1.6-0.3-1.6h8.2l0.4,2.3C76.3,45.8,75.8,45.3,74.5,45.3z M83.1,55.1c-3.9,0-5.5-3.1-5.5-5.8
			s1.6-5.8,5.5-5.8c3.9,0,5.5,3.1,5.5,5.8S87,55.1,83.1,55.1z M101.3,45.2L101.3,45.2l0,4.8c0,3.1-1.1,5.1-5,5.1s-5-2-5-5.1v-4.8
			l0,0c0-0.8-0.3-1.6-0.3-1.6h0.3h0.5h1.3h0.5h0.3c0,0-0.3,0.9-0.3,1.6l0,0V50c0,2,0.3,3.3,2.7,3.3c2.4,0,2.7-1.3,2.7-3.3v-4.8l0,0
			c0-0.8-0.3-1.6-0.3-1.6H99h0.6h1h0.7h0.3C101.6,43.6,101.3,44.4,101.3,45.2z M114.1,54.9h-2.5l-4.8-7.5l0,0c0,0,0,5.1,0,5.9
			c0,0.8,0.3,1.6,0.3,1.6h-2.7c0,0,0.3-0.8,0.3-1.6s0-7.3,0-8.2c0-0.8-0.3-1.6-0.3-1.6h2.6l4.8,7.7l0,0c0,0,0-5,0-6.1
			c0-1-0.3-1.6-0.3-1.6h2.7c0,0-0.3,0.5-0.3,1.6c0,0.8,0,5.4,0,8C113.9,54.2,114.1,54.9,114.1,54.9z M122.4,54.9h-4.8
			c0,0,0.3-0.5,0.3-1.6c0-1.1,0-7.4,0-8.1c0-0.8-0.3-1.6-0.3-1.6h4.8v0c3.9,0,5.8,2.9,5.8,5.7S126.3,54.9,122.4,54.9z M137.6,54.9
			c0,0,0.1-0.7-0.2-1.6c0-0.1-0.1-0.4-0.3-0.8h-4.9c-0.1,0.4-0.2,0.7-0.3,0.8c-0.3,0.9-0.2,1.6-0.2,1.6h-2.9c0,0,0.6-0.8,0.9-1.6
			c0.1-0.4,0.8-2.4,1.3-3.7c0.7-1.9,1.4-3.9,1.6-4.5c0.3-0.9-0.2-1.6-0.2-1.6h1.1h2.2h1.1c0,0-0.5,0.7-0.2,1.6
			c0.2,0.6,0.9,2.6,1.6,4.5c0.5,1.3,1.1,3.3,1.3,3.7c0.3,0.8,0.9,1.6,0.9,1.6H137.6z M147.5,45.3c-1.1,0-1.2,0-1.2,0s0,6.9,0,8
			c0,0.9,0.3,1.6,0.3,1.6h-2.9c0,0,0.3-0.8,0.3-1.6c0-1.2,0-8,0-8s-0.2,0-1.1,0s-2.3,0.4-2.3,0.4l0.4-2.1h8.2l0.4,2.1
			C149.7,45.7,148.6,45.3,147.5,45.3z M160,54.9h-3h-2.3h-3l-0.5-1.9c0,0,1.1,0.1,2.3,0.1c0.8,0,1.2,0,1.2,0v-7.8c0,0-0.4,0-1.2,0
			c-1.2,0-2.2,0.1-2.2,0.1l0.4-1.8h3h2.3h3l0.4,1.8c0,0-1-0.1-2.2-0.1c-0.7,0-1.2,0-1.2,0v7.8c0,0,0.4,0,1.2,0
			c1.2,0,2.3-0.1,2.3-0.1L160,54.9z M167.5,55.1c-3.9,0-5.5-3.1-5.5-5.8s1.6-5.8,5.5-5.8s5.5,3.1,5.5,5.8S171.4,55.1,167.5,55.1z
			 M185.4,54.9h-2.5l-4.8-7.5l0,0c0,0,0,5.1,0,5.9c0,0.8,0.3,1.6,0.3,1.6h-2.7c0,0,0.3-0.8,0.3-1.6s0-7.3,0-8.2
			c0-0.8-0.3-1.6-0.3-1.6h2.6l4.8,7.7l0,0c0,0,0-5,0-6.1c0-1-0.3-1.6-0.3-1.6h2.7c0,0-0.3,0.5-0.3,1.6c0,0.8,0,5.4,0,8
			C185.2,54.2,185.4,54.9,185.4,54.9z M246.8,55c-1.1,0-2-0.5-2.2-0.8v-1.2c0,0,0.9,1,2.2,1c0.6,0,1.1-0.2,1.1-0.8
			c0-0.2-0.1-0.4-0.3-0.6c-0.2-0.1-0.5-0.3-0.9-0.4c-0.7-0.2-1.3-0.5-1.7-0.8c-0.4-0.3-0.6-0.7-0.6-1.2c0-0.9,1-1.7,2.3-1.7
			c1.1,0,1.9,0.4,2.2,0.6v1.2c0,0-0.9-0.9-2.1-0.9c-0.4,0-1.1,0.1-1.1,0.8c0,0.2,0.1,0.4,0.3,0.5c0.2,0.1,0.5,0.3,1,0.4
			c0.7,0.2,1.2,0.4,1.6,0.8c0.4,0.3,0.5,0.7,0.5,1.2C249.2,54.5,248.1,55,246.8,55z M255.4,54.9h-2.3h-1.6c0,0,0.2-0.4,0.2-0.9
			c0,0,0-4.4,0-4.4c0-0.5-0.2-0.9-0.2-0.9h1.6c0,0-0.2,0.4-0.2,0.9c0,0.6,0,4.4,0,4.4s1,0,1.4,0s1.2-0.2,1.2-0.2L255.4,54.9z
			 M262.3,50.3c0,0-0.8-0.6-1.9-0.6c-1.2,0-2.2,0.6-2.2,2.1s1,2.1,2.2,2.1c1.2,0,1.9-0.6,1.9-0.6v1.1c-0.4,0.2-1.1,0.5-2,0.5
			c-1.7,0-3.4-1.1-3.4-3.2c0-2,1.6-3.2,3.4-3.2c0.9,0,1.6,0.3,2,0.5V50.3z M265.8,54.8c0,0.7-0.5,1.2-1.2,1.3l-0.1-0.3
			c0,0,0.7-0.1,0.7-0.9h-0.6v-1.2h1.2V54.8z M274.1,49.6L274.1,49.6l0,2.6c0,1.7-0.6,2.8-2.7,2.8c-2.1,0-2.7-1.1-2.7-2.8v-2.6l0,0
			c0-0.4-0.2-0.9-0.2-0.9h0.2h0.5h0.3h0.5h0.2c0,0-0.2,0.5-0.2,0.9l0,0v2.6c0,1.1,0.1,1.8,1.5,1.8c1.3,0,1.5-0.7,1.5-1.8v-2.6l0,0
			c0-0.4-0.2-0.9-0.2-0.9h0.2h0.5h0.3h0.5h0.2C274.3,48.7,274.1,49.2,274.1,49.6z M279.4,49.7c-0.6,0-0.6,0-0.6,0s0,3.8,0,4.4
			c0,0.5,0.2,0.9,0.2,0.9h-1.6c0,0,0.2-0.4,0.2-0.9c0-0.6,0-4.4,0-4.4s-0.1,0-0.6,0c-0.5,0-1.2,0.2-1.2,0.2l0.2-1.2h4.5l0.2,1.2
			C280.7,49.9,280,49.7,279.4,49.7z M285.8,54.9c0,0,0-0.4-0.1-0.9c0-0.1-0.1-0.2-0.2-0.4h-2.7c-0.1,0.2-0.1,0.4-0.2,0.4
			c-0.2,0.5-0.1,0.9-0.1,0.9H281c0,0,0.3-0.4,0.5-0.9c0.1-0.2,0.4-1.3,0.7-2c0.4-1,0.8-2.2,0.9-2.5c0.2-0.5-0.1-0.9-0.1-0.9h0.6h1.2
			h0.6c0,0-0.3,0.4-0.1,0.9c0.1,0.3,0.5,1.4,0.9,2.5c0.3,0.7,0.6,1.8,0.7,2c0.2,0.4,0.5,0.9,0.5,0.9H285.8z M292.7,54.9
			c0,0,0.2-0.4,0.2-0.9c0-0.2,0-0.9,0-1.7h-2.6c0,0.7,0,1.5,0,1.7c0,0.5,0.2,0.9,0.2,0.9h-1.6c0,0,0.2-0.4,0.2-0.9
			c0-0.2,0-4.2,0-4.5c0-0.5-0.2-0.9-0.2-0.9h1.6c0,0-0.2,0.4-0.2,0.9c0,0.2,0,1,0,1.8h2.6c0-0.8,0-1.6,0-1.8c0-0.5-0.2-0.9-0.2-0.9
			h1.6c0,0-0.2,0.4-0.2,0.9c0,0.2,0,4.2,0,4.5c0,0.5,0.2,0.9,0.2,0.9H292.7z"/>
		<path class="st0" d="M284.2,49.9c-0.2,0.5-0.5,1.4-0.8,2.2c-0.1,0.2-0.1,0.4-0.2,0.6h2c-0.1-0.2-0.1-0.4-0.2-0.6
			C284.7,51.2,284.4,50.4,284.2,49.9z"/>
		<path class="st0" d="M83.1,45.2c-2.4,0-3.3,2-3.3,4s0.8,4,3.3,4c2.4,0,3.3-2,3.3-4S85.5,45.2,83.1,45.2z"/>
		<path class="st0" d="M122.4,45.3c-1.1,0-2.2,0-2.2,0v7.8c0,0,1.1,0,2.2,0v0c2.4,0,3.5-1.9,3.5-3.9S124.8,45.3,122.4,45.3z"/>
		<path class="st0" d="M134.7,45.7c-0.3,0.9-0.9,2.5-1.4,4c-0.1,0.4-0.3,0.7-0.4,1.1h3.7c-0.1-0.4-0.3-0.8-0.4-1.1
			C135.6,48.2,135,46.6,134.7,45.7z"/>
	</g>
	<g>
		<g>
			<path class="st0" d="M200.7,13.2l-0.7,3.6c0,0,2.3-0.6,3.8-0.6s1.9,0,1.9,0s0,11.5,0,13.4c0,1.3-0.6,2.7-0.6,2.7h4.9
				c0,0-0.6-1.2-0.6-2.7c0-1.9,0-13.4,0-13.4s0,0,1.9,0c1.9,0,3.8,0.6,3.8,0.6l-0.7-3.6H200.7z"/>
			<path class="st0" d="M248.2,12.9c-6.5,0-9.3,5.1-9.3,9.7s2.7,9.7,9.3,9.7c6.5,0,9.3-5.1,9.3-9.7S254.7,12.9,248.2,12.9z
				 M248.2,29.5c-4.1,0-5.5-3.4-5.5-6.8s1.4-6.8,5.5-6.8c4.1,0,5.5,3.4,5.5,6.8S252.3,29.5,248.2,29.5z"/>
			<path class="st0" d="M278.5,13.2H274c0,0,0.6,1,0.6,2.7c0,1.7,0,10.1,0,10.1l-0.1,0l-8.1-12.8h-4.3c0,0,0.5,1.3,0.5,2.7
				c0,1.4,0,12.4,0,13.7c0,1.3-0.5,2.7-0.5,2.7h4.5c0,0-0.6-1.3-0.6-2.7c0-1.4,0-9.9,0-9.9l0.1,0l8,12.6h4.1c0,0-0.4-1.2-0.4-2.9
				c0-4.3,0-12.1,0-13.4C277.9,14.1,278.5,13.2,278.5,13.2z"/>
			<path class="st0" d="M294.5,22.8c0,0,0.8,1.4,0.8,2.9s0,3.2,0,3.2c-0.3,0.2-0.9,0.3-1.4,0.5c-0.5,0.1-1.1,0.2-1.9,0.2
				c-2.8,0-5.3-1.6-5.3-6.3s2.4-7.1,6-7.1c3.6,0,5.9,2,5.9,2v-3.5c-1.4-0.7-3.5-1.7-6.1-1.7c-5.3,0-9.6,4-9.6,10.2
				c0,5.3,3.5,9.2,8.6,9.2c1.8,0,3.3-0.2,4.5-0.7c1.2-0.5,2.1-1,2.7-1.6c0,0,0-2.2,0-4.4c0-1.9,0.7-2.9,0.7-2.9H294.5z"/>
			<path class="st0" d="M232.6,27.7c-0.3-0.8-0.9-2.4-1.8-2.9c2-0.9,3.6-2.8,3.6-5.7c0-3.8-2.9-5.9-6.9-5.9h-8.7
				c0,0,0.5,1.3,0.5,2.7s0,12.2,0,13.7s-0.5,2.7-0.5,2.7h4.9c0,0-0.6-1.3-0.6-2.7c0-1.4,0-4.1,0-4.1h4.1c0,0,1.2,2.8,1.7,3.8
				c1.1,2.4,2.5,3,4.3,3c1.8,0,2.9-0.7,2.9-0.7l-0.6-1.2C234.5,30.5,233.3,29.8,232.6,27.7z M223.2,22.5v-6.4c0,0,2.6,0,4.3,0
				c2,0,3.1,1.1,3.1,3.2c0,1.8-1.1,3.2-3.2,3.2H223.2z"/>
			<path class="st0" d="M187.1,18.1c0-1.7,1.7-2.3,3.4-2.3c4,0,6.3,2.7,6.3,2.7v-3.6c-0.8-0.7-2.8-2-6.2-2c-4.2,0-7.1,2.4-7.1,5.3
				c0,6.4,10.4,5.6,10.4,9.3c0,1.8-1.4,2.2-3.4,2.2c-4.4,0-7.2-3.2-7.2-3.2v3.7c0.8,0.8,3.5,2.3,6.9,2.3c3.8,0,7.2-1.4,7.2-5.3
				C197.4,20.8,187.1,21.6,187.1,18.1z"/>
		</g>
		<g>
			<g>
				<path class="st0" d="M145.5,29.3v-5.4c0,0,1.7,0,3.3,0c1.6,0,3.2,0.4,3.2,0.4v-3.7c0,0-1.9,0.4-3.3,0.4s-3.2,0-3.2,0v-4.8
					c0,0,4.8,0,6.9,0s3.1,0.8,3.1,0.8l-0.7-3.8h-13.7c0,0,0.6,1.5,0.6,2.7c0,1.3,0,11.7,0,13.6c0,1.9-0.6,2.7-0.6,2.7h13.8l0.7-3.8
					c0,0-1.5,0.8-3.1,0.8C150.8,29.3,145.5,29.3,145.5,29.3z"/>
				<path class="st0" d="M102.9,13.2l-0.7,3.6c0,0,2.3-0.7,3.8-0.7s1.9,0,1.9,0s0,11.5,0,13.4c0,1.4-0.6,2.7-0.6,2.7h4.9
					c0,0-0.6-1.2-0.6-2.7c0-1.9,0-13.4,0-13.4s0,0,1.9,0c1.9,0,3.8,0.7,3.8,0.7l-0.7-3.6H102.9z"/>
				<path class="st0" d="M62.7,22.7c0,6.3,5,9.8,10.4,9.8c2.6,0,4.8-0.9,6.2-1.7v-3.5c0,0-2.4,2-5.9,2c-3.7,0-6.8-1.9-6.8-6.6
					s3.1-6.6,6.8-6.6c3.6,0,5.9,2,5.9,2v-3.5c-1.4-0.8-3.5-1.7-6.2-1.7C67.7,12.9,62.7,16.4,62.7,22.7z"/>
			</g>
			<path class="st0" d="M163.1,18.1c0-1.7,1.7-2.3,3.4-2.3c4,0,6.3,2.7,6.3,2.7v-3.6c-0.8-0.7-2.8-2-6.2-2c-4.2,0-7.1,2.4-7.1,5.3
				c0,6.4,10.4,5.6,10.4,9.3c0,1.8-1.4,2.2-3.4,2.2c-4.4,0-7.2-3.2-7.2-3.2v3.7c0.8,0.8,3.5,2.3,6.9,2.3c3.8,0,7.2-1.4,7.2-5.3
				C173.4,20.8,163.1,21.6,163.1,18.1z"/>
			<path class="st0" d="M132.9,29.2c-1.3,0-2,0-2,0V16.2c0,0,0.7,0,2,0c1.9,0,3.7,0.2,3.7,0.2l-0.6-3.1h-5H127h-5l-0.6,3.1
				c0,0,1.7-0.2,3.7-0.2c1.2,0,2,0,2,0v13.1c0,0-0.6,0-2,0c-1.9,0-3.8-0.2-3.8-0.2l0.8,3.2h5h3.9h5l0.8-3.2
				C136.7,29,134.8,29.2,132.9,29.2z"/>
			<path class="st0" d="M94.7,29.2c-1.3,0-2,0-2,0V16.2c0,0,0.7,0,2,0c1.9,0,3.7,0.2,3.7,0.2l-0.6-3.1h-5h-3.9h-5l-0.6,3.1
				c0,0,1.7-0.2,3.7-0.2c1.2,0,2,0,2,0v13.1c0,0-0.6,0-2,0c-1.9,0-3.8-0.2-3.8-0.2l0.8,3.2h5h3.9h5l0.8-3.2
				C98.5,29,96.6,29.2,94.7,29.2z"/>
		</g>
	</g>
</g>
<g id="Guides" class="st1">
	<g class="st2">
		<g>
			<line class="st3" x1="313" y1="51.2" x2="311.9" y2="51.2"/>
			<line class="st4" x1="309.8" y1="51.2" x2="66.1" y2="51.2"/>
			<line class="st3" x1="65" y1="51.2" x2="63.9" y2="51.2"/>
		</g>
	</g>
	<g class="st2">
		<g>
			<line class="st3" x1="313" y1="47.4" x2="311.9" y2="47.4"/>
			<line class="st4" x1="309.8" y1="47.4" x2="66.1" y2="47.4"/>
			<line class="st3" x1="65" y1="47.4" x2="63.9" y2="47.4"/>
		</g>
	</g>
	<g class="st2">
		<g>
			<line class="st3" x1="313" y1="43.6" x2="311.9" y2="43.6"/>
			<line class="st4" x1="309.8" y1="43.6" x2="66.1" y2="43.6"/>
			<line class="st3" x1="65" y1="43.6" x2="63.9" y2="43.6"/>
		</g>
	</g>
	<g class="st2">
		<g>
			<line class="st3" x1="313" y1="39.8" x2="311.9" y2="39.8"/>
			<line class="st4" x1="309.8" y1="39.8" x2="66.1" y2="39.8"/>
			<line class="st3" x1="65" y1="39.8" x2="63.9" y2="39.8"/>
		</g>
	</g>
	<g class="st2">
		<g>
			<line class="st3" x1="313" y1="36" x2="311.9" y2="36"/>
			<line class="st4" x1="309.8" y1="36" x2="66.1" y2="36"/>
			<line class="st3" x1="65" y1="36" x2="63.9" y2="36"/>
		</g>
	</g>
	<g class="st2">
		<g>
			<line class="st3" x1="313" y1="32.2" x2="311.9" y2="32.2"/>
			<line class="st4" x1="309.8" y1="32.2" x2="66.1" y2="32.2"/>
			<line class="st3" x1="65" y1="32.2" x2="63.9" y2="32.2"/>
		</g>
	</g>
	<g class="st2">
		<g>
			<line class="st3" x1="313" y1="28.4" x2="311.9" y2="28.4"/>
			<line class="st4" x1="309.8" y1="28.4" x2="66.1" y2="28.4"/>
			<line class="st3" x1="65" y1="28.4" x2="63.9" y2="28.4"/>
		</g>
	</g>
	<g class="st2">
		<g>
			<line class="st3" x1="313" y1="24.6" x2="311.9" y2="24.6"/>
			<line class="st4" x1="309.8" y1="24.6" x2="66.1" y2="24.6"/>
			<line class="st3" x1="65" y1="24.6" x2="63.9" y2="24.6"/>
		</g>
	</g>
	<g class="st2">
		<g>
			<line class="st3" x1="313" y1="20.8" x2="311.9" y2="20.8"/>
			<line class="st4" x1="309.8" y1="20.8" x2="66.1" y2="20.8"/>
			<line class="st3" x1="65" y1="20.8" x2="63.9" y2="20.8"/>
		</g>
	</g>
	<g class="st2">
		<g>
			<line class="st3" x1="313" y1="17.1" x2="311.9" y2="17.1"/>
			<line class="st4" x1="309.8" y1="17.1" x2="66.1" y2="17.1"/>
			<line class="st3" x1="65" y1="17.1" x2="63.9" y2="17.1"/>
		</g>
	</g>
	<g class="st2">
		<g>
			<line class="st3" x1="313" y1="13.3" x2="311.9" y2="13.3"/>
			<line class="st4" x1="309.8" y1="13.3" x2="66.1" y2="13.3"/>
			<line class="st3" x1="65" y1="13.3" x2="63.9" y2="13.3"/>
		</g>
	</g>
	<g class="st2">
		<g>
			<line class="st3" x1="313" y1="62.5" x2="311.9" y2="62.5"/>
			<line class="st5" x1="309.8" y1="62.5" x2="2.1" y2="62.5"/>
			<line class="st3" x1="1.1" y1="62.5" x2="0" y2="62.5"/>
		</g>
	</g>
	<g class="st2">
		<g>
			<line class="st3" x1="313" y1="58.7" x2="311.9" y2="58.7"/>
			<line class="st4" x1="309.8" y1="58.7" x2="66.1" y2="58.7"/>
			<line class="st3" x1="65" y1="58.7" x2="63.9" y2="58.7"/>
		</g>
	</g>
	<g class="st2">
		<g>
			<line class="st3" x1="313" y1="54.9" x2="311.9" y2="54.9"/>
			<line class="st4" x1="309.8" y1="54.9" x2="66.1" y2="54.9"/>
			<line class="st3" x1="65" y1="54.9" x2="63.9" y2="54.9"/>
		</g>
	</g>
	<g class="st2">
		<g>
			<line class="st3" x1="298.8" y1="0" x2="298.8" y2="1.1"/>
			<polyline class="st6" points="298.8,3.2 298.8,39.8 298.8,69.9 			"/>
			<line class="st3" x1="298.8" y1="70.9" x2="298.8" y2="72"/>
		</g>
	</g>
	<g class="st2">
		<g>
			<line class="st3" x1="63.9" y1="0" x2="63.9" y2="1.1"/>
			<polyline class="st7" points="63.9,3.2 63.9,9.5 63.9,39.8 63.9,69.9 			"/>
			<line class="st3" x1="63.9" y1="70.9" x2="63.9" y2="72"/>
		</g>
	</g>
	<g class="st2">
		<g>
			<line class="st3" x1="54.5" y1="0" x2="54.5" y2="1.1"/>
			<polyline class="st7" points="54.5,3.2 54.5,9.5 54.5,39.8 54.5,69.9 			"/>
			<line class="st3" x1="54.5" y1="70.9" x2="54.5" y2="72"/>
		</g>
	</g>
	<g class="st2">
		<g>
			<line class="st3" x1="9.5" y1="0" x2="9.5" y2="1.1"/>
			<polyline class="st6" points="9.5,3.2 9.5,32.6 9.5,69.9 			"/>
			<line class="st3" x1="9.5" y1="70.9" x2="9.5" y2="72"/>
		</g>
	</g>
	<g class="st2">
		<g>
			<line class="st3" x1="59.2" y1="0" x2="59.2" y2="1.1"/>
			<polyline class="st7" points="59.2,3.2 59.2,9.5 59.2,39.8 59.2,69.9 			"/>
			<line class="st3" x1="59.2" y1="70.9" x2="59.2" y2="72"/>
		</g>
	</g>
	<g class="st2">
		<g>
			<line class="st3" x1="4.7" y1="0" x2="4.7" y2="1.1"/>
			<polyline class="st6" points="4.7,3.2 4.7,9.5 4.7,39.8 4.7,69.9 			"/>
			<line class="st3" x1="4.7" y1="70.9" x2="4.7" y2="72"/>
		</g>
	</g>
	<g class="st2">
		<g>
			<line class="st3" x1="303.5" y1="0" x2="303.5" y2="1.1"/>
			<polyline class="st6" points="303.5,3.2 303.5,39.8 303.5,69.9 			"/>
			<line class="st3" x1="303.5" y1="70.9" x2="303.5" y2="72"/>
		</g>
	</g>
	<g class="st2">
		<g>
			<line class="st3" x1="308.3" y1="0" x2="308.3" y2="1.1"/>
			<polyline class="st6" points="308.3,3.2 308.3,39.8 308.3,69.9 			"/>
			<line class="st3" x1="308.3" y1="70.9" x2="308.3" y2="72"/>
		</g>
	</g>
	<g class="st2">
		<g>
			<line class="st3" x1="313" y1="9.5" x2="311.9" y2="9.5"/>
			<line class="st8" x1="309.8" y1="9.5" x2="2.1" y2="9.5"/>
			<line class="st3" x1="1.1" y1="9.5" x2="0" y2="9.5"/>
		</g>
	</g>
	<g class="st2">
		<g>
			<line class="st3" x1="313" y1="4.7" x2="311.9" y2="4.7"/>
			<line class="st5" x1="309.8" y1="4.7" x2="2.1" y2="4.7"/>
			<line class="st3" x1="1.1" y1="4.7" x2="0" y2="4.7"/>
		</g>
	</g>
	<g class="st2">
		<g>
			<line class="st3" x1="313" y1="67.3" x2="311.9" y2="67.3"/>
			<line class="st8" x1="309.8" y1="67.3" x2="2.1" y2="67.3"/>
			<line class="st3" x1="1.1" y1="67.3" x2="0" y2="67.3"/>
		</g>
	</g>
	<rect x="0" y="0" class="st9" width="313" height="72"/>
	<text transform="matrix(1 0 0 1 55.5812 3.831)" class="st10 st11 st12">X</text>
</g>
</svg>
