<?xml version="1.0" encoding="utf-8"?>
<!-- Generator: Adobe Illustrator 27.7.0, SVG Export Plug-In . SVG Version: 6.00 Build 0)  -->
<svg version="1.1" xmlns="http://www.w3.org/2000/svg" xmlns:xlink="http://www.w3.org/1999/xlink" x="0px" y="0px"
	 viewBox="0 0 96.4 179.5" style="enable-background:new 0 0 96.4 179.5;" xml:space="preserve">
<style type="text/css">
	.st0{fill:#2D903C;}
	.st1{display:none;}
	.st2{display:inline;fill:none;stroke:#00AEEF;stroke-width:0.1211;stroke-miterlimit:10;stroke-dasharray:2.422,2.422;}
	.st3{display:inline;fill:none;stroke:#00AEEF;stroke-width:0.1211;stroke-miterlimit:10;}
</style>
<g id="Artwork">
	<rect x="5.9" y="156.5" class="st0" width="84.7" height="1.9"/>
	<g>
		<path class="st0" d="M58.7,165.7l-0.3,1.5c0,0,1-0.3,1.6-0.3c0.7,0,0.8,0,0.8,0s0,5,0,5.8c0,0.6-0.2,1.1-0.2,1.1h2.1
			c0,0-0.2-0.5-0.2-1.1c0-0.8,0-5.8,0-5.8s0,0,0.8,0c0.8,0,1.6,0.3,1.6,0.3l-0.3-1.5H58.7z"/>
		<path class="st0" d="M56.7,170.1c-0.5-1.4-1-2.8-1.2-3.3c-0.2-0.6,0.1-1.1,0.1-1.1h-0.8h-1.6h-0.8c0,0,0.3,0.5,0.1,1.1
			c-0.1,0.4-0.7,1.9-1.2,3.3c-0.3,0.9-0.8,2.4-0.9,2.7c-0.2,0.6-0.7,1.1-0.7,1.1h2.1c0,0-0.1-0.5,0.2-1.1c0-0.1,0.1-0.3,0.2-0.6h3.5
			c0.1,0.3,0.2,0.5,0.2,0.6c0.2,0.6,0.2,1.1,0.2,1.1h2.1c0,0-0.4-0.6-0.7-1.1C57.5,172.5,57,171.1,56.7,170.1z M52.7,170.9
			c0.1-0.3,0.2-0.6,0.3-0.8c0.4-1.1,0.8-2.3,1-2.9c0.2,0.6,0.6,1.8,1,2.9c0.1,0.3,0.2,0.5,0.3,0.8H52.7z"/>
		<path class="st0" d="M16.7,165.6c-2.8,0-4,2.2-4,4.2s1.2,4.2,4,4.2c2.8,0,4-2.2,4-4.2S19.5,165.6,16.7,165.6z M16.7,172.7
			c-1.8,0-2.4-1.5-2.4-2.9s0.6-2.9,2.4-2.9c1.8,0,2.4,1.5,2.4,2.9S18.5,172.7,16.7,172.7z"/>
		<path class="st0" d="M77.8,165.6c-2.8,0-4,2.2-4,4.2s1.2,4.2,4,4.2c2.8,0,4-2.2,4-4.2S80.6,165.6,77.8,165.6z M77.8,172.7
			c-1.8,0-2.4-1.5-2.4-2.9s0.6-2.9,2.4-2.9c1.8,0,2.4,1.5,2.4,2.9S79.5,172.7,77.8,172.7z"/>
		<path class="st0" d="M45.1,165.7L45.1,165.7l-3.5,0c0,0,0.2,0.6,0.2,1.2c0,0.5,0,5.1,0,5.9c0,0.8-0.2,1.2-0.2,1.2h3.5
			c2.8,0,4.2-2.1,4.2-4.1S47.9,165.7,45.1,165.7z M45.1,172.6L45.1,172.6c-0.8,0-1.6,0-1.6,0V167c0,0,0.7,0,1.6,0
			c1.8,0,2.6,1.4,2.6,2.8S46.9,172.6,45.1,172.6z"/>
		<path class="st0" d="M39.3,165.7h-1.9c0,0,0.2,0.4,0.2,1.2c0,0.7,0,4.4,0,4.4l0,0l-3.5-5.5h-1.9c0,0,0.2,0.5,0.2,1.2
			c0,0.6,0,5.4,0,5.9s-0.2,1.1-0.2,1.1h1.9c0,0-0.2-0.6-0.2-1.1c0-0.6,0-4.3,0-4.3l0,0l3.5,5.5h1.8c0,0-0.2-0.5-0.2-1.3
			c0-1.9,0-5.2,0-5.8C39,166.1,39.3,165.7,39.3,165.7z"/>
		<path class="st0" d="M90.6,166.9c0-0.8,0.2-1.2,0.2-1.2h-1.9c0,0,0.2,0.4,0.2,1.2c0,0.7,0,4.4,0,4.4l0,0l-3.5-5.5h-1.9
			c0,0,0.2,0.5,0.2,1.2c0,0.6,0,5.4,0,5.9s-0.2,1.1-0.2,1.1h1.9c0,0-0.2-0.6-0.2-1.1c0-0.6,0-4.3,0-4.3l0,0l3.5,5.5h1.8
			c0,0-0.2-0.5-0.2-1.3C90.6,170.8,90.6,167.4,90.6,166.9z"/>
		<path class="st0" d="M5.6,165.7c0,0,0.2,0.6,0.2,1.2c0,0.3,0,2,0,3.6c0,1,0,2,0,2.3c0,0.6-0.2,1.1-0.2,1.1h2.1
			c0,0-0.2-0.5-0.2-1.1c0-0.3,0-1.4,0-2.4c0,0,0.7,0,1.4,0c0.7,0,1.4,0.2,1.4,0.2v-1.6c0,0-0.8,0.2-1.4,0.2c-0.6,0-1.4,0-1.4,0V167
			c0,0,2,0,3,0c0.9,0,1.3,0.4,1.3,0.4l-0.3-1.6H5.6z"/>
		<path class="st0" d="M30.1,165.7h-0.2h-0.5h-0.7h-0.5H28c0,0,0.2,0.6,0.2,1.2l0,0v3.4c0,1.5-0.2,2.4-2,2.4s-2-0.9-2-2.4v-3.4l0,0
			c0-0.5,0.2-1.2,0.2-1.2h-0.2H24h-0.9h-0.4h-0.2c0,0,0.2,0.6,0.2,1.2l0,0v3.4c0,2.3,0.8,3.7,3.6,3.7c2.8,0,3.6-1.4,3.6-3.7v-3.4
			l0,0C29.9,166.3,30.1,165.7,30.1,165.7z"/>
		<path class="st0" d="M71.1,172.6c-0.6,0-0.9,0-0.9,0V167c0,0,0.3,0,0.9,0c0.8,0,1.6,0.1,1.6,0.1l-0.3-1.3h-2.2h-1.7h-2.2l-0.3,1.3
			c0,0,0.7-0.1,1.6-0.1c0.5,0,0.9,0,0.9,0v5.6c0,0-0.3,0-0.9,0c-0.8,0-1.6-0.1-1.6-0.1l0.3,1.4h2.2h1.7h2.2l0.3-1.4
			C72.7,172.5,71.9,172.6,71.1,172.6z"/>
	</g>
	<g>
		<g>
			<path class="st0" d="M69.3,125v-4.2c0,0,1.3,0,2.5,0c1.2,0,2.5,0.3,2.5,0.3v-2.8c0,0-1.5,0.3-2.6,0.3c-1.1,0-2.5,0-2.5,0v-3.7
				c0,0,3.7,0,5.3,0s2.4,0.6,2.4,0.6l-0.6-2.9H65.9c0,0,0.4,1.1,0.4,2.1c0,1,0,9,0,10.5c0,1.4-0.4,2.1-0.4,2.1h10.6l0.6-2.9
				c0,0-1.1,0.6-2.4,0.6C73.4,125,69.3,125,69.3,125z"/>
			<path class="st0" d="M36.5,112.6l-0.6,2.8c0,0,1.8-0.5,2.9-0.5c1.2,0,1.5,0,1.5,0s0,8.8,0,10.3c0,1-0.4,2.1-0.4,2.1h3.8
				c0,0-0.4-0.9-0.4-2.1c0-1.4,0-10.3,0-10.3s0,0,1.5,0c1.5,0,2.9,0.5,2.9,0.5l-0.6-2.8H36.5z"/>
			<path class="st0" d="M36.5,112.6l-0.6,2.8c0,0,1.8-0.5,2.9-0.5c1.2,0,1.5,0,1.5,0s0,8.8,0,10.3c0,1-0.4,2.1-0.4,2.1h3.8
				c0,0-0.4-0.9-0.4-2.1c0-1.4,0-10.3,0-10.3s0,0,1.5,0c1.5,0,2.9,0.5,2.9,0.5l-0.6-2.8H36.5z"/>
			<path class="st0" d="M5.6,119.9c0,4.8,3.9,7.5,8,7.5c2,0,3.7-0.7,4.7-1.3v-2.7c0,0-1.8,1.5-4.6,1.5c-2.8,0-5.2-1.4-5.2-5.1
				c0-3.7,2.4-5.1,5.2-5.1c2.8,0,4.6,1.5,4.6,1.5v-2.7c-1-0.6-2.7-1.3-4.7-1.3C9.4,112.4,5.6,115.1,5.6,119.9z"/>
		</g>
		<path class="st0" d="M82.8,116.4c0-1.3,1.3-1.8,2.6-1.8c3.1,0,4.8,2.1,4.8,2.1v-2.8c-0.6-0.6-2.1-1.5-4.8-1.5
			c-3.2,0-5.5,1.9-5.5,4.1c0,5,8,4.3,8,7.2c0,1.4-1.1,1.7-2.6,1.7c-3.4,0-5.5-2.5-5.5-2.5v2.8c0.6,0.7,2.7,1.8,5.3,1.8
			c2.9,0,5.6-1.1,5.6-4.1C90.8,118.4,82.8,119.1,82.8,116.4z"/>
		<path class="st0" d="M59.6,124.9c-1,0-1.5,0-1.5,0v-10c0,0,0.6,0,1.5,0c1.5,0,2.8,0.1,2.8,0.1l-0.5-2.4H58h-3h-3.8l-0.5,2.4
			c0,0,1.3-0.1,2.8-0.1c1,0,1.5,0,1.5,0v10c0,0-0.5,0-1.5,0c-1.5,0-2.9-0.2-2.9-0.2l0.6,2.5h3.8h3h3.8l0.6-2.5
			C62.5,124.7,61.1,124.9,59.6,124.9z"/>
		<path class="st0" d="M30.2,124.9c-1,0-1.5,0-1.5,0v-10c0,0,0.6,0,1.5,0c1.5,0,2.8,0.1,2.8,0.1l-0.5-2.4h-3.8h-3h-3.8l-0.5,2.4
			c0,0,1.3-0.1,2.8-0.1c1,0,1.5,0,1.5,0v10c0,0-0.5,0-1.5,0c-1.5,0-2.9-0.2-2.9-0.2l0.6,2.5h3.8h3h3.8l0.6-2.5
			C33.1,124.7,31.7,124.9,30.2,124.9z"/>
	</g>
	<g>
		<path class="st0" d="M18.7,134.6l-0.6,2.8c0,0,1.8-0.5,2.9-0.5s1.5,0,1.5,0s0,8.8,0,10.3c0,1-0.4,2.1-0.4,2.1h3.8
			c0,0-0.4-0.9-0.4-2.1c0-1.4,0-10.3,0-10.3s0,0,1.5,0c1.5,0,2.9,0.5,2.9,0.5l-0.6-2.8H18.7z"/>
		<path class="st0" d="M53.4,134.3c-5.1,0-7.2,4-7.2,7.5c0,3.6,2.1,7.5,7.2,7.5s7.2-4,7.2-7.5C60.6,138.3,58.5,134.3,53.4,134.3z
			 M53.4,147.1c-3.2,0-4.2-2.6-4.2-5.2c0-2.6,1.1-5.2,4.2-5.2c3.2,0,4.2,2.6,4.2,5.2C57.7,144.5,56.6,147.1,53.4,147.1z"/>
		<path class="st0" d="M75.8,134.6h-3.5c0,0,0.4,0.8,0.4,2.1c0,1.3,0,7.8,0,7.8l-0.1,0l-6.2-9.9h-3.4c0,0,0.4,1,0.4,2.1
			c0,1.1,0,9.5,0,10.5c0,1-0.4,2.1-0.4,2.1h3.5c0,0-0.4-1-0.4-2.1c0-1.1,0-7.6,0-7.6l0.1,0l6.2,9.7h3.2c0,0-0.3-0.9-0.3-2.3
			c0-3.3,0-9.3,0-10.3C75.4,135.2,75.8,134.6,75.8,134.6z"/>
		<path class="st0" d="M87.3,141.9c0,0,0.6,1.1,0.6,2.2c0,1.1,0,2.5,0,2.5c-0.2,0.1-0.7,0.3-1.1,0.4c-0.4,0.1-0.8,0.2-1.4,0.2
			c-2.2,0-4.1-1.2-4.1-4.9c0-3.7,1.8-5.5,4.6-5.5c2.8,0,4.6,1.5,4.6,1.5v-2.7c-1.2-0.8-2.7-1.3-4.7-1.3c-4.1,0-7.4,3.1-7.4,7.9
			c0,4.1,2.7,7.1,6.7,7.1c1.4,0,2.5-0.2,3.5-0.6c0.9-0.4,1.6-0.8,2.1-1.3c0,0,0-1.7,0-3.4c0-1.5,0.5-2.3,0.5-2.3H87.3z"/>
		<path class="st0" d="M42.3,145.7c-0.2-0.6-0.7-1.8-1.4-2.2c1.6-0.7,2.8-2.2,2.8-4.4c0-2.9-2.2-4.6-5.3-4.6h-6.7c0,0,0.4,1,0.4,2.1
			c0,1.1,0,9.4,0,10.5c0,1.1-0.4,2.1-0.4,2.1h3.8c0,0-0.4-1-0.4-2.1c0-1.1,0-3.1,0-3.1h3.2c0,0,1,2.1,1.3,2.9
			c0.9,1.9,1.9,2.3,3.3,2.3c1.4,0,2.2-0.6,2.2-0.6l-0.4-0.9C43.9,147.9,42.9,147.3,42.3,145.7z M35.1,141.8v-4.9c0,0,2,0,3.3,0
			c1.5,0,2.4,0.9,2.4,2.5c0,1.4-0.9,2.5-2.5,2.5H35.1z"/>
		<path class="st0" d="M8.7,138.3c0-1.3,1.3-1.8,2.6-1.8c3.1,0,4.8,2.1,4.8,2.1v-2.8c-0.6-0.6-2.1-1.5-4.8-1.5
			c-3.2,0-5.5,1.9-5.5,4.1c0,5,8,4.3,8,7.2c0,1.4-1.1,1.7-2.6,1.7c-3.4,0-5.5-2.5-5.5-2.5v2.8c0.6,0.7,2.7,1.8,5.3,1.8
			c2.9,0,5.6-1.1,5.6-4.1C16.6,140.4,8.7,141,8.7,138.3z"/>
	</g>
	<g>
		<path class="st0" d="M25.6,86.3c6.8,5.6,14.7,8.8,20.2,10.6l2.3,0.8l2.3-0.7c4.5-1.4,13.1-4.6,20.3-10.5
			c8.1-6.6,12.4-14.8,12.4-23.8V13.4h-70v48.4C13.2,71.1,17.5,79.6,25.6,86.3z M45.1,78.6c-7.7-0.4-13.2-3.4-17.2-4.4
			c0-1.8,0-7.3,0-7.3s5.7,5.5,17.2,6.9V78.6z M53.2,78.8c0,1.4,0,2.5,0,3c0,3.9,1.2,7.3,1.2,7.3h-7.5c0,0,1.2-3.6,1.2-7.5
			c0-0.4,0-10.7,0-12.4h0c0,0,1.5,0.1,2.6,0.1s2.5,0,2.5,0c0,1.8,0,3.4,0,5c9.4-0.5,14.7-4.2,14.7-9.6c0-6-5.4-7.3-11.7-8v-5.1
			c8.4,0.9,16.9,2.6,16.9,13.1C73.1,69.6,69.1,78.1,53.2,78.8z M52.7,20.1c5.9,0,8.4,0.6,10.9,0.6c0,1.4-0.2,6.3-0.2,6.3
			s-3.1-2.3-10.8-2.3c-13.2,0-24,7.5-24,19.7c0,11.3,8.6,16.7,19.4,17.5c0-2.1,0-4.3,0-6.3c-6.8-1-12.7-3.1-12.7-11.1
			c0-5.3,2.6-13.9,20.1-13.9c7.6,0,12.7,1.7,16.5,2.8c0,2,0,7,0,7s-5.2-5.2-16.5-5.2c-10.6,0-14.9,4.1-14.9,9.3c0,3.8,3.2,5.2,7.5,6
			c0-1.3,0-2.6,0-3.7c0-2.7-0.9-5.6-0.9-5.6h16.3v6.1c0,0-3.6-1.8-7.1-1.8c-1,0-2.1,0-3.2,0v16.7c3.4,0,7.1-1.1,7.1-1.1v5.2
			c0,0-5.2,0.2-9.4,0.2c-2.3,0-3.8-0.1-5.3-0.3c-14.4-1.9-22.1-10.7-22.1-21.9C23.4,32,34,20.1,52.7,20.1z"/>
		<path class="st0" d="M88.1,6.1H8.2H5.9v2.4v53.3c0,11.6,5.2,22,15.1,30.1c7.6,6.3,16.5,10,22.6,11.9l3.8,1.2l0.7,0.2l0.7-0.2
			l3.8-1.2c5-1.6,14.6-5.2,22.7-11.8c9.9-8,15.1-18.2,15.1-29.5v-54V6.1H88.1z M88.1,62.5c0,10.5-4.9,20.1-14.3,27.7
			c-7.9,6.4-17.1,9.8-21.9,11.4l-3.8,1.2l-3.8-1.2c-5.9-1.9-14.4-5.4-21.8-11.5C13.2,82.4,8.2,72.6,8.2,61.8V8.5h79.9V62.5z"/>
	</g>
</g>
<g id="Guides" class="st1">
	<polyline class="st2" points="0,179.8 48.1,179.8 96.4,179.8 	"/>
	<polyline class="st2" points="5.9,0.1 5.9,5.9 5.9,179.8 	"/>
	<polyline class="st2" points="90.6,0.1 90.6,5.9 90.6,179.8 	"/>
	<polyline class="st2" points="0,0.1 48.1,0.1 96.4,0.1 	"/>
	<polyline class="st2" points="0,3 48.1,3 90.2,3 96.4,3 	"/>
	<polyline class="st2" points="0,6.1 48.1,6.1 90.2,6.1 96.4,6.1 	"/>
	<line class="st2" x1="96.4" y1="179.8" x2="96.4" y2="0.1"/>
	<line class="st2" x1="93.5" y1="179.8" x2="93.5" y2="0.1"/>
	<line class="st2" x1="0" y1="179.8" x2="0" y2="0.1"/>
	<line class="st2" x1="2.9" y1="179.8" x2="2.9" y2="0.1"/>
	<line class="st2" x1="0" y1="109.7" x2="96.4" y2="109.7"/>
	<polyline class="st2" points="0,105.3 48.1,105.3 96.4,105.3 	"/>
	<line class="st2" x1="0" y1="106.7" x2="96.4" y2="106.7"/>
	<line class="st2" x1="0" y1="112.6" x2="96.4" y2="112.6"/>
	<line class="st2" x1="0" y1="121.4" x2="96.4" y2="121.4"/>
	<polyline class="st2" points="0,115.5 48.1,115.5 96.4,115.5 	"/>
	<line class="st2" x1="0" y1="118.4" x2="96.4" y2="118.4"/>
	<line class="st2" x1="0" y1="124.3" x2="96.4" y2="124.3"/>
	<line class="st2" x1="0" y1="133.1" x2="96.4" y2="133.1"/>
	<line class="st2" x1="0" y1="134.6" x2="96.4" y2="134.6"/>
	<polyline class="st2" points="0,127.2 48.1,127.2 96.4,127.2 	"/>
	<line class="st2" x1="0" y1="130.2" x2="96.4" y2="130.2"/>
	<line class="st2" x1="0" y1="137.5" x2="96.4" y2="137.5"/>
	<line class="st2" x1="0" y1="140.4" x2="96.4" y2="140.4"/>
	<polyline class="st2" points="0,143.3 48.1,143.3 96.4,143.3 	"/>
	<line class="st2" x1="0" y1="146.3" x2="96.4" y2="146.3"/>
	<line class="st2" x1="0" y1="149.2" x2="96.4" y2="149.2"/>
	<line class="st2" x1="0" y1="152.1" x2="96.4" y2="152.1"/>
	<line class="st2" x1="0" y1="155" x2="96.4" y2="155"/>
	<line class="st2" x1="0" y1="158.4" x2="96.4" y2="158.4"/>
	<line class="st2" x1="96.4" y1="165.7" x2="0" y2="165.7"/>
	<line class="st2" x1="96.4" y1="159.8" x2="0" y2="159.8"/>
	<line class="st2" x1="0" y1="176.8" x2="96.4" y2="176.8"/>
	<line class="st2" x1="0" y1="173.9" x2="96.4" y2="173.9"/>
	<line class="st2" x1="96.4" y1="162.8" x2="0" y2="162.8"/>
	<line class="st2" x1="0" y1="156.5" x2="96.4" y2="156.5"/>
	<rect x="0" y="0.1" class="st3" width="96.4" height="179.7"/>
</g>
</svg>
