<?xml version="1.0" standalone="no"?>
<!DOCTYPE svg PUBLIC "-//W3C//DTD SVG 20010904//EN"
 "http://www.w3.org/TR/2001/REC-SVG-20010904/DTD/svg10.dtd">
<svg version="1.0" xmlns="http://www.w3.org/2000/svg"
 width="215.000000pt" height="215.000000pt" viewBox="0 0 215.000000 215.000000"
 preserveAspectRatio="xMidYMid meet">
<metadata>
Created by potrace 1.14, written by Peter Selinger 2001-2017
</metadata>
<g transform="translate(0.000000,215.000000) scale(0.100000,-0.100000)"
fill="#000000" stroke="none">
<path d="M143 1478 c3 -610 5 -679 21 -733 25 -84 86 -204 141 -275 109 -142
325 -291 545 -374 52 -20 123 -50 158 -66 l62 -30 63 30 c34 16 105 46 157 66
220 83 436 232 545 374 55 71 116 191 141 275 16 54 18 123 21 733 l4 672
-931 0 -931 0 4 -672z"/>
</g>
</svg>
